<?xml version="1.0" encoding="utf-8"?>
<!-- Generator: Adobe Illustrator 19.0.0, SVG Export Plug-In . SVG Version: 6.00 Build 0)  -->
<svg version="1.1" id="图层_1" xmlns="http://www.w3.org/2000/svg" xmlns:xlink="http://www.w3.org/1999/xlink" x="0px" y="0px"
	 viewBox="0 0 80 80" style="enable-background:new 0 0 80 80;" xml:space="preserve">
<style type="text/css">
	.st0{fill:url(#SVGID_1_);}
</style>
<linearGradient id="SVGID_1_" gradientUnits="userSpaceOnUse" x1="18.3629" y1="67.1921" x2="72.7491" y2="12.8059">
	<stop  offset="0" style="stop-color:#BD1A21"/>
	<stop  offset="1" style="stop-color:#DF5F22"/>
</linearGradient>
<path class="st0" d="M76.4,53.2c1.6-4.1,2.5-8.5,2.5-13.2c0-4.8-1-9.4-2.7-13.6c1.5-1.2,2.5-3,2.5-5c0-3.5-2.8-6.3-6.3-6.3
	c-1,0-2,0.3-2.8,0.7c-6.7-7.4-16.3-12.2-27-12.2C24.6,3.6,9.8,16.7,6.8,33.7C3.5,34,1,36.7,1,40c0,3.3,2.6,6,5.8,6.3
	c3,17.1,17.8,30.1,35.8,30.1c10.9,0,20.7-4.9,27.4-12.5c0.9,0.4,1.8,0.7,2.8,0.7c3.5,0,6.3-2.8,6.3-6.3C79,56.2,78,54.3,76.4,53.2z
	 M74.4,52.2c-0.5-0.1-1.1-0.3-1.7-0.3c-3.1,0-5.7,2.3-6.2,5.2H59c1.3-4.8,2-10.3,2.1-16.1h15.6C76.6,45,75.8,48.8,74.4,52.2z
	 M76.7,38.9H61.1C61,33.1,60.3,27.6,59,22.8h7.3c0.7,2.8,3.1,4.9,6.1,4.9c0.6,0,1.3-0.1,1.8-0.3C75.7,31,76.6,34.8,76.7,38.9z
	 M76.5,21.4c0,2.3-1.8,4.1-4.1,4.1c-2.3,0-4.1-1.8-4.1-4.1c0-2.3,1.8-4.1,4.1-4.1C74.7,17.3,76.5,19.1,76.5,21.4z M67.8,17.1
	c-0.9,1-1.5,2.2-1.6,3.6h-7.9c-1.9-6.2-4.8-11-8.2-14C57.1,8.2,63.2,12,67.8,17.1z M43.7,5.9c5.1,0.7,9.6,6.4,12.3,14.7H43.7V5.9z
	 M56.7,22.8c1.3,4.8,2.1,10.2,2.2,16.1H48.8c-0.5-2.5-2.5-4.4-5.1-4.9V22.8H56.7z M36.4,38.9H26.2c0.1-3.9,0.5-7.5,1.1-10.9
	c0.1,0,0.2,0,0.3,0c3.1,0,5.7-2.3,6.2-5.2h7.8V34C39,34.5,37,36.4,36.4,38.9z M31.7,21.7c0,2.3-1.8,4.1-4.1,4.1s-4.1-1.8-4.1-4.1
	c0-2.3,1.8-4.1,4.1-4.1S31.7,19.4,31.7,21.7z M42.6,36.1c2.3,0,4.1,1.8,4.1,4.1c0,2.3-1.8,4.1-4.1,4.1c-2.3,0-4.1-1.8-4.1-4.1
	C38.5,37.9,40.3,36.1,42.6,36.1z M43.7,46.4c2.7-0.5,4.7-2.6,5.1-5.3h10.1C58.8,47,58,52.4,56.7,57.2h-13V46.4z M41.5,5.9v14.7h-7.8
	c-0.3-1.8-1.4-3.4-3-4.3C33.5,10.4,37.3,6.5,41.5,5.9z M35,6.7c-2.4,2.1-4.5,5.1-6.2,8.9c-0.4-0.1-0.8-0.1-1.2-0.1
	c-3.1,0-5.7,2.3-6.2,5.2h-7C19.2,13.7,26.5,8.6,35,6.7z M21.4,22.8c0.4,2.1,1.8,3.9,3.8,4.7c-0.6,3.6-1.1,7.4-1.1,11.4H13.4
	C13,36.5,11.3,34.6,9,34c0.7-4,2.1-7.8,4-11.2H21.4z M3.1,40c0-2.3,1.8-4.1,4.1-4.1c2.3,0,4.1,1.8,4.1,4.1c0,2.3-1.8,4.1-4.1,4.1
	C5,44.1,3.1,42.3,3.1,40z M9,46c2.3-0.7,4.1-2.6,4.5-4.9H24c0.1,5.8,0.8,11.3,2.1,16.1H13C11,53.8,9.7,50,9,46z M14.4,59.4h12.4
	c1.9,6.2,4.8,11,8.2,14C26.5,71.4,19.2,66.3,14.4,59.4z M41.5,74.1c-5.2-0.7-9.7-6.3-12.4-14.7h12.4V74.1z M28.4,57.2
	c-1.3-4.8-2.1-10.2-2.2-16.1h10.2c0.4,2.7,2.5,4.8,5.1,5.3v10.8H28.4z M43.7,74.1V59.4H56C53.3,67.7,48.8,73.3,43.7,74.1z
	 M50.1,73.3c3.4-2.9,6.3-7.8,8.2-14h8.2c0.2,1.2,0.8,2.3,1.6,3.2C63.5,67.9,57.2,71.7,50.1,73.3z M72.7,62.4c-2.3,0-4.1-1.8-4.1-4.1
	c0-2.3,1.8-4.1,4.1-4.1c2.3,0,4.1,1.8,4.1,4.1C76.9,60.6,75,62.4,72.7,62.4z"/>
</svg>
