<?xml version="1.0" encoding="utf-8"?>
<!-- Generator: Adobe Illustrator 19.0.0, SVG Export Plug-In . SVG Version: 6.00 Build 0)  -->
<svg version="1.1" id="图层_1" xmlns="http://www.w3.org/2000/svg" xmlns:xlink="http://www.w3.org/1999/xlink" x="0px" y="0px"
	 viewBox="0 0 374 456" style="enable-background:new 0 0 374 456;" xml:space="preserve">
<style type="text/css">
	.st0{fill:url(#XMLID_58_);}
	.st1{fill:#BD1A21;}
	.st2{fill:#FFFFFF;}
	.st3{fill:#E0E0E0;}
</style>
<linearGradient id="XMLID_58_" gradientUnits="userSpaceOnUse" x1="40.8232" y1="375.6162" x2="332.5569" y2="83.8825">
	<stop  offset="0" style="stop-color:#B21E23"/>
	<stop  offset="1" style="stop-color:#D45D26"/>
</linearGradient>
<path id="XMLID_5_" class="st0" d="M196.9,54.8V25c0-1.4-1.2-2.6-2.6-2.6h-14.7c-1.4,0-2.6,1.2-2.6,2.6v29.8c0,1.4,1.2,2.6,2.6,2.6
	h14.7C195.8,57.4,196.9,56.2,196.9,54.8z M178.3,25c0-0.8,0.6-1.4,1.4-1.4h14.7c0.8,0,1.4,0.6,1.4,1.4v0.9h-17.5V25z M178.3,27.1
	h17.5v22.1h-17.5V27.1z M178.3,54.8v-4.4h17.5v4.4c0,0.8-0.6,1.4-1.4,1.4h-14.7C178.9,56.2,178.3,55.6,178.3,54.8z M187,51
	c-1.3,0-2.3,1-2.3,2.3c0,1.3,1,2.3,2.3,2.3s2.3-1,2.3-2.3C189.3,52,188.3,51,187,51z M187,54.5c-0.6,0-1.2-0.5-1.2-1.2
	c0-0.6,0.5-1.2,1.2-1.2s1.2,0.5,1.2,1.2C188.2,53.9,187.6,54.5,187,54.5z M187,24.1h-2.3c-0.3,0-0.6,0.3-0.6,0.6
	c0,0.3,0.3,0.6,0.6,0.6h2.3c0.3,0,0.6-0.3,0.6-0.6C187.6,24.4,187.3,24.1,187,24.1z M189.3,24.1h-0.6c-0.3,0-0.6,0.3-0.6,0.6
	c0,0.3,0.3,0.6,0.6,0.6h0.6c0.3,0,0.6-0.3,0.6-0.6C189.9,24.4,189.7,24.1,189.3,24.1z M201.7,33.8c-0.2,0.2-0.2,0.6,0,0.8
	c0.1,0.1,0.3,0.2,0.4,0.2c0.1,0,0.3-0.1,0.4-0.2c2.6-2.6,2.6-6.9,0-9.5c-0.2-0.2-0.6-0.2-0.8,0c-0.2,0.2-0.2,0.6,0,0.8
	C203.9,28.1,203.9,31.6,201.7,33.8z M199.2,33.4c0.1,0.1,0.3,0.2,0.4,0.2c0.1,0,0.3-0.1,0.4-0.2c0.9-0.9,1.5-2.2,1.5-3.5
	c0-1.3-0.5-2.6-1.5-3.5c-0.2-0.2-0.6-0.2-0.8,0s-0.2,0.6,0,0.8c0.7,0.7,1.1,1.7,1.1,2.7s-0.4,2-1.1,2.7
	C199,32.8,199,33.2,199.2,33.4z M172.3,25.9c0.2-0.2,0.2-0.6,0-0.8c-0.2-0.2-0.6-0.2-0.8,0c-2.6,2.6-2.6,6.9,0,9.5
	c0.1,0.1,0.3,0.2,0.4,0.2c0.1,0,0.3-0.1,0.4-0.2c0.2-0.2,0.2-0.6,0-0.8C170.1,31.6,170.1,28.1,172.3,25.9z M173.7,29.8
	c0-1,0.4-2,1.1-2.7c0.2-0.2,0.2-0.6,0-0.8c-0.2-0.2-0.6-0.2-0.8,0c-0.9,0.9-1.5,2.2-1.5,3.5c0,1.3,0.5,2.6,1.5,3.5
	c0.1,0.1,0.3,0.2,0.4,0.2c0.1,0,0.3-0.1,0.4-0.2c0.2-0.2,0.2-0.6,0-0.8C174,31.7,173.7,30.8,173.7,29.8z M372.1,145v-21.5
	l-18.6-10.8l-16.8,9.7L220.2,55.1V20.7L187,1.6l-33.2,19.2v34.3l-116,67l-17.3-10L1.9,122.8v21.5l17.3,10v150.8l-17.3,10v21.5
	l18.6,10.8l17.3-10l115.9,66.9v30.9l33.3,19.2l33.3-19.2v-30.9l116.4-67.2l16.8,9.7l18.6-10.8v-21.5l-17.3-10V155L372.1,145z
	 M220.2,58.1l114.7,66.2v19.1l-62.2,35.3L188.3,130V77.4L220.2,59V58.1z M271.4,181v97.4L187,327.2l-84.4-48.7V181l84.4-48.7
	L271.4,181z M156.5,22.3L187,4.6l30.5,17.6v35.2L187,75.1l-30.5-17.6V22.3z M39.1,124.4l114.7-66.2V59l31.8,18.4V130l-84.4,48.7
	l-62.2-35.9V124.4z M4.5,142.8v-18.4l16-9.2l16,9.2v18.4l-16,9.2L4.5,142.8z M36.4,335.1l-16,9.2l-16-9.2v-18.4l16-9.2l16,9.2V335.1
	z M37.8,314.4l-16-9.2V154.3l16-9.2L100,181v97.4L37.8,314.4z M153.7,401.3L39.1,335.1v-18.4l62.2-35.9l84.4,48.7v48.8l-32,18.5
	V401.3z M217.7,433.7L187,451.4l-30.7-17.7v-35.4l30.7-17.7l30.7,17.7V433.7z M334.9,335.1l-114.6,66.2v-4.5l-32-18.5v-48.8
	l84.4-48.7l62.2,35.3V335.1z M336.2,313.8L274,278.5V181l62.2-35.3l16,9.2v149.6L336.2,313.8z M369.5,316.1v18.4l-16,9.2l-16-9.2
	v-18.4l16-9.2L369.5,316.1z M353.5,152.7l-16-9.2V125l16-9.2l16,9.2v18.4L353.5,152.7z M169.4,401.3v24.6c0,1.6,1.3,2.9,2.9,2.9h9.4
	v1.2h-4.1c-0.2,0-0.3,0.1-0.4,0.2c-0.1,0.1-0.2,0.3-0.2,0.4v2.3c0,0.2,0.1,0.3,0.2,0.4c0.1,0.1,0.3,0.2,0.4,0.2h18.7
	c0.2,0,0.3-0.1,0.4-0.2c0.1-0.1,0.2-0.3,0.2-0.4v-2.3c0-0.2-0.1-0.3-0.2-0.4c-0.1-0.1-0.3-0.2-0.4-0.2h-4.1v-1.2h9.4
	c1.6,0,2.9-1.3,2.9-2.9v-24.6c0-1.6-1.3-2.9-2.9-2.9h-29.3C170.8,398.4,169.4,399.7,169.4,401.3z M195.8,431.2v1.2h-17.6v-1.2H195.8
	z M182.9,430v-1.2h8.2v1.2H182.9z M203.4,425.9c0,1-0.8,1.8-1.8,1.8h-29.3c-1,0-1.8-0.8-1.8-1.8v-1.8h32.8V425.9z M203.4,401.3V423
	h-32.8v-21.7c0-1,0.8-1.8,1.8-1.8h29.3C202.6,399.6,203.4,400.4,203.4,401.3z M178.2,414.8c0,0.7,0.4,1.4,1.1,1.6
	c0.7,0.3,1.4,0.1,1.9-0.4l4,2.6c-0.1,0.7,0.2,1.4,0.8,1.8c0.6,0.4,1.4,0.4,1.9,0c0.6-0.4,0.9-1.1,0.8-1.8l4-2.6
	c0.5,0.5,1.3,0.7,1.9,0.4c0.7-0.3,1.1-0.9,1.1-1.7c0-0.7-0.5-1.4-1.2-1.6v-4.3c0.7-0.2,1.2-0.9,1.2-1.6c0-0.7-0.4-1.4-1.1-1.7
	c-0.7-0.3-1.5-0.1-1.9,0.4l-4-2.1c0-0.1,0-0.2,0-0.2c0-1-0.8-1.8-1.8-1.8s-1.8,0.8-1.8,1.8c0,0.1,0,0.2,0,0.2l-4,2.1
	c-0.5-0.5-1.3-0.7-1.9-0.4c-0.7,0.3-1.1,0.9-1.1,1.7c0,0.7,0.5,1.4,1.2,1.6v4.3C178.7,413.4,178.2,414,178.2,414.8z M187,419.5
	c-0.3,0-0.6-0.3-0.6-0.6s0.3-0.6,0.6-0.6s0.6,0.3,0.6,0.6C187.6,419.2,187.3,419.5,187,419.5z M186.4,411.3c0-0.3,0.3-0.6,0.6-0.6
	c0.3,0,0.6,0.3,0.6,0.6c0,0.3-0.3,0.6-0.6,0.6S186.4,411.6,186.4,411.3z M194.6,414.8c0,0.3-0.3,0.6-0.6,0.6c-0.3,0-0.6-0.3-0.6-0.6
	s0.3-0.6,0.6-0.6C194.3,414.2,194.6,414.5,194.6,414.8z M194,406.6c0.3,0,0.6,0.3,0.6,0.6c0,0.3-0.3,0.6-0.6,0.6
	c-0.3,0-0.6-0.3-0.6-0.6C193.4,406.9,193.7,406.6,194,406.6z M192.9,408.5c0.2,0.1,0.4,0.3,0.6,0.3v4.3c-0.7,0.2-1.2,0.9-1.2,1.6
	c0,0,0,0.1,0,0.1l-4.1,2.6c-0.2-0.1-0.4-0.3-0.6-0.3v-4.3c0.8-0.3,1.3-1.1,1.1-2L192.9,408.5z M187,403.1c0.3,0,0.6,0.3,0.6,0.6
	c0,0.3-0.3,0.6-0.6,0.6s-0.6-0.3-0.6-0.6C186.4,403.3,186.7,403.1,187,403.1z M181.7,407.1l4.1-2.1c0.7,0.6,1.7,0.6,2.4,0l4.1,2.1
	c0,0,0,0.1,0,0.1c0,0.1,0,0.2,0,0.3l-4.2,2.5c-0.6-0.6-1.6-0.6-2.3,0l-4.2-2.5c0-0.1,0-0.2,0-0.3
	C181.7,407.1,181.7,407.1,181.7,407.1z M185.3,411c-0.2,0.8,0.3,1.7,1.1,2v4.3c-0.2,0.1-0.4,0.2-0.6,0.3l-4.1-2.6c0,0,0-0.1,0-0.1
	c0-0.7-0.5-1.4-1.2-1.6v-4.3c0.2-0.1,0.4-0.2,0.6-0.3L185.3,411z M180,406.6c0.3,0,0.6,0.3,0.6,0.6c0,0.3-0.3,0.6-0.6,0.6
	c-0.3,0-0.6-0.3-0.6-0.6C179.4,406.9,179.7,406.6,180,406.6z M180,414.2c0.3,0,0.6,0.3,0.6,0.6c0,0.3-0.3,0.6-0.6,0.6
	c-0.3,0-0.6-0.3-0.6-0.6S179.7,414.2,180,414.2z"/>
<g id="XMLID_1_">
	<polygon id="XMLID_56_" class="st1" points="233,247.2 233,256.4 194.7,279 194.7,233.1 233,208.7 233,218.2 202.6,237.2 
		202.6,246.3 233,228.6 233,237.3 202.5,255.6 202.5,264.9 	"/>
	<polygon id="XMLID_55_" class="st2" points="157.3,193.5 198.9,215.7 190.7,221.1 149.2,198.8 141,203.9 191,230.7 215.7,215 
		173.8,192.6 182,187 224.2,209.6 233,204.1 182.4,177 	"/>
	<polygon id="XMLID_54_" class="st3" points="180.2,275.1 180.2,229.3 187.3,233.1 187.3,279 	"/>
	<polygon id="XMLID_53_" class="st3" points="141,254.4 141,208.7 148.9,213 148.9,258.6 	"/>
	<g id="XMLID_2_">
		<polygon id="XMLID_4_" class="st1" points="168.7,231.6 168.7,223.5 160.6,219.2 160.6,227 		"/>
		<polygon id="XMLID_3_" class="st1" points="160.6,232.9 160.6,265 168.7,269.3 168.7,237.6 		"/>
	</g>
</g>
</svg>
