<?xml version="1.0" encoding="utf-8"?>
<!-- Generator: Adobe Illustrator 19.0.0, SVG Export Plug-In . SVG Version: 6.00 Build 0)  -->
<svg version="1.1" id="图层_1" xmlns="http://www.w3.org/2000/svg" xmlns:xlink="http://www.w3.org/1999/xlink" x="0px" y="0px"
	 viewBox="0 0 560 526" style="enable-background:new 0 0 560 526;" xml:space="preserve">
<style type="text/css">
	.st0{fill:url(#XMLID_2_);}
</style>
<linearGradient id="XMLID_2_" gradientUnits="userSpaceOnUse" x1="81.0169" y1="462.6765" x2="479.5144" y2="64.1789">
	<stop  offset="0" style="stop-color:#B21E23"/>
	<stop  offset="1" style="stop-color:#D45D26"/>
</linearGradient>
<path id="XMLID_113_" class="st0" d="M440.6,254.4c-2.4,0-4.4,1.7-4.9,3.9h-36.7c-0.6,0-1.1,0.5-1.1,1.1c0,0.6,0.5,1.1,1.1,1.1h36.7
	c0.5,2.2,2.5,3.9,4.9,3.9c2.8,0,5-2.2,5-5C445.6,256.7,443.4,254.4,440.6,254.4z M440.6,262.3c-1.6,0-2.8-1.3-2.8-2.8c0,0,0,0,0,0
	s0,0,0,0c0-1.6,1.3-2.8,2.8-2.8c1.6,0,2.8,1.3,2.8,2.8C443.5,261,442.2,262.3,440.6,262.3z M120.3,264.4c2.4,0,4.4-1.7,4.9-3.9h36.7
	c0.6,0,1.1-0.5,1.1-1.1c0-0.6-0.5-1.1-1.1-1.1h-36.7c-0.5-2.2-2.5-3.9-4.9-3.9c-2.8,0-5,2.2-5,5S117.6,264.4,120.3,264.4z
	 M120.3,256.6c1.6,0,2.8,1.3,2.8,2.8c0,0,0,0,0,0s0,0,0,0c0,1.6-1.3,2.8-2.8,2.8c-1.6,0-2.8-1.3-2.8-2.8
	C117.5,257.9,118.8,256.6,120.3,256.6z M221.7,361.4c-0.5-0.3-1.2-0.1-1.5,0.4l-18.3,31.8c-2.2-0.7-4.6,0.2-5.8,2.3
	c-1.4,2.4-0.6,5.5,1.8,6.8c2.4,1.4,5.5,0.6,6.8-1.8c1.2-2.1,0.7-4.6-1-6.2l18.3-31.8C222.4,362.3,222.2,361.7,221.7,361.4z
	 M202.8,399.7c-0.8,1.4-2.5,1.8-3.9,1c-1.4-0.8-1.8-2.5-1-3.9c0.8-1.4,2.5-1.8,3.9-1c0,0,0,0,0,0s0,0,0,0
	C203.1,396.6,203.6,398.4,202.8,399.7z M204.6,118.3c-1.4-2.4-4.4-3.2-6.8-1.8c-2.4,1.4-3.2,4.4-1.8,6.8c1.2,2.1,3.6,3,5.8,2.3
	l18.3,31.8c0.3,0.5,1,0.7,1.5,0.4c0.5-0.3,0.7-1,0.4-1.5l-18.3-31.8C205.3,123,205.8,120.4,204.6,118.3z M201.7,123.3
	C201.7,123.3,201.7,123.3,201.7,123.3C201.7,123.3,201.7,123.3,201.7,123.3c-1.4,0.8-3.1,0.3-3.9-1c-0.8-1.4-0.3-3.1,1-3.9
	c1.4-0.8,3.1-0.3,3.9,1C203.5,120.8,203,122.5,201.7,123.3z M356.1,400.7c1.4,2.4,4.4,3.2,6.8,1.8c2.4-1.4,3.2-4.4,1.8-6.8
	c-1.2-2.1-3.6-3-5.8-2.3l-18.3-31.8c-0.3-0.5-1-0.7-1.5-0.4c-0.5,0.3-0.7,1-0.4,1.5l18.3,31.8C355.4,396,354.9,398.6,356.1,400.7z
	 M359.1,395.7C359.1,395.7,359.1,395.7,359.1,395.7C359.1,395.7,359.1,395.7,359.1,395.7c1.4-0.8,3.1-0.3,3.9,1
	c0.8,1.4,0.3,3.1-1,3.9c-1.4,0.8-3.1,0.3-3.9-1C357.2,398.2,357.7,396.5,359.1,395.7z M339.3,157.8c0.5,0.3,1.2,0.1,1.5-0.4
	l18.3-31.8c2.2,0.7,4.6-0.2,5.8-2.3c1.4-2.4,0.6-5.5-1.8-6.8c-2.4-1.4-5.5-0.6-6.8,1.8c-1.2,2.1-0.7,4.6,1,6.2l-18.3,31.8
	C338.6,156.8,338.8,157.5,339.3,157.8z M358.2,119.4c0.8-1.4,2.5-1.8,3.9-1c1.4,0.8,1.8,2.5,1,3.9c-0.8,1.4-2.5,1.8-3.9,1
	c0,0,0,0,0,0c0,0,0,0,0,0C357.9,122.5,357.4,120.8,358.2,119.4z M273.3,281.8h2.8V278h2.9v3.8h2.8V278h2.4c2.4,0,4.7-0.9,6.4-2.6
	c1.7-1.7,2.7-4,2.7-6.4c0-2.9-1.4-5.6-3.7-7.3l-0.5-0.4l0.5-0.4c1.9-1.4,3.2-3.5,3.6-5.9s-0.2-4.8-1.7-6.7c-1.7-2.3-4.4-3.7-7.3-3.7
	h-2.4v-3.8H279v3.8h-2.9v-3.8h-2.8v3.8h-5.7v2.8h3.8v27.7h-3.8v2.8h5.7V281.8z M274.2,247.5h10c3.4,0,6.2,2.8,6.2,6.2
	c0,3.4-2.8,6.2-6.2,6.2h-10V247.5z M274.2,262.8h10c3.4,0,6.2,2.8,6.2,6.2c0,3.4-2.8,6.2-6.2,6.2h-10V262.8z M326.9,260.8l0.1,0.4
	c0.5,1.3,1.4,2.4,2.7,3c1.3,0.6,2.7,0.7,4,0.2c1.3-0.5,2.4-1.4,3-2.7c0.6-1.3,0.7-2.7,0.2-4c-0.5-1.3-1.4-2.4-2.7-3
	c-1.3-0.6-2.7-0.7-4-0.2c-1.5,0.5-2.6,1.7-3.2,3.2l-0.1,0.4h-18.4v-14.4H323l6.4-6.4l0.3,0.2c0.7,0.3,1.5,0.5,2.2,0.5
	c2.9,0,5.2-2.3,5.2-5.2c0-2.9-2.3-5.2-5.2-5.2c-2.9,0-5.2,2.3-5.2,5.2c0,0.8,0.2,1.5,0.5,2.2l0.2,0.3l-5.6,5.6h-13.3v-7.6H299v-13.3
	l5.6-5.6l0.3,0.2c0.7,0.3,1.5,0.5,2.2,0.5c2.9,0,5.2-2.3,5.2-5.2s-2.3-5.2-5.2-5.2s-5.2,2.3-5.2,5.2c0,0.8,0.2,1.5,0.5,2.2l0.2,0.3
	l-6.4,6.4v14.4h-14.4v-18.4l0.3-0.1c1.3-0.5,2.4-1.4,3-2.7c0.6-1.3,0.7-2.7,0.2-4c-1-2.7-3.9-4.1-6.6-3.2c-1.3,0.5-2.4,1.4-3,2.7
	c-0.6,1.3-0.7,2.7-0.2,4c0.5,1.5,1.7,2.6,3.2,3.2l0.4,0.1v18.4h-14.4v-14.4l-6.4-6.4l0.2-0.3c0.3-0.7,0.5-1.5,0.5-2.2
	c0-2.9-2.3-5.2-5.2-5.2c-2.9,0-5.2,2.3-5.2,5.2s2.3,5.2,5.2,5.2c0.8,0,1.5-0.2,2.2-0.5l0.3-0.2l5.6,5.6v13.3h-9.5v7.6H239l-5.6-5.6
	l0.2-0.3c0.3-0.7,0.5-1.5,0.5-2.2c0-2.9-2.3-5.2-5.2-5.2s-5.2,2.3-5.2,5.2c0,2.9,2.3,5.2,5.2,5.2c0.8,0,1.5-0.2,2.2-0.5l0.3-0.2
	l6.4,6.4h14.5V258h-18.4l-0.1-0.4c-0.5-1.3-1.4-2.4-2.7-3c-1.3-0.6-2.7-0.7-4-0.2c-1.3,0.5-2.4,1.4-3,2.7c-0.6,1.3-0.7,2.7-0.2,4
	c0.5,1.3,1.4,2.4,2.7,3c1.3,0.6,2.7,0.7,4,0.2c1.5-0.5,2.6-1.7,3.2-3.2l0.1-0.4h18.4v14.4h-14.4l-6.4,6.4l-0.3-0.2
	c-0.7-0.3-1.5-0.5-2.2-0.5c-2.9,0-5.2,2.3-5.2,5.2c0,2.9,2.3,5.2,5.2,5.2s5.2-2.3,5.2-5.2c0-0.8-0.2-1.5-0.5-2.2l-0.2-0.3l5.6-5.6
	h13.3v11.4h9.5v13.3l-5.6,5.6l-0.3-0.2c-0.7-0.3-1.5-0.5-2.2-0.5c-2.9,0-5.2,2.3-5.2,5.2c0,2.9,2.3,5.2,5.2,5.2
	c2.9,0,5.2-2.3,5.2-5.2c0-0.8-0.2-1.5-0.5-2.2l-0.2-0.3l6.4-6.4v-14.5H279v18.4l-0.4,0.1c-1.3,0.5-2.4,1.4-3,2.7
	c-0.6,1.3-0.7,2.7-0.2,4c0.5,1.3,1.4,2.4,2.7,3c1.3,0.6,2.7,0.7,4,0.2c1.3-0.5,2.4-1.4,3-2.7c0.6-1.3,0.7-2.7,0.2-4
	c-0.5-1.5-1.7-2.6-3.2-3.2l-0.3-0.1v-18.4h14.4v14.4l6.4,6.4l-0.2,0.3c-0.3,0.7-0.5,1.5-0.5,2.2c0,2.9,2.3,5.2,5.2,5.2
	s5.2-2.3,5.2-5.2c0-2.9-2.3-5.2-5.2-5.2c-0.8,0-1.5,0.2-2.2,0.5l-0.3,0.2l-5.6-5.6v-13.3h9.5V278h13.3l5.6,5.6l-0.2,0.3
	c-0.3,0.7-0.5,1.5-0.5,2.2c0,2.9,2.3,5.2,5.2,5.2c2.9,0,5.2-2.3,5.2-5.2c0-2.9-2.3-5.2-5.2-5.2c-0.8,0-1.5,0.2-2.2,0.5l-0.3,0.2
	l-6.4-6.4h-14.5v-14.4H326.9z M331.9,257c1.3,0,2.4,1.1,2.4,2.4s-1.1,2.4-2.4,2.4c-1.3,0-2.4-1.1-2.4-2.4S330.6,257,331.9,257z
	 M331.9,230.3c1.3,0,2.4,1.1,2.4,2.4c0,1.3-1.1,2.4-2.4,2.4c-1.3,0-2.4-1.1-2.4-2.4C329.5,231.4,330.6,230.3,331.9,230.3z
	 M307.1,207.4c1.3,0,2.4,1.1,2.4,2.4s-1.1,2.4-2.4,2.4c-1.3,0-2.4-1.1-2.4-2.4S305.8,207.4,307.1,207.4z M253.7,212.3
	c-1.3,0-2.4-1.1-2.4-2.4s1.1-2.4,2.4-2.4c1.3,0,2.4,1.1,2.4,2.4S255.1,212.3,253.7,212.3z M228.9,235.2c-1.3,0-2.4-1.1-2.4-2.4
	c0-1.3,1.1-2.4,2.4-2.4s2.4,1.1,2.4,2.4C231.4,234.1,230.3,235.2,228.9,235.2z M228.9,261.9c-1.3,0-2.4-1.1-2.4-2.4s1.1-2.4,2.4-2.4
	s2.4,1.1,2.4,2.4S230.3,261.9,228.9,261.9z M228.9,288.6c-1.3,0-2.4-1.1-2.4-2.4c0-1.3,1.1-2.4,2.4-2.4s2.4,1.1,2.4,2.4
	C231.4,287.5,230.3,288.6,228.9,288.6z M253.7,315.3c-1.3,0-2.4-1.1-2.4-2.4c0-1.3,1.1-2.4,2.4-2.4c1.3,0,2.4,1.1,2.4,2.4
	C256.2,314.2,255.1,315.3,253.7,315.3z M307.1,310.4c1.3,0,2.4,1.1,2.4,2.4c0,1.3-1.1,2.4-2.4,2.4c-1.3,0-2.4-1.1-2.4-2.4
	C304.7,311.5,305.8,310.4,307.1,310.4z M278,209.8c0-1.3,1.1-2.4,2.4-2.4s2.4,1.1,2.4,2.4s-1.1,2.4-2.4,2.4S278,211.2,278,209.8z
	 M282.9,312.8c0,1.3-1.1,2.4-2.4,2.4s-2.4-1.1-2.4-2.4c0-1.3,1.1-2.4,2.4-2.4S282.9,311.5,282.9,312.8z M305.7,286.7h-50.6V236h50.6
	V286.7z M331.9,283.7c1.3,0,2.4,1.1,2.4,2.4c0,1.3-1.1,2.4-2.4,2.4c-1.3,0-2.4-1.1-2.4-2.4C329.5,284.8,330.6,283.7,331.9,283.7z
	 M150.2,31.4h1.6c0-1.8,1.5-3.3,3.3-3.3v-1.6c-1.8,0-3.3-1.5-3.3-3.3h-1.6c0,1.8-1.5,3.3-3.3,3.3v1.6
	C148.7,28.1,150.2,29.6,150.2,31.4z M151,25.9c0.4,0.6,0.8,1,1.4,1.4c-0.6,0.4-1,0.8-1.4,1.4c-0.4-0.6-0.8-1-1.4-1.4
	C150.2,26.9,150.7,26.4,151,25.9z M162.6,35.5h1.6v0.8h1.6v-0.8c1.4,0,2.5-1.1,2.5-2.5c0-0.6-0.2-1.2-0.6-1.6c0.9-1,0.8-2.6-0.2-3.5
	c-0.5-0.4-1-0.6-1.6-0.6v-0.8h-1.6v0.8h-1.6c-0.5,0-0.8,0.4-0.8,0.8v6.6C161.7,35.1,162.1,35.5,162.6,35.5z M163.4,28.9h2.5
	c0.5,0,0.8,0.4,0.8,0.8s-0.4,0.8-0.8,0.8h-2.5V28.9z M163.4,32.2h2.5c0.5,0,0.8,0.4,0.8,0.8c0,0.5-0.4,0.8-0.8,0.8h-2.5V32.2z
	 M142.8,72.6h44.5c1.4,0,2.5-1.1,2.5-2.5v-2.5c0-0.5-0.4-0.8-0.8-0.8h-1.6V42.1c0-2.3-1.8-4.1-4.1-4.1h-13.2
	c3.6-2.7,4.4-7.9,1.7-11.5c-2.7-3.6-7.9-4.4-11.5-1.7c-3.6,2.7-4.4,7.9-1.7,11.5c0.5,0.6,1,1.2,1.7,1.7h-13.2
	c-2.3,0-4.1,1.8-4.1,4.1v24.7h-1.6c-0.5,0-0.8,0.4-0.8,0.8v2.5C140.3,71.4,141.4,72.6,142.8,72.6z M158.4,31.4
	c0-3.6,2.9-6.6,6.6-6.6s6.6,2.9,6.6,6.6c0,3.6-2.9,6.6-6.6,6.6C161.4,38,158.4,35,158.4,31.4z M144.4,42.1c0-1.4,1.1-2.5,2.5-2.5
	h36.2c1.4,0,2.5,1.1,2.5,2.5v24.7H184V42.1c0-0.5-0.4-0.8-0.8-0.8h-36.2c-0.5,0-0.8,0.4-0.8,0.8v24.7h-1.6V42.1z M154.6,44.7
	c-0.2,0.2-0.3,0.4-0.3,0.6v3.4c-1.3,0.5-2,1.9-1.5,3.2c0.5,1.3,1.9,2,3.2,1.5c1.3-0.5,2-1.9,1.5-3.2c-0.2-0.7-0.8-1.3-1.5-1.5v-3
	l3.6-2.9h2.2v6.2l-2.2,2.2c-0.2,0.2-0.2,0.4-0.2,0.6v3.4c-1.3,0.5-2,1.9-1.5,3.2c0.5,1.3,1.9,2,3.2,1.5c1.3-0.5,2-1.9,1.5-3.2
	c-0.2-0.7-0.8-1.3-1.5-1.5v-3.1l2.2-2.2c0.2-0.2,0.2-0.4,0.2-0.6v-6.6h1.6v7.6c-1.3,0.5-2,1.9-1.5,3.2c0.5,1.3,1.9,2,3.2,1.5
	c1.3-0.5,2-1.9,1.5-3.2c-0.2-0.7-0.8-1.3-1.5-1.5v-7.6h2.5v2.5c0,0.2,0.1,0.4,0.2,0.6l3.1,3.1v2.3c-1.3,0.5-2,1.9-1.5,3.2
	s1.9,2,3.2,1.5c1.3-0.5,2-1.9,1.5-3.2c-0.2-0.7-0.8-1.3-1.5-1.5v-2.6c0-0.2-0.1-0.4-0.2-0.6l-3.1-3.1v-2.1h3.3v2.5h1.6v-2.5h6.6
	v23.9h-14c-0.2,0-0.4,0.1-0.6,0.2l-0.3,0.3c-0.2,0.2-0.4,0.2-0.6,0.2h-3.6c-0.2,0-0.4-0.1-0.6-0.2l-0.3-0.3
	c-0.2-0.2-0.4-0.2-0.6-0.2h-14V42.9h9.2L154.6,44.7z M156,51.1c0,0.5-0.4,0.8-0.8,0.8c-0.5,0-0.8-0.4-0.8-0.8c0-0.5,0.4-0.8,0.8-0.8
	C155.6,50.3,156,50.7,156,51.1z M160.9,57.7c0,0.5-0.4,0.8-0.8,0.8c-0.5,0-0.8-0.4-0.8-0.8c0-0.5,0.4-0.8,0.8-0.8
	C160.5,56.9,160.9,57.3,160.9,57.7z M165.8,52c0.5,0,0.8,0.4,0.8,0.8c0,0.5-0.4,0.8-0.8,0.8c-0.5,0-0.8-0.4-0.8-0.8
	C165,52.3,165.4,52,165.8,52z M173.3,52.8c0.5,0,0.8,0.4,0.8,0.8c0,0.5-0.4,0.8-0.8,0.8c-0.5,0-0.8-0.4-0.8-0.8
	C172.4,53.2,172.8,52.8,173.3,52.8z M142,68.4h19.4l0.1,0.1c0.5,0.5,1.1,0.7,1.7,0.7h3.6c0.7,0,1.3-0.3,1.7-0.7l0.1-0.1h19.4v1.6
	c0,0.5-0.4,0.8-0.8,0.8h-44.5c-0.5,0-0.8-0.4-0.8-0.8V68.4z M412.8,58.5h-1.6v0.8h-0.8V61h0.8V66h-0.8v1.6h0.8v0.8h1.6v-0.8h1.6v0.8
	h1.6v-1c1.3-0.4,2-1.8,1.5-3.1c-0.1-0.3-0.3-0.6-0.5-0.9c0.9-1,0.8-2.5-0.2-3.5c-0.2-0.2-0.5-0.4-0.9-0.5v-1h-1.6v0.8h-1.6V58.5z
	 M415.3,66h-2.5v-1.6h2.5c0.5,0,0.8,0.4,0.8,0.8S415.7,66,415.3,66z M415.3,61c0.5,0,0.8,0.4,0.8,0.8c0,0.5-0.4,0.8-0.8,0.8h-2.5V61
	H415.3z M381.5,41.2v13.3c-4.7,0.4-8.2,4.3-8.2,9c0,5,4.1,9,9.1,9c4.6,0,8.5-3.6,9-8.2h13.3c0.5,5,4.9,8.7,9.8,8.2
	c5-0.5,8.7-4.9,8.2-9.8c-0.4-4.4-3.8-7.8-8.2-8.2V41.2c5-0.5,8.7-4.9,8.2-9.8c-0.5-5-4.9-8.7-9.8-8.2c-4,0.4-7.4,3.4-8.1,7.4h-13.5
	c-0.9-4.9-5.6-8.2-10.5-7.3c-4.9,0.9-8.2,5.6-7.3,10.5C374.2,37.8,377.5,40.9,381.5,41.2z M382.3,70.9c-4.1,0-7.4-3.3-7.4-7.4
	c0-4.1,3.3-7.4,7.4-7.4c4.1,0,7.4,3.3,7.4,7.4S386.4,70.9,382.3,70.9z M404.6,47.8c0,4.1-3.3,7.4-7.4,7.4c-4.1,0-7.4-3.3-7.4-7.4
	s3.3-7.4,7.4-7.4C401.2,40.4,404.6,43.8,404.6,47.8z M404.5,42.5l3.4-3.4c1.4,1.2,3.1,1.9,5,2.1v13.3c-1.8,0.2-3.6,0.9-5,2.1
	l-3.4-3.4C406.8,50,406.8,45.7,404.5,42.5z M388.1,47.8c0,2.3,0.9,4.5,2.5,6.2l-2.5,2.5c-1.4-1.2-3.1-1.9-5-2.1V41.2
	c1.8-0.2,3.6-0.9,5-2.1l2.5,2.5C389,43.3,388.1,45.5,388.1,47.8z M391.4,62.7c-0.2-1.8-0.9-3.6-2.1-5l2.5-2.5
	c3.5,2.6,8.4,2.3,11.5-0.7l3.3,3.3c-1.2,1.4-1.9,3.1-2.1,5H391.4z M421,63.5c0,4.1-3.3,7.4-7.4,7.4s-7.4-3.3-7.4-7.4
	c0-4.1,3.3-7.4,7.4-7.4C417.7,56.1,421,59.4,421,63.5z M413.6,24.8c4.1,0,7.4,3.3,7.4,7.4c0,4.1-3.3,7.4-7.4,7.4
	c-4.1,0-7.4-3.3-7.4-7.4C406.2,28.1,409.5,24.8,413.6,24.8z M391.4,32.2h13.2c0,2.1,0.7,4.2,2.1,5.8l-3.3,3.3c-3.2-3-8-3.3-11.5-0.7
	l-2.5-2.5C390.7,36.4,391.4,34.3,391.4,32.2z M382.3,24.8c4.1,0,7.4,3.3,7.4,7.4c0,4.1-3.3,7.4-7.4,7.4c-4.1,0-7.4-3.3-7.4-7.4
	C374.9,28.1,378.2,24.8,382.3,24.8z M385.7,60c-0.2-0.2-0.5-0.4-0.9-0.5v-1h-1.6v0.8h-1.6v-0.8h-1.6v0.8H379V61h0.8V66H379v1.6h0.8
	v0.8h1.6v-0.8h1.6v0.8h1.6v-1c1.3-0.4,2-1.8,1.5-3.1c-0.1-0.3-0.3-0.6-0.5-0.9C386.7,62.5,386.7,60.9,385.7,60z M384,66h-2.5v-1.6
	h2.5c0.5,0,0.8,0.4,0.8,0.8S384.4,66,384,66z M384,62.7h-2.5V61h2.5c0.5,0,0.8,0.4,0.8,0.8C384.8,62.3,384.4,62.7,384,62.7z
	 M400.5,44.4c-0.2-0.2-0.5-0.4-0.9-0.5v-1H398v0.8h-1.6v-0.8h-1.6v0.8h-0.8v1.6h0.8v4.9h-0.8V52h0.8v0.8h1.6V52h1.6v0.8h1.6v-1
	c1.3-0.4,2-1.8,1.5-3.1c-0.1-0.3-0.3-0.6-0.5-0.9C401.5,46.8,401.5,45.3,400.5,44.4z M398.8,50.3h-2.5v-1.6h2.5
	c0.5,0,0.8,0.4,0.8,0.8S399.3,50.3,398.8,50.3z M398.8,47h-2.5v-1.6h2.5c0.5,0,0.8,0.4,0.8,0.8S399.3,47,398.8,47z M411.1,37.1h1.6
	v-0.8h1.6v0.8h1.6v-1c1.3-0.4,2-1.8,1.5-3.1c-0.1-0.3-0.3-0.6-0.5-0.9c0.9-1,0.8-2.5-0.2-3.5c-0.2-0.2-0.5-0.4-0.9-0.5v-1h-1.6v0.8
	h-1.6v-0.8h-1.6v0.8h-0.8v1.6h0.8v4.9h-0.8v1.6h0.8V37.1z M412.8,29.7h2.5c0.5,0,0.8,0.4,0.8,0.8s-0.4,0.8-0.8,0.8h-2.5V29.7z
	 M412.8,33h2.5c0.5,0,0.8,0.4,0.8,0.8s-0.4,0.8-0.8,0.8h-2.5V33z M379.9,37.1h1.6v-0.8h1.6v0.8h1.6v-1c1.3-0.4,2-1.8,1.5-3.1
	c-0.1-0.3-0.3-0.6-0.5-0.9c0.9-1,0.8-2.5-0.2-3.5c-0.2-0.2-0.5-0.4-0.9-0.5v-1h-1.6v0.8h-1.6v-0.8h-1.6v0.8H379v1.6h0.8v4.9H379v1.6
	h0.8V37.1z M381.5,29.7h2.5c0.5,0,0.8,0.4,0.8,0.8s-0.4,0.8-0.8,0.8h-2.5V29.7z M381.5,33h2.5c0.5,0,0.8,0.4,0.8,0.8
	s-0.4,0.8-0.8,0.8h-2.5V33z M46.7,270.4c7.7,0,14-6.3,14-14c0-7.7-6.3-14-14-14c-7.7,0-14,6.3-14,14C32.7,264.1,39,270.4,46.7,270.4
	z M46.7,244.1c6.8,0,12.3,5.5,12.3,12.3c0,6.8-5.5,12.3-12.3,12.3c-6.8,0-12.3-5.5-12.3-12.3S39.9,244.1,46.7,244.1z M41,271.2
	c-0.5,0-0.8,0.4-0.8,0.8v3l-3.9,3.9l0,0c-0.3-0.2-0.7-0.2-1.1-0.2c-1.4,0-2.5,1.1-2.5,2.5c0,1.4,1.1,2.5,2.5,2.5
	c1.4,0,2.5-1.1,2.5-2.5c0-0.4-0.1-0.7-0.2-1.1l0,0l4.1-4.1c0.2-0.2,0.2-0.4,0.2-0.6V272C41.8,271.6,41.4,271.2,41,271.2z
	 M35.2,281.9c-0.5,0-0.8-0.4-0.8-0.8c0-0.5,0.4-0.8,0.8-0.8c0.5,0,0.8,0.4,0.8,0.8C36,281.5,35.7,281.9,35.2,281.9z M46.7,267.1
	c5.9,0,10.7-4.8,10.7-10.7c0-5.9-4.8-10.7-10.7-10.7c-5.9,0-10.7,4.8-10.7,10.7S40.8,267.1,46.7,267.1z M46.7,247.3
	c5,0,9.1,4.1,9.1,9.1c0,5-4.1,9-9.1,9.1c-5,0-9.1-4.1-9.1-9.1S41.7,247.3,46.7,247.3z M26.7,280l8.2-8.2c0.2-0.2,0.2-0.4,0.2-0.6
	v-4.1c0-0.5-0.4-0.8-0.8-0.8c-0.5,0-0.8,0.4-0.8,0.8v3.8l-8,8l0,0c-0.3-0.2-0.7-0.2-1.1-0.2c-1.4,0-2.5,1.1-2.5,2.5
	c0,1.4,1.1,2.5,2.5,2.5c1.4,0,2.5-1.1,2.5-2.5C27,280.7,26.9,280.4,26.7,280L26.7,280z M24.5,281.9c-0.5,0-0.8-0.4-0.8-0.8
	c0-0.5,0.4-0.8,0.8-0.8c0.5,0,0.8,0.4,0.8,0.8C25.3,281.5,25,281.9,24.5,281.9z M44.3,263.8l1.6,0l0-1.6h0.8v1.6h1.6v-1.6h0.8
	c1.4,0,2.5-1.1,2.5-2.5V258c0-0.6-0.2-1.2-0.6-1.6c0.4-0.4,0.6-1,0.6-1.6v-1.6c0-1.4-1.1-2.5-2.5-2.5h-0.8V249h-1.6v1.6h-0.8l0-1.6
	l-1.6,0l0,1.7h-2.5v1.6h1.6v8.2h-1.6v1.6h2.5L44.3,263.8z M45.1,252.3h4.1c0.5,0,0.8,0.4,0.8,0.8v1.6c0,0.5-0.4,0.8-0.8,0.8h-4.1
	V252.3z M45.1,257.2h4.1c0.5,0,0.8,0.4,0.8,0.8v1.6c0,0.5-0.4,0.8-0.8,0.8h-4.1V257.2z M66.2,251.8c1.1-3.9-1.2-8-5.2-9.1
	c-1.3-0.4-2.6-0.4-3.9,0c-1.2-5.8-6.9-9.5-12.7-8.2c-4.1,0.9-7.4,4.1-8.3,8.2c-4-1-8,1.3-9,5.3c-0.3,1.3-0.3,2.6,0,3.8
	c-3.9,1.2-6.1,5.4-4.9,9.3c1,3.1,3.8,5.2,7.1,5.2h2.5c0.5,0,0.8-0.4,0.8-0.8s-0.4-0.8-0.8-0.8h-2.5c-3.2,0-5.8-2.6-5.8-5.8
	c0-2.8,2-5.2,4.8-5.7c0.4-0.1,0.7-0.5,0.7-1c0-0.1,0-0.1-0.1-0.2c-0.3-0.7-0.5-1.5-0.5-2.2c0-3.2,2.6-5.8,5.8-5.8
	c0.8,0,1.5,0.1,2.2,0.4c0.4,0.2,0.9,0,1.1-0.4c0-0.1,0.1-0.1,0.1-0.2c0.6-5,5.1-8.5,10-8c4.2,0.5,7.5,3.8,8,8
	c0.1,0.5,0.5,0.8,0.9,0.7c0.1,0,0.2,0,0.2-0.1c0.7-0.3,1.5-0.4,2.2-0.4c3.2,0,5.8,2.6,5.8,5.8c0,0.8-0.2,1.5-0.5,2.2
	c-0.2,0.4,0,0.9,0.4,1.1c0.1,0,0.1,0,0.2,0.1c3.1,0.5,5.2,3.5,4.7,6.7c-0.5,2.8-2.9,4.8-5.7,4.8h-2.5c-0.5,0-0.8,0.4-0.8,0.8
	s0.4,0.8,0.8,0.8H64c4.1,0,7.4-3.3,7.4-7.4C71.4,255.6,69.3,252.8,66.2,251.8z M69,278.6c-0.4,0-0.7,0.1-1.1,0.2l0,0l-8-8v-3.8
	c0-0.5-0.4-0.8-0.8-0.8c-0.5,0-0.8,0.4-0.8,0.8v4.1c0,0.2,0.1,0.4,0.2,0.6l8.2,8.2l0,0c-0.2,0.3-0.2,0.7-0.2,1.1
	c0,1.4,1.1,2.5,2.5,2.5c1.4,0,2.5-1.1,2.5-2.5C71.4,279.7,70.3,278.6,69,278.6z M69,281.9c-0.5,0-0.8-0.4-0.8-0.8
	c0-0.5,0.4-0.8,0.8-0.8c0.5,0,0.8,0.4,0.8,0.8C69.8,281.5,69.4,281.9,69,281.9z M58.3,278.6c-0.4,0-0.7,0.1-1.1,0.2l0,0l-3.9-3.9v-3
	c0-0.5-0.4-0.8-0.8-0.8c-0.5,0-0.8,0.4-0.8,0.8v3.3c0,0.2,0.1,0.4,0.2,0.6L56,280l0,0c-0.2,0.3-0.2,0.7-0.2,1.1
	c0,1.4,1.1,2.5,2.5,2.5c1.4,0,2.5-1.1,2.5-2.5C60.7,279.7,59.6,278.6,58.3,278.6z M58.3,281.9c-0.5,0-0.8-0.4-0.8-0.8
	c0-0.5,0.4-0.8,0.8-0.8c0.5,0,0.8,0.4,0.8,0.8C59.1,281.5,58.7,281.9,58.3,281.9z M47.6,278.8v-5.9c0-0.5-0.4-0.8-0.8-0.8
	c-0.5,0-0.8,0.4-0.8,0.8v5.9c-1.3,0.5-2,1.9-1.5,3.2c0.5,1.3,1.9,2,3.2,1.5c1.3-0.5,2-1.9,1.5-3.2C48.8,279.6,48.3,279,47.6,278.8z
	 M46.7,281.9c-0.5,0-0.8-0.4-0.8-0.8c0-0.5,0.4-0.8,0.8-0.8c0.5,0,0.8,0.4,0.8,0.8C47.6,281.5,47.2,281.9,46.7,281.9z M526.4,239.1
	h1.6v-1.6h-1.6V239.1z M524.8,253.1h-1.6v1.6h1.6V253.1z M528.1,253.1h-1.6v1.6h1.6V253.1z M531.4,256.4h-1.6v1.6h1.6V256.4z
	 M529.7,242.4h1.6v-1.6h-1.6V242.4z M529.7,239.1h1.6v-1.6h-1.6V239.1z M531.4,253.1h-1.6v1.6h1.6V253.1z M529.7,245.7h1.6V244h-1.6
	V245.7z M513.3,240.8h-16.6c-0.5-1.3-1.9-2-3.2-1.5s-2,1.9-1.5,3.2c0.5,1.3,1.9,2,3.2,1.5c0.7-0.2,1.3-0.8,1.5-1.5h16.6
	c0.5,0,0.8-0.4,0.8-0.8C514.1,241.1,513.7,240.8,513.3,240.8z M494.3,242.4c-0.5,0-0.8-0.4-0.8-0.8c0-0.5,0.4-0.8,0.8-0.8
	c0.5,0,0.8,0.4,0.8,0.8C495.1,242,494.8,242.4,494.3,242.4z M527.3,264.6h-0.8V263h-1.6v1.6H524V263h-1.6v1.6h-2.5v1.6h1.6v8.2h-1.6
	v1.6h2.5v1.6h1.6v-1.6h0.8v1.6h1.6v-1.6h0.8c1.4,0,2.5-1.1,2.5-2.5V272c0-0.6-0.2-1.2-0.6-1.6c0.4-0.5,0.6-1,0.6-1.6v-1.6
	C529.7,265.7,528.6,264.6,527.3,264.6z M528.1,273.7c0,0.5-0.4,0.8-0.8,0.8h-4.1v-3.3h4.1c0.5,0,0.8,0.4,0.8,0.8V273.7z
	 M528.1,268.7c0,0.5-0.4,0.8-0.8,0.8h-4.1v-3.3h4.1c0.5,0,0.8,0.4,0.8,0.8V268.7z M534.7,253.1c0-1.4-1.1-2.5-2.5-2.5h-2.5V249h2.5
	c1.4,0,2.5-1.1,2.5-2.5v-9.9c0-1.4-1.1-2.5-2.5-2.5H491c-1.4,0-2.5,1.1-2.5,2.5v9.9c0,1.4,1.1,2.5,2.5,2.5h2.5v1.6H491
	c-1.4,0-2.5,1.1-2.5,2.5v9.9c0,1.4,1.1,2.5,2.5,2.5h2.5v1.6H491c-1.4,0-2.5,1.1-2.5,2.5v9.9c0,1.4,1.1,2.5,2.5,2.5h27.4
	c4,2.2,8.9,2.2,12.9-0.1c1.2-0.7,2.2-1.5,3.1-2.5c4.6-4.9,4.7-12.6,0.2-17.6V253.1z M491,247.3c-0.5,0-0.8-0.4-0.8-0.8v-9.9
	c0-0.5,0.4-0.8,0.8-0.8h41.2c0.5,0,0.8,0.4,0.8,0.8v9.9c0,0.5-0.4,0.8-0.8,0.8H491z M528.1,249v1.6h-32.9V249H528.1z M491,263.8
	c-0.5,0-0.8-0.4-0.8-0.8v-9.9c0-0.5,0.4-0.8,0.8-0.8h41.2c0.5,0,0.8,0.4,0.8,0.8v7c-0.1-0.1-0.3-0.2-0.4-0.3
	c-0.1-0.1-0.2-0.2-0.3-0.3c-0.3-0.2-0.5-0.4-0.8-0.5c-0.1,0-0.1-0.1-0.2-0.1c-0.4-0.2-0.7-0.4-1.1-0.6c-0.1,0-0.2-0.1-0.3-0.1
	c-0.3-0.1-0.6-0.2-0.9-0.3c-0.1,0-0.3-0.1-0.4-0.1c-0.2,0-0.3-0.1-0.5-0.1v-1.2h-1.6v0.9c-0.1,0-0.3,0-0.4-0.1
	c-0.4,0-0.8-0.1-1.3-0.1v-0.8h-1.6v0.9l-0.1,0c-0.1,0-0.2,0-0.3,0.1c-0.2,0-0.3,0.1-0.5,0.1c-0.1,0-0.2,0.1-0.4,0.1
	c-0.1,0-0.2,0-0.3,0.1v-1.2h-1.6v1.6h0.4c0,0-0.1,0-0.1,0c-0.2,0.1-0.3,0.1-0.5,0.2c-0.1,0.1-0.2,0.1-0.4,0.2
	c-0.1,0.1-0.3,0.1-0.4,0.2c-0.1,0.1-0.2,0.1-0.3,0.2c-0.1,0.1-0.3,0.2-0.4,0.2c-0.1,0.1-0.2,0.1-0.3,0.2c-0.1,0.1-0.3,0.2-0.4,0.3
	c-0.1,0.1-0.2,0.2-0.3,0.2c-0.1,0.1-0.3,0.2-0.4,0.3c-0.1,0.1-0.2,0.2-0.3,0.3c-0.1,0.1-0.2,0.2-0.4,0.3c-0.1,0.1-0.2,0.2-0.3,0.3
	c-0.1,0.1-0.2,0.2-0.3,0.3c-0.1,0.1-0.2,0.2-0.3,0.3c-0.1,0.1-0.2,0.2-0.3,0.4c-0.1,0.1-0.2,0.2-0.3,0.3c-0.1,0.1-0.2,0.2-0.3,0.4
	c-0.1,0.1-0.2,0.2-0.2,0.3s-0.2,0.3-0.3,0.4c-0.1,0.1-0.2,0.2-0.2,0.4c0,0.1-0.1,0.1-0.1,0.2H491z M512.6,265.5
	c-0.2,0.5-0.4,1.1-0.5,1.6h-16.9v-1.6H512.6z M491,280.3c-0.5,0-0.8-0.4-0.8-0.8v-9.9c0-0.5,0.4-0.8,0.8-0.8h20.7c0,0.1,0,0.1,0,0.2
	c0,0.1,0,0.2,0,0.2c0,0.4-0.1,0.8-0.1,1.2c0,0.4,0,0.8,0.1,1.3c0,0.1,0,0.2,0,0.3c0,0.4,0.1,0.8,0.2,1.2c0,0.1,0,0.1,0.1,0.2
	c0,0.1,0.1,0.2,0.1,0.4h-15.4c-0.5-1.3-1.9-2-3.2-1.5c-1.3,0.5-2,1.9-1.5,3.2s1.9,2,3.2,1.5c0.7-0.2,1.3-0.8,1.5-1.5h15.8
	c0,0,0.1,0,0.1,0c0.1,0.1,0.1,0.3,0.2,0.4c0,0.1,0.1,0.2,0.1,0.2c0.2,0.4,0.4,0.7,0.6,1.1c0,0,0,0.1,0.1,0.1c0.2,0.3,0.4,0.6,0.6,1
	c0,0.1,0.1,0.1,0.1,0.2c0.2,0.3,0.5,0.6,0.8,0.9c0.1,0.1,0.1,0.1,0.2,0.2c0.3,0.3,0.6,0.6,0.9,0.9c0,0,0,0,0,0L491,280.3z
	 M495.1,274.5c0,0.5-0.4,0.8-0.8,0.8c-0.5,0-0.8-0.4-0.8-0.8c0-0.5,0.4-0.8,0.8-0.8C494.8,273.7,495.1,274.1,495.1,274.5z
	 M533.2,278.2c-0.8,0.9-1.7,1.6-2.7,2.2c-3.6,2-7.9,2-11.5,0c-3.6-2.1-5.8-5.9-5.8-10c0-0.8,0.1-1.5,0.2-2.3v0
	c0.2-1.1,0.6-2.1,1.1-3.1c3-5.6,9.9-7.8,15.6-4.8c1.2,0.6,2.2,1.4,3.1,2.4l0,0C537.3,267,537.3,273.8,533.2,278.2z M514.1,258
	c0-0.5-0.4-0.8-0.8-0.8h-16.6c-0.5-1.3-1.9-2-3.2-1.5c-1.3,0.5-2,1.9-1.5,3.2c0.5,1.3,1.9,2,3.2,1.5c0.7-0.2,1.3-0.8,1.5-1.5h16.6
	C513.7,258.9,514.1,258.5,514.1,258z M494.3,258.9c-0.5,0-0.8-0.4-0.8-0.8c0-0.5,0.4-0.8,0.8-0.8c0.5,0,0.8,0.4,0.8,0.8
	C495.1,258.5,494.8,258.9,494.3,258.9z M518.2,253.1h-1.6v1.6h1.6V253.1z M518.2,256.4h-1.6v1.6h1.6V256.4z M521.5,253.1h-1.6v1.6
	h1.6V253.1z M524.8,259.7c-5.9,0-10.7,4.8-10.7,10.7c0,5.9,4.8,10.7,10.7,10.7c5.9,0,10.7-4.8,10.7-10.7
	C535.5,264.5,530.7,259.7,524.8,259.7z M524.8,279.4c-5,0-9.1-4.1-9.1-9.1s4.1-9.1,9.1-9.1s9.1,4.1,9.1,9.1
	C533.8,275.4,529.8,279.4,524.8,279.4z M516.6,239.1h1.6v-1.6h-1.6V239.1z M516.6,242.4h1.6v-1.6h-1.6V242.4z M519.8,239.1h1.6v-1.6
	h-1.6V239.1z M519.8,245.7h1.6V244h-1.6V245.7z M526.4,242.4h1.6v-1.6h-1.6V242.4z M519.8,242.4h1.6v-1.6h-1.6V242.4z M523.1,245.7
	h1.6V244h-1.6V245.7z M523.1,239.1h1.6v-1.6h-1.6V239.1z M526.4,245.7h1.6V244h-1.6V245.7z M523.1,242.4h1.6v-1.6h-1.6V242.4z
	 M516.6,245.7h1.6V244h-1.6V245.7z M184,478.2h-36.2c-1.4,0-2.5,1.1-2.5,2.5v14.8c0,1.4,1.1,2.5,2.5,2.5h27.7l4.7,4.7
	c0.3,0.3,0.8,0.3,1.2,0c0.2-0.2,0.2-0.4,0.2-0.6v-4.1h2.5c1.4,0,2.5-1.1,2.5-2.5v-14.8C186.4,479.3,185.3,478.2,184,478.2z
	 M184.8,495.4c0,0.5-0.4,0.8-0.8,0.8h-3.3c-0.5,0-0.8,0.4-0.8,0.8v3l-3.5-3.5c-0.2-0.2-0.4-0.2-0.6-0.2h-28c-0.5,0-0.8-0.4-0.8-0.8
	v-14.8c0-0.5,0.4-0.8,0.8-0.8H184c0.5,0,0.8,0.4,0.8,0.8V495.4z M172.4,460.9h-19.8c-0.5,0-0.8,0.4-0.8,0.8c0,0.5,0.4,0.8,0.8,0.8
	h19.8c0.5,0,0.8-0.4,0.8-0.8C173.3,461.2,172.9,460.9,172.4,460.9z M149.4,483.9h1.6c0.5,0,0.8-0.4,0.8-0.8c0-0.5-0.4-0.8-0.8-0.8
	h-1.6c-0.5,0-0.8,0.4-0.8,0.8C148.6,483.6,148.9,483.9,149.4,483.9z M152.7,459.2h1.6c0.5,0,0.8-0.4,0.8-0.8c0-0.5-0.4-0.8-0.8-0.8
	h-1.6c-0.5,0-0.8,0.4-0.8,0.8C151.8,458.9,152.2,459.2,152.7,459.2z M157.6,459.2h1.6c0.5,0,0.8-0.4,0.8-0.8c0-0.5-0.4-0.8-0.8-0.8
	h-1.6c-0.5,0-0.8,0.4-0.8,0.8C156.8,458.9,157.2,459.2,157.6,459.2z M148.6,459.9c-0.5-0.4-1.1-0.6-1.7-0.6h-0.8v-0.8h-1.6v0.8H142
	v1.6h0.8v4.9H142v1.6h2.5v0.8h1.6v-0.8h0.8c1.4,0,2.5-1.1,2.5-2.4c0-0.6-0.2-1.2-0.6-1.7C149.7,462.3,149.6,460.8,148.6,459.9z
	 M146.9,465.8h-2.5v-1.6h2.5c0.5,0,0.8,0.4,0.8,0.8C147.7,465.4,147.4,465.8,146.9,465.8z M146.9,462.5h-2.5v-1.6h2.5
	c0.5,0,0.8,0.4,0.8,0.8C147.7,462.1,147.4,462.5,146.9,462.5z M169.1,492.2h-19.8c-0.5,0-0.8,0.4-0.8,0.8c0,0.5,0.4,0.8,0.8,0.8
	h19.8c0.5,0,0.8-0.4,0.8-0.8C170,492.5,169.6,492.2,169.1,492.2z M179.9,484.6c-0.5-0.4-1.1-0.6-1.7-0.6h-0.8v-0.8h-1.6v0.8h-2.5
	v1.6h0.8v4.9h-0.8v1.6h2.5v0.8h1.6v-0.8h0.8c1.4,0,2.5-1.1,2.5-2.4c0-0.6-0.2-1.2-0.6-1.7C180.9,487,180.9,485.5,179.9,484.6z
	 M178.2,490.5h-2.5v-1.6h2.5c0.5,0,0.8,0.4,0.8,0.8C179,490.1,178.7,490.5,178.2,490.5z M178.2,487.2h-2.5v-1.6h2.5
	c0.5,0,0.8,0.4,0.8,0.8C179,486.8,178.7,487.2,178.2,487.2z M154.3,483.9h1.6c0.5,0,0.8-0.4,0.8-0.8c0-0.5-0.4-0.8-0.8-0.8h-1.6
	c-0.5,0-0.8,0.4-0.8,0.8C153.5,483.6,153.9,483.9,154.3,483.9z M169.1,488.9h-19.8c-0.5,0-0.8,0.4-0.8,0.8c0,0.5,0.4,0.8,0.8,0.8
	h19.8c0.5,0,0.8-0.4,0.8-0.8C170,489.2,169.6,488.9,169.1,488.9z M172.4,464.2h-19.8c-0.5,0-0.8,0.4-0.8,0.8c0,0.5,0.4,0.8,0.8,0.8
	h19.8c0.5,0,0.8-0.4,0.8-0.8C173.3,464.5,172.9,464.2,172.4,464.2z M169.1,485.6h-19.8c-0.5,0-0.8,0.4-0.8,0.8
	c0,0.5,0.4,0.8,0.8,0.8h19.8c0.5,0,0.8-0.4,0.8-0.8C170,485.9,169.6,485.6,169.1,485.6z M175.7,473.2c1.4,0,2.5-1.1,2.5-2.5v-14.8
	c0-1.4-1.1-2.5-2.5-2.5h-36.2c-1.4,0-2.5,1.1-2.5,2.5v14.8c0,1.4,1.1,2.5,2.5,2.5h2.5v4.1c0,0.5,0.4,0.8,0.8,0.8
	c0.2,0,0.4-0.1,0.6-0.2l4.7-4.7H175.7z M147.2,471.8l-3.5,3.5v-3c0-0.5-0.4-0.8-0.8-0.8h-3.3c-0.5,0-0.8-0.4-0.8-0.8v-14.8
	c0-0.5,0.4-0.8,0.8-0.8h36.2c0.5,0,0.8,0.4,0.8,0.8v14.8c0,0.5-0.4,0.8-0.8,0.8h-28C147.5,471.6,147.3,471.7,147.2,471.8z
	 M172.4,467.5h-19.8c-0.5,0-0.8,0.4-0.8,0.8c0,0.5,0.4,0.8,0.8,0.8h19.8c0.5,0,0.8-0.4,0.8-0.8C173.3,467.8,172.9,467.5,172.4,467.5
	z M377.4,463.3h-1.6v13.2h1.6V463.3z M376.6,489.7h19.8V488h-19.8V489.7z M413.2,491c0-0.1,0.1-0.2,0.1-0.2c0-0.1,0.1-0.1,0.1-0.2
	c0-0.1,0.1-0.2,0.1-0.3c0-0.1,0-0.1,0-0.2c0-0.2,0-0.3,0-0.5c0-1.4-1.1-2.5-2.5-2.5h-0.8v-0.8h-1.6v0.8h-2.5v1.6h0.8v4.9h-0.8v1.6
	h2.5v0.8h1.6v-0.8h0.8c1.4,0,2.5-1.1,2.5-2.5c0-0.2,0-0.3,0-0.5c0-0.1,0-0.1,0-0.2c0-0.1-0.1-0.2-0.1-0.3c0-0.1-0.1-0.1-0.1-0.2
	c0-0.1-0.1-0.2-0.1-0.2c0-0.1-0.1-0.1-0.1-0.2s-0.1-0.1-0.1-0.2c0,0,0.1-0.1,0.1-0.2C413.1,491.1,413.2,491.1,413.2,491z
	 M411.7,493.6c-0.2,0.2-0.4,0.2-0.6,0.2h-2.5v-1.6h2.5c0.5,0,0.8,0.4,0.8,0.8C412,493.2,411.9,493.4,411.7,493.6z M411.7,490.3
	c-0.2,0.2-0.4,0.2-0.6,0.2h-2.5v-1.6h2.5c0.5,0,0.8,0.4,0.8,0.8C412,489.9,411.9,490.1,411.7,490.3z M409.5,479.8
	c-3.1,0-6.1,1.2-8.2,3.5v-25.7c0-2.3-1.8-4.1-4.1-4.1h-21.4c-2.3,0-4.1,1.8-4.1,4.1v41.2c0,2.3,1.8,4.1,4.1,4.1h21.4
	c2,0,3.8-1.5,4.1-3.5c4.4,4.6,11.7,4.7,16.3,0.3c4.6-4.4,4.7-11.7,0.3-16.3C415.6,481.1,412.6,479.8,409.5,479.8z M373.3,457.6
	c0-1.4,1.1-2.5,2.5-2.5h21.4c1.4,0,2.5,1.1,2.5,2.5v0.8h-26.3V457.6z M373.3,460h26.3v25.4c-0.1,0.1-0.1,0.2-0.1,0.3
	c-0.1,0.1-0.1,0.2-0.2,0.3c-0.1,0.1-0.1,0.2-0.2,0.4c-0.1,0.1-0.1,0.2-0.2,0.3c-0.1,0.1-0.1,0.3-0.2,0.4c0,0.1-0.1,0.2-0.1,0.3
	c0,0.1-0.1,0.3-0.1,0.4c0,0.1-0.1,0.2-0.1,0.3c0,0.1-0.1,0.3-0.1,0.4c0,0.1-0.1,0.2-0.1,0.3c0,0.2-0.1,0.3-0.1,0.5
	c0,0.1,0,0.2-0.1,0.3c0,0.2,0,0.4-0.1,0.5c0,0.1,0,0.2,0,0.3c0,0.3,0,0.5,0,0.8c0,0.4,0,0.8,0.1,1.2c0,0.1,0,0.2,0,0.2
	c0,0.1,0,0.1,0,0.2h-24.8V460z M399.6,498.7c0,1.4-1.1,2.5-2.5,2.5h-21.4c-1.4,0-2.5-1.1-2.5-2.5v-4.1h25.2c0.3,0.9,0.7,1.8,1.2,2.6
	V498.7z M417.9,496.6c-1.8,2.9-5,4.6-8.4,4.6c-5.5,0-9.9-4.4-9.9-9.9c0-1.2,0.2-2.3,0.6-3.4c0.2-0.6,0.5-1.3,0.9-1.9l0,0
	c2.9-4.6,9-6,13.6-3.1C419.4,485.9,420.8,492,417.9,496.6z M384.8,457.6h3.3v-1.6h-3.3V457.6z M409.5,483.1c-4.5,0-8.2,3.7-8.2,8.2
	s3.7,8.2,8.2,8.2s8.2-3.7,8.2-8.2C417.7,486.8,414,483.1,409.5,483.1z M409.5,497.9c-3.6,0-6.6-2.9-6.6-6.6c0-3.6,2.9-6.6,6.6-6.6
	c3.6,0,6.6,2.9,6.6,6.6C416.1,495,413.1,497.9,409.5,497.9z M396.2,461.8c-0.2-0.1-0.4-0.1-0.7-0.1c-1.4,0-2.5,1.1-2.5,2.5
	c0,0.5,0.2,1,0.4,1.4l-1.8,4.4c-0.1,0-0.2,0-0.3,0c-1.4,0-2.5,1.1-2.5,2.5c0,0,0,0.1,0,0.1l-3.2,1.4c-1-1-2.5-1-3.5,0
	c-0.7,0.7-0.9,1.7-0.5,2.7l-3.4,3.4c-1.3-0.5-2.8,0.1-3.3,1.4c-0.5,1.3,0.1,2.8,1.4,3.3c1.3,0.5,2.8-0.1,3.3-1.4
	c0.3-0.7,0.2-1.5-0.1-2.2l3.2-3.2c0.4,0.2,0.8,0.3,1.2,0.3c1.4,0,2.5-1.1,2.5-2.5c0-0.1,0-0.2,0-0.3l3.2-1.4c0.9,1,2.5,1.1,3.5,0.1
	c1-0.9,1.1-2.5,0.1-3.5c0,0,0,0-0.1-0.1l1.7-4.1c1.3,0.4,2.7-0.4,3-1.7C398.2,463.5,397.5,462.1,396.2,461.8z M377.4,483.1
	c-0.5,0-0.8-0.4-0.8-0.8c0-0.5,0.4-0.8,0.8-0.8c0.5,0,0.8,0.4,0.8,0.8C378.2,482.7,377.8,483.1,377.4,483.1z M384,476.5
	c-0.5,0-0.8-0.4-0.8-0.8c0-0.5,0.4-0.8,0.8-0.8c0.5,0,0.8,0.4,0.8,0.8C384.8,476.1,384.4,476.5,384,476.5z M391.4,473.2
	c-0.5,0-0.8-0.4-0.8-0.8c0-0.5,0.4-0.8,0.8-0.8c0.5,0,0.8,0.4,0.8,0.8C392.2,472.8,391.8,473.2,391.4,473.2z M395.5,465
	c-0.5,0-0.8-0.4-0.8-0.8c0-0.5,0.4-0.8,0.8-0.8c0.5,0,0.8,0.4,0.8,0.8C396.3,464.6,396,465,395.5,465z M388.1,495.4h-3.3
	c-0.5,0-0.8,0.4-0.8,0.8v3.3c0,0.5,0.4,0.8,0.8,0.8h3.3c0.5,0,0.8-0.4,0.8-0.8v-3.3C388.9,495.8,388.6,495.4,388.1,495.4z
	 M387.3,498.7h-1.6v-1.6h1.6V498.7z M369.5,261.3c0-49.1-40-89.1-89.1-89.1c-49.1,0-89.1,40-89.1,89.1s40,89.1,89.1,89.1
	C329.6,350.4,369.5,310.5,369.5,261.3z M280.4,347.8c-47.7,0-86.5-38.8-86.5-86.5c0-47.7,38.8-86.5,86.5-86.5
	c47.7,0,86.5,38.8,86.5,86.5C366.9,309,328.1,347.8,280.4,347.8z M165,94c25.4,0,46.1-20.7,46.1-46.1S190.5,1.7,165,1.7
	s-46.1,20.7-46.1,46.1S139.6,94,165,94z M165,3.7c24.3,0,44.1,19.8,44.1,44.1S189.3,91.9,165,91.9s-44.1-19.8-44.1-44.1
	S140.7,3.7,165,3.7z M46.7,212.7c-25.4,0-46.1,20.7-46.1,46.1c0,25.4,20.7,46.1,46.1,46.1s46.1-20.7,46.1-46.1
	C92.9,233.4,72.2,212.7,46.7,212.7z M46.7,303c-24.3,0-44.1-19.8-44.1-44.1s19.8-44.1,44.1-44.1s44.1,19.8,44.1,44.1
	S71.1,303,46.7,303z M163.4,432.1c-25.4-0.9-46.9,19-47.8,44.4c-0.5,12.3,3.9,24.1,12.3,33.1s19.8,14.3,32.1,14.7c0.6,0,1.2,0,1.7,0
	c11.7,0,22.7-4.3,31.3-12.3c9-8.4,14.3-19.8,14.7-32.1s-3.9-24.1-12.3-33.1S175.7,432.5,163.4,432.1z M205.8,479.8
	c-0.4,11.8-5.4,22.7-14.1,30.7c-8.6,8-19.9,12.2-31.6,11.8c-11.8-0.4-22.7-5.4-30.7-14.1c-8-8.6-12.2-19.9-11.8-31.6
	s5.4-22.7,14.1-30.7c8.2-7.6,18.8-11.8,30-11.8c0.6,0,1.1,0,1.7,0c11.8,0.4,22.7,5.4,30.7,14.1C202.1,456.8,206.2,468,205.8,479.8z
	 M398,432.1c-12.3-0.5-24.1,3.9-33.1,12.3c-9,8.4-14.3,19.8-14.7,32.1c-0.5,12.3,3.9,24.1,12.3,33.1s19.8,14.3,32.1,14.7
	c0.6,0,1.2,0,1.7,0c11.7,0,22.7-4.3,31.3-12.3c9-8.4,14.3-19.8,14.7-32.1c0.5-12.3-3.9-24.1-12.3-33.1
	C421.8,437.7,410.4,432.5,398,432.1z M440.4,479.8c-0.4,11.8-5.4,22.7-14.1,30.7c-8.6,8-19.9,12.2-31.6,11.8
	c-11.8-0.4-22.7-5.4-30.7-14.1c-8-8.6-12.2-19.9-11.8-31.6c0.4-11.8,5.4-22.7,14.1-30.7c8.2-7.6,18.8-11.8,30-11.8
	c0.6,0,1.1,0,1.7,0c11.8,0.4,22.7,5.4,30.7,14.1C436.7,456.8,440.8,468,440.4,479.8z M513.3,212.7c-25.4,0-46.1,20.7-46.1,46.1
	c0,25.4,20.7,46.1,46.1,46.1s46.1-20.7,46.1-46.1C559.4,233.4,538.7,212.7,513.3,212.7z M513.3,303c-24.3,0-44.1-19.8-44.1-44.1
	s19.8-44.1,44.1-44.1s44.1,19.8,44.1,44.1S537.6,303,513.3,303z M398,94c25.4,0,46.1-20.7,46.1-46.1S423.4,1.7,398,1.7
	s-46.1,20.7-46.1,46.1S372.5,94,398,94z M398,3.7c24.3,0,44.1,19.8,44.1,44.1S422.3,91.9,398,91.9s-44.1-19.8-44.1-44.1
	S373.7,3.7,398,3.7z"/>
</svg>
