<?xml version="1.0" encoding="utf-8"?>
<!-- Generator: Adobe Illustrator 19.0.0, SVG Export Plug-In . SVG Version: 6.00 Build 0)  -->
<svg version="1.1" id="图层_1" xmlns="http://www.w3.org/2000/svg" xmlns:xlink="http://www.w3.org/1999/xlink" x="0px" y="0px"
	 viewBox="0 0 80 80" style="enable-background:new 0 0 80 80;" xml:space="preserve">
<style type="text/css">
	.st0{fill:url(#XMLID_2_);}
</style>
<linearGradient id="XMLID_2_" gradientUnits="userSpaceOnUse" x1="10.5768" y1="70.6274" x2="69.4232" y2="11.781">
	<stop  offset="0" style="stop-color:#BD1A21"/>
	<stop  offset="1" style="stop-color:#DF5F22"/>
</linearGradient>
<path id="XMLID_75_" class="st0" d="M42.1,47.5H30.9v1.8h11.2V47.5z M48.2,39.2h-2.1V41h2.1V39.2z M48.2,47.5h-2.1v1.8h2.1V47.5z
	 M48.2,31h-2.1v1.8h2.1V31z M30.9,32.8h11.2V31H30.9V32.8z M42.1,39.2H30.9V41h11.2V39.2z M63.2,35.3H76c0.5,0,0.9-0.4,0.9-0.9V19.6
	c0-0.5-0.4-0.9-0.9-0.9H63.2c-0.5,0-0.9,0.4-0.9,0.9v6.8l-9.1,5.1v-3.8c0-0.5-0.4-0.9-0.9-0.9H40.9v-8.2h5.3c0.5,0,0.9-0.4,0.9-0.9
	V3c0-0.5-0.4-0.9-0.9-0.9H33.5c-0.5,0-0.9,0.4-0.9,0.9v14.7c0,0.5,0.4,0.9,0.9,0.9h5.6v8.2H27.3c-0.5,0-0.9,0.4-0.9,0.9v3.7l-8.8-5
	v-6.8c0-0.5-0.4-0.9-0.9-0.9H4c-0.5,0-0.9,0.4-0.9,0.9v14.7c0,0.5,0.4,0.9,0.9,0.9h12.8c0.5,0,0.9-0.4,0.9-0.9v-5.8l8.8,5V48
	l-8.8,5.8v-5.7c0-0.5-0.4-0.9-0.9-0.9H4c-0.5,0-0.9,0.4-0.9,0.9v14.7c0,0.5,0.4,0.9,0.9,0.9h12.8c0.5,0,0.9-0.4,0.9-0.9v-6.9
	l8.8-5.8v2.4c0,0.5,0.4,0.9,0.9,0.9h11.8v7.9h-5.6c-0.5,0-0.9,0.4-0.9,0.9V77c0,0.5,0.4,0.9,0.9,0.9h12.8c0.5,0,0.9-0.4,0.9-0.9
	V62.3c0-0.5-0.4-0.9-0.9-0.9h-5.3v-7.9h11.5c0.5,0,0.9-0.4,0.9-0.9v-2.6l9.1,6v6.9c0,0.5,0.4,0.9,0.9,0.9H76c0.5,0,0.9-0.4,0.9-0.9
	V48.1c0-0.5-0.4-0.9-0.9-0.9H63.2c-0.5,0-0.9,0.4-0.9,0.9v5.7l-9.1-6V33.7l9.1-5.1v5.8C62.3,34.8,62.8,35.3,63.2,35.3z M64.1,20.5
	h11v3.1h-11V20.5z M64.1,25.4h11v3.1h-11V25.4z M64.1,30.3h11v3.1h-11V30.3z M15.9,33.5h-11v-3.1h11V33.5z M15.9,28.5h-11v-3.1h11
	V28.5z M15.9,23.6h-11v-3.1h11V23.6z M15.9,61.9h-11v-3.1h11V61.9z M15.9,57h-11v-3.1h11V57z M15.9,52.1h-11V49h11V52.1z M34.4,3.9
	h11V7h-11V3.9z M34.4,8.8h11v3.1h-11V8.8z M34.4,16.8v-3.1h11v3.1H34.4z M45.3,76.1h-11V73h11V76.1z M45.3,71.2h-11v-3.1h11V71.2z
	 M45.3,63.2v3.1h-11v-3.1H45.3z M51.5,51.6H28.2v-2.9c0-0.1,0-0.3,0-0.4v-3.1h23.3V51.6z M51.5,43.4H28.2v-6.4h23.3V43.4z
	 M51.5,35.1H28.2v-6.4H40c0,0,0,0,0,0c0,0,0,0,0,0h11.5V35.1z M64.1,49h11v3.1h-11V49z M64.1,53.9h11V57h-11V53.9z M64.1,58.8h11
	v3.1h-11V58.8z"/>
</svg>
