<?xml version="1.0" encoding="utf-8"?>
<!-- Generator: Adobe Illustrator 19.0.0, SVG Export Plug-In . SVG Version: 6.00 Build 0)  -->
<svg version="1.1" id="图层_1" xmlns="http://www.w3.org/2000/svg" xmlns:xlink="http://www.w3.org/1999/xlink" x="0px" y="0px"
	 viewBox="0 0 80 80" style="enable-background:new 0 0 80 80;" xml:space="preserve">
<style type="text/css">
	.st0{fill:url(#XMLID_2_);}
</style>
<linearGradient id="XMLID_2_" gradientUnits="userSpaceOnUse" x1="13.3591" y1="74.0525" x2="66.6409" y2="20.7707">
	<stop  offset="0" style="stop-color:#BD1A21"/>
	<stop  offset="1" style="stop-color:#DF5F22"/>
</linearGradient>
<path id="XMLID_21_" class="st0" d="M63.9,54.6c0.6,0,1-0.5,1-1v-26c0-0.6-0.5-1-1-1h-8.3c-0.6,0-1,0.5-1,1c0,0.6,0.5,1,1,1h7.3v25
	C62.9,54.1,63.4,54.6,63.9,54.6z M24.4,26.5h-8.3c-0.6,0-1,0.5-1,1v26c0,0.6,0.5,1,1,1s1-0.5,1-1v-25h7.3c0.6,0,1-0.5,1-1
	C25.4,26.9,25,26.5,24.4,26.5z M77.5,57.7h-7.3V26.5c0-2.9-2.3-5.2-5.2-5.2h-9.4c-0.6,0-1,0.5-1,1c0,0.6,0.5,1,1,1H65
	c1.7,0,3.1,1.4,3.1,3.1v31.2H41V55l0.3,0.3c0.2,0.2,0.5,0.3,0.7,0.3s0.5-0.1,0.7-0.3c0.4-0.4,0.4-1.1,0-1.5l-2.1-2.1
	c-0.1-0.1-0.2-0.2-0.3-0.2c-0.3-0.1-0.5-0.1-0.8,0c-0.1,0.1-0.2,0.1-0.3,0.2l-2.1,2.1c-0.4,0.4-0.4,1.1,0,1.5
	c0.2,0.2,0.5,0.3,0.7,0.3c0.3,0,0.5-0.1,0.7-0.3L39,55v2.7H11.9V26.5c0-1.7,1.4-3.1,3.1-3.1h9.4c0.6,0,1-0.5,1-1c0-0.6-0.5-1-1-1H15
	c-2.9,0-5.2,2.3-5.2,5.2v31.2H2.5c-0.6,0-1,0.5-1,1c0,4.6,3.7,8.3,8.3,8.3h60.4c4.6,0,8.3-3.7,8.3-8.3C78.5,58.2,78,57.7,77.5,57.7z
	 M70.2,65H9.8c-3.1,0-5.7-2.3-6.2-5.2h7.2h58.3h7.2C75.8,62.7,73.3,65,70.2,65z M31.7,48.3h16.7c2.3,0,4.2-1.9,4.2-4.2V17.1
	c0-2.3-1.9-4.2-4.2-4.2H31.7c-2.3,0-4.2,1.9-4.2,4.2v27.1C27.5,46.5,29.4,48.3,31.7,48.3z M29.6,17.1c0-1.1,0.9-2.1,2.1-2.1h16.7
	c1.1,0,2.1,0.9,2.1,2.1v1H29.6V17.1z M29.6,20.2h20.8V41H29.6V20.2z M29.6,43.1h20.8v1c0,1.1-0.9,2.1-2.1,2.1H31.7
	c-1.1,0-2.1-0.9-2.1-2.1V43.1z M41.3,30.8L41,31.1v-3.7c0-0.6-0.5-1-1-1s-1,0.5-1,1v3.7l-0.3-0.3c-0.4-0.4-1.1-0.4-1.5,0
	c-0.4,0.4-0.4,1.1,0,1.5l2.1,2.1c0.1,0.1,0.2,0.2,0.3,0.2c0.1,0.1,0.3,0.1,0.4,0.1s0.3,0,0.4-0.1c0.1-0.1,0.2-0.1,0.3-0.2l2.1-2.1
	c0.4-0.4,0.4-1.1,0-1.5C42.4,30.4,41.8,30.4,41.3,30.8z"/>
</svg>
