<?xml version="1.0" encoding="utf-8"?>
<!-- Generator: Adobe Illustrator 19.0.0, SVG Export Plug-In . SVG Version: 6.00 Build 0)  -->
<svg version="1.1" id="图层_1" xmlns="http://www.w3.org/2000/svg" xmlns:xlink="http://www.w3.org/1999/xlink" x="0px" y="0px"
	 viewBox="0 0 80 80" style="enable-background:new 0 0 80 80;" xml:space="preserve">
<style type="text/css">
	.st0{fill:url(#XMLID_2_);}
</style>
<linearGradient id="XMLID_2_" gradientUnits="userSpaceOnUse" x1="8.975" y1="66.7476" x2="61.5413" y2="14.1813">
	<stop  offset="0" style="stop-color:#BD1A21"/>
	<stop  offset="1" style="stop-color:#DF5F22"/>
</linearGradient>
<path id="XMLID_222_" class="st0" d="M18.2,12c0-1.6-1.3-2.9-2.9-2.9s-2.9,1.3-2.9,2.9c0,1.3,0.9,2.4,2.1,2.8v18.8
	c-1.2,0.4-2.1,1.5-2.1,2.8c0,1.6,1.3,2.9,2.9,2.9s2.9-1.3,2.9-2.9c0-1.3-0.9-2.4-2.1-2.8V14.8C17.3,14.4,18.2,13.3,18.2,12z
	 M16.5,36.4c0,0.7-0.6,1.2-1.2,1.2c-0.7,0-1.2-0.6-1.2-1.2c0-0.7,0.6-1.2,1.2-1.2C15.9,35.2,16.5,35.7,16.5,36.4z M15.2,13.2
	c-0.7,0-1.2-0.6-1.2-1.2c0-0.7,0.6-1.2,1.2-1.2c0.7,0,1.2,0.6,1.2,1.2C16.5,12.7,15.9,13.2,15.2,13.2z M23.6,14.9
	c1.3,0,2.4-0.9,2.8-2.1h3.4V4.1h1.5c0.4,1.2,1.5,2.1,2.8,2.1c1.6,0,2.9-1.3,2.9-2.9c0-1.6-1.3-2.9-2.9-2.9c-1.3,0-2.4,0.9-2.8,2.1
	h-3.2v8.8h-1.7c-0.4-1.2-1.5-2.1-2.8-2.1c-1.6,0-2.9,1.3-2.9,2.9C20.7,13.6,22,14.9,23.6,14.9z M34.2,2c0.7,0,1.2,0.6,1.2,1.2
	c0,0.7-0.6,1.2-1.2,1.2c-0.7,0-1.2-0.6-1.2-1.2C32.9,2.5,33.5,2,34.2,2z M23.6,10.8c0.7,0,1.2,0.6,1.2,1.2c0,0.7-0.6,1.2-1.2,1.2
	c-0.7,0-1.2-0.6-1.2-1.2C22.4,11.3,23,10.8,23.6,10.8z M20.7,60c0,1.6,1.3,2.9,2.9,2.9c1.3,0,2.4-0.9,2.8-2.1h10.2
	c0.4,1.2,1.5,2,2.8,2s2.4-0.8,2.8-2h6.5c0.4,1.2,1.5,2.1,2.8,2.1c1.4,0,2.6-1,2.9-2.4c2.9-0.8,5-3.4,5-6.5c0-3.3-2.4-6-5.5-6.6
	c-0.3-1.3-1.5-2.2-2.8-2.2c-1.3,0-2.4,0.9-2.8,2.1H34c-0.3-0.9-1-1.7-1.9-1.9v-9.2c0.9-0.3,1.7-1,1.9-1.9h14.1
	c0.4,1.2,1.5,2.1,2.8,2.1c1.4,0,2.5-0.9,2.8-2.2c3.1-0.6,5.5-3.3,5.5-6.6c0-3.1-2.1-5.7-5-6.5c-0.3-1.3-1.5-2.3-2.9-2.3
	c-1.3,0-2.4,0.9-2.8,2.1h-6.4c-0.4-1.2-1.5-2.1-2.8-2.1c-1.3,0-2.4,0.9-2.8,2.1H26.4c-0.4-1.2-1.5-2.1-2.8-2.1
	c-1.6,0-2.9,1.3-2.9,2.9c0,1.3,0.9,2.4,2.1,2.8v13.3c-1.2,0.4-2.1,1.5-2.1,2.8c0,1.3,0.9,2.4,2.1,2.8v13.9
	C21.6,57.5,20.7,58.6,20.7,60z M39.3,61.1c-0.7,0-1.2-0.6-1.2-1.2c0-0.7,0.6-1.2,1.2-1.2c0.7,0,1.2,0.6,1.2,1.2
	C40.6,60.5,40,61.1,39.3,61.1z M52.5,60.3c-0.1,0.5-0.6,0.9-1.2,0.9c-0.4,0-0.7-0.2-0.9-0.4v-1.6c0.2-0.3,0.5-0.4,0.9-0.4
	c0.6,0,1,0.4,1.2,0.9V60.3z M50.9,46.9c0.7,0,1.2,0.6,1.2,1.2c0,0.7-0.6,1.2-1.2,1.2c-0.7,0-1.2-0.6-1.2-1.2
	C49.7,47.4,50.3,46.9,50.9,46.9z M32.5,48.1c0,0.7-0.6,1.2-1.2,1.2c-0.7,0-1.2-0.6-1.2-1.2c0-0.7,0.6-1.2,1.2-1.2
	C31.9,46.9,32.5,47.4,32.5,48.1z M31.2,34.6c-0.7,0-1.2-0.6-1.2-1.2c0-0.7,0.6-1.2,1.2-1.2c0.7,0,1.2,0.6,1.2,1.2
	C32.5,34,31.9,34.6,31.2,34.6z M50.9,34.6c-0.7,0-1.2-0.6-1.2-1.2c0-0.7,0.6-1.2,1.2-1.2c0.7,0,1.2,0.6,1.2,1.2
	C52.2,34,51.6,34.6,50.9,34.6z M50.4,20.7c0.2-0.3,0.5-0.4,0.9-0.4c0.6,0,1,0.4,1.2,0.9v0.7c-0.1,0.5-0.6,0.9-1.2,0.9
	c-0.4,0-0.7-0.2-0.9-0.4V20.7z M39.3,20.3c0.7,0,1.2,0.6,1.2,1.2c0,0.7-0.6,1.2-1.2,1.2c-0.7,0-1.2-0.6-1.2-1.2
	C38.1,20.9,38.7,20.3,39.3,20.3z M26.4,22.4h10.1c0.4,1.2,1.5,2.1,2.8,2.1c1.3,0,2.4-0.9,2.8-2.1h6.4c0.4,1.2,1.5,2.1,2.8,2.1
	c1.2,0,2.3-0.7,2.7-1.8c2,0.7,3.5,2.5,3.5,4.8c0,2.4-1.7,4.4-3.9,4.9c-0.4-1.1-1.5-1.9-2.7-1.9c-1.3,0-2.4,0.9-2.8,2.1H34
	c-0.4-1.2-1.5-2.1-2.8-2.1c-1.6,0-2.9,1.3-2.9,2.9c0,1.3,0.9,2.4,2.1,2.8v9.2c-1.2,0.4-2.1,1.5-2.1,2.8c0,1.6,1.3,2.9,2.9,2.9
	c1.3,0,2.4-0.9,2.8-2.1h14.1c0.4,1.2,1.5,2.1,2.8,2.1c1.3,0,2.3-0.8,2.7-1.9c2.2,0.5,3.9,2.5,3.9,4.9c0,2.2-1.5,4.1-3.5,4.8
	c-0.5-1-1.5-1.7-2.7-1.7c-1.3,0-2.4,0.9-2.8,2.1h-6.4c-0.3-1.3-1.5-2.2-2.8-2.2c-1.4,0-2.5,0.9-2.8,2.2H26.4c-0.3-0.9-1-1.7-1.9-1.9
	V43.3c1.2-0.4,2.1-1.5,2.1-2.8c0-1.3-0.9-2.4-2.1-2.8V24.3C25.4,24.1,26.1,23.3,26.4,22.4z M22.4,21.6c0-0.7,0.6-1.2,1.2-1.2
	c0.7,0,1.2,0.6,1.2,1.2c0,0.7-0.6,1.2-1.2,1.2C23,22.8,22.4,22.2,22.4,21.6z M22.4,40.5c0-0.7,0.6-1.2,1.2-1.2
	c0.7,0,1.2,0.6,1.2,1.2c0,0.7-0.6,1.2-1.2,1.2C23,41.7,22.4,41.1,22.4,40.5z M24.5,59.1L24.5,59.1c0.2,0.2,0.4,0.5,0.4,0.8
	c0,0.7-0.6,1.2-1.2,1.2c-0.7,0-1.2-0.6-1.2-1.2c0-0.4,0.2-0.7,0.4-0.9v0H24.5z M18.2,45.4c0-1.6-1.3-2.9-2.9-2.9s-2.9,1.3-2.9,2.9
	c0,1.3,0.9,2.4,2.1,2.8v17.9c-1.2,0.4-2.1,1.5-2.1,2.8c0,1.6,1.3,2.9,2.9,2.9s2.9-1.3,2.9-2.9c0-1.3-0.9-2.4-2.1-2.8V48.2
	C17.3,47.8,18.2,46.7,18.2,45.4z M16.5,68.8c0,0.7-0.6,1.2-1.2,1.2c-0.7,0-1.2-0.6-1.2-1.2c0-0.7,0.6-1.2,1.2-1.2
	C15.9,67.6,16.5,68.2,16.5,68.8z M15.2,46.6c-0.7,0-1.2-0.6-1.2-1.2c0-0.7,0.6-1.2,1.2-1.2c0.7,0,1.2,0.6,1.2,1.2
	C16.5,46,15.9,46.6,15.2,46.6z M32.9,12c0,1.6,1.3,2.9,2.9,2.9c1.3,0,2.4-0.9,2.8-2.1H42V4.1h1.5c0.4,1.2,1.5,2.1,2.8,2.1
	c1.6,0,2.9-1.3,2.9-2.9c0-1.6-1.3-2.9-2.9-2.9c-1.3,0-2.4,0.9-2.8,2.1h-3.2v8.8h-1.7c-0.4-1.2-1.5-2.1-2.8-2.1
	C34.2,9.1,32.9,10.4,32.9,12z M46.3,2c0.7,0,1.2,0.6,1.2,1.2c0,0.7-0.6,1.2-1.2,1.2c-0.7,0-1.2-0.6-1.2-1.2C45.1,2.5,45.7,2,46.3,2z
	 M37.1,12c0,0.7-0.6,1.2-1.2,1.2s-1.2-0.6-1.2-1.2c0-0.7,0.6-1.2,1.2-1.2S37.1,11.3,37.1,12z M34.2,73.8c-1.3,0-2.4,0.9-2.8,2.1
	h-1.5V68h-3.4c-0.4-1.2-1.5-2.1-2.8-2.1c-1.6,0-2.9,1.3-2.9,2.9s1.3,2.9,2.9,2.9c1.3,0,2.4-0.9,2.8-2.1h1.7v7.9h3.2
	c0.4,1.2,1.5,2.1,2.8,2.1c1.6,0,2.9-1.3,2.9-2.9C37.1,75.2,35.8,73.8,34.2,73.8z M23.6,70.1c-0.7,0-1.2-0.6-1.2-1.2
	c0-0.7,0.6-1.2,1.2-1.2c0.7,0,1.2,0.6,1.2,1.2C24.9,69.5,24.3,70.1,23.6,70.1z M34.2,78c-0.7,0-1.2-0.6-1.2-1.2
	c0-0.7,0.6-1.2,1.2-1.2c0.7,0,1.2,0.6,1.2,1.2C35.4,77.5,34.8,78,34.2,78z M46.3,73.8c-1.3,0-2.4,0.9-2.8,2.1H42V68h-3.4
	c-0.4-1.2-1.5-2.1-2.8-2.1c-1.6,0-2.9,1.3-2.9,2.9s1.3,2.9,2.9,2.9c1.3,0,2.4-0.9,2.8-2.1h1.7v7.9h3.2c0.4,1.2,1.5,2.1,2.8,2.1
	c1.6,0,2.9-1.3,2.9-2.9C49.3,75.2,48,73.8,46.3,73.8z M35.8,70.1c-0.7,0-1.2-0.6-1.2-1.2c0-0.7,0.6-1.2,1.2-1.2s1.2,0.6,1.2,1.2
	C37.1,69.5,36.5,70.1,35.8,70.1z M46.3,78c-0.7,0-1.2-0.6-1.2-1.2c0-0.7,0.6-1.2,1.2-1.2c0.7,0,1.2,0.6,1.2,1.2
	C47.6,77.5,47,78,46.3,78z M67.7,48.1c0-1.6-1.3-2.9-2.9-2.9c-0.4,0-0.9,0.1-1.3,0.3c-1.8-2.3-4.2-4-6.9-5c2.5-0.9,4.7-2.4,6.5-4.5
	c0.4,0.2,0.8,0.3,1.3,0.3c1.6,0,2.9-1.3,2.9-2.9c0-1-0.5-1.9-1.3-2.5c0.5-1.5,0.8-3.1,0.8-4.7c0-0.8-0.1-1.5-0.2-2.3
	c0.7-0.5,1.2-1.4,1.2-2.4c0-1.6-1.3-2.9-2.9-2.9c0,0-0.1,0-0.1,0c-2.7-4.6-7.6-7.5-13-7.5v0h-0.9c-0.4-1.2-1.5-2.1-2.8-2.1
	c-1.6,0-2.9,1.3-2.9,2.9c0,1.6,1.3,2.9,2.9,2.9c1.3,0,2.4-0.9,2.8-2.1h0.8c4.7,0,9,2.4,11.4,6.4c-0.7,0.5-1.2,1.4-1.2,2.3
	c0,1.6,1.3,2.9,2.9,2.9c0,0,0.1,0,0.1,0c0.1,0.6,0.1,1.2,0.1,1.7c0,1.4-0.2,2.8-0.7,4.2c-1.6,0-2.9,1.3-2.9,2.9
	c0,0.6,0.2,1.1,0.4,1.5c-2.6,3-6.3,4.8-10.2,4.8h-9.4c-0.4-1.2-1.5-2.1-2.8-2.1c-1.6,0-2.9,1.3-2.9,2.9c0,1.6,1.3,2.9,2.9,2.9
	c1.3,0,2.4-0.9,2.8-2.1h9.4c0,0,0,0,0,0v0c4.2,0,8.1,2,10.6,5.3c-0.3,0.4-0.4,1-0.4,1.5c0,1.5,1.2,2.8,2.6,2.9
	c0.3,1.2,0.5,2.4,0.5,3.7c0,0.8-0.1,1.6-0.2,2.3c-0.1,0-0.3,0-0.4,0c-1.6,0-2.9,1.3-2.9,2.9c0,1,0.5,1.8,1.2,2.4
	c-2.5,3.6-6.6,5.8-11,5.8h-0.8c-0.4-1.2-1.5-2.1-2.8-2.1c-1.6,0-2.9,1.3-2.9,2.9s1.3,2.9,2.9,2.9c1.3,0,2.4-0.9,2.8-2.1h0.8
	c5.1,0,9.9-2.6,12.6-6.9c0,0,0,0,0.1,0c1.6,0,2.9-1.3,2.9-2.9c0-0.8-0.4-1.6-0.9-2.1c0.2-1,0.3-2,0.3-3.1c0-1.4-0.2-2.7-0.5-4
	C67.1,50.2,67.7,49.2,67.7,48.1z M48,13.2c-0.7,0-1.2-0.6-1.2-1.2c0-0.7,0.6-1.2,1.2-1.2c0.7,0,1.2,0.6,1.2,1.2
	C49.3,12.7,48.7,13.2,48,13.2z M64.8,22.8c-0.7,0-1.2-0.6-1.2-1.2c0-0.7,0.6-1.2,1.2-1.2c0.7,0,1.2,0.6,1.2,1.2
	C66,22.2,65.5,22.8,64.8,22.8z M64.4,32.1c0.7,0,1.2,0.6,1.2,1.2c0,0.7-0.6,1.2-1.2,1.2c-0.7,0-1.2-0.6-1.2-1.2
	C63.1,32.7,63.7,32.1,64.4,32.1z M39.4,41.7c-0.7,0-1.2-0.6-1.2-1.2s0.6-1.2,1.2-1.2c0.7,0,1.2,0.6,1.2,1.2S40.1,41.7,39.4,41.7z
	 M48,70.1c-0.7,0-1.2-0.6-1.2-1.2c0-0.7,0.6-1.2,1.2-1.2c0.7,0,1.2,0.6,1.2,1.2C49.3,69.5,48.7,70.1,48,70.1z M64.4,61.1
	c-0.7,0-1.2-0.6-1.2-1.2c0-0.7,0.6-1.2,1.2-1.2c0.7,0,1.2,0.6,1.2,1.2C65.6,60.6,65,61.1,64.4,61.1z M64.8,49.3
	c-0.7,0-1.2-0.6-1.2-1.2c0-0.7,0.6-1.2,1.2-1.2c0.7,0,1.2,0.6,1.2,1.2C66,48.8,65.5,49.3,64.8,49.3z"/>
</svg>
