<?xml version="1.0" encoding="utf-8"?>
<!-- Generator: Adobe Illustrator 19.0.0, SVG Export Plug-In . SVG Version: 6.00 Build 0)  -->
<svg version="1.1" id="图层_1" xmlns="http://www.w3.org/2000/svg" xmlns:xlink="http://www.w3.org/1999/xlink" x="0px" y="0px"
	 viewBox="0 0 80 80" style="enable-background:new 0 0 80 80;" xml:space="preserve">
<style type="text/css">
	.st0{fill:url(#XMLID_2_);}
</style>
<linearGradient id="XMLID_2_" gradientUnits="userSpaceOnUse" x1="10.8836" y1="67.7728" x2="65.1446" y2="13.5118">
	<stop  offset="0" style="stop-color:#BD1A21"/>
	<stop  offset="1" style="stop-color:#DF5F22"/>
</linearGradient>
<path id="XMLID_62_" class="st0" d="M46.5,17.7l-10.4-6c-0.3-0.2-0.8-0.2-1.1,0c-0.3,0.2-0.5,0.6-0.5,1v12c0,0.4,0.2,0.8,0.5,1
	l10.4,6c0.2,0.1,0.4,0.1,0.5,0.1c0.2,0,0.4,0,0.5-0.1c0.3-0.2,0.5-0.6,0.5-1v-12C47,18.2,46.8,17.9,46.5,17.7z M44.8,28.8L36.6,24
	v-9.5l8.2,4.7V28.8z M46.5,36l-10.4-6c-0.3-0.2-0.8-0.2-1.1,0c-0.3,0.2-0.5,0.6-0.5,1v12c0,0.4,0.2,0.8,0.5,1l10.4,6
	c0.2,0.1,0.4,0.1,0.5,0.1c0.2,0,0.4,0,0.5-0.1c0.3-0.2,0.5-0.6,0.5-1V37C47,36.6,46.8,36.2,46.5,36z M44.8,47.1l-8.2-4.7v-9.5
	l8.2,4.7V47.1z M20.5,33.9l7.5,4.3c0.2,0.1,0.4,0.1,0.5,0.1c0.2,0,0.4,0,0.5-0.1c0.3-0.2,0.5-0.6,0.5-1v-8.6c0-0.4-0.2-0.8-0.5-1
	l-7.5-4.3c-0.3-0.2-0.8-0.2-1.1,0c-0.3,0.2-0.5,0.6-0.5,1V33C20,33.4,20.2,33.7,20.5,33.9z M22.2,26.2l5.3,3.1v6.1l-5.3-3.1V26.2z
	 M30.6,8.5l-10.4-6c-0.3-0.2-0.8-0.2-1.1,0c-0.3,0.2-0.5,0.6-0.5,1v12c0,0.4,0.2,0.8,0.5,1l10.4,6c0.2,0.1,0.4,0.1,0.5,0.1
	c0.2,0,0.4,0,0.5-0.1c0.3-0.2,0.5-0.6,0.5-1v-12C31.1,9.1,30.9,8.7,30.6,8.5z M28.9,19.6l-8.2-4.7V5.3l8.2,4.7V19.6z M30.6,63.6
	l-10.4-6c-0.3-0.2-0.8-0.2-1.1,0c-0.3,0.2-0.5,0.6-0.5,1v12c0,0.4,0.2,0.8,0.5,1l10.4,6c0.2,0.1,0.4,0.1,0.5,0.1
	c0.2,0,0.4,0,0.5-0.1c0.3-0.2,0.5-0.6,0.5-1v-12C31.1,64.1,30.9,63.8,30.6,63.6z M28.9,74.7l-8.2-4.7v-9.5l8.2,4.7V74.7z M52.3,52.3
	l7.5,4.3c0.2,0.1,0.4,0.1,0.5,0.1c0.2,0,0.4,0,0.5-0.1c0.3-0.2,0.5-0.6,0.5-1V47c0-0.4-0.2-0.8-0.5-0.9l-7.5-4.3
	c-0.3-0.2-0.8-0.2-1.1,0c-0.3,0.2-0.5,0.6-0.5,1l0,8.6C51.8,51.7,52,52.1,52.3,52.3z M54,44.6l5.3,3.1v6.1L54,50.7L54,44.6z
	 M62.4,26.9l-10.4-6c-0.3-0.2-0.8-0.2-1.1,0c-0.3,0.2-0.5,0.6-0.5,1v12c0,0.4,0.2,0.8,0.5,1l10.4,6c0.2,0.1,0.4,0.1,0.5,0.1
	c0.2,0,0.4,0,0.5-0.1c0.3-0.2,0.5-0.6,0.5-1v-12C62.9,27.4,62.7,27.1,62.4,26.9z M60.7,37.9l-8.2-4.7v-9.5l8.2,4.7V37.9z M14.7,36
	L4.3,30c-0.3-0.2-0.8-0.2-1.1,0c-0.3,0.2-0.5,0.6-0.5,1v12c0,0.4,0.2,0.8,0.5,1l10.4,6c0.2,0.1,0.4,0.1,0.5,0.1s0.4,0,0.5-0.1
	c0.3-0.2,0.5-0.6,0.5-1V37C15.2,36.6,15,36.2,14.7,36z M13,47.1l-8.2-4.7v-9.5l8.2,4.7V47.1z M14.7,17.7l-10.4-6
	c-0.3-0.2-0.8-0.2-1.1,0c-0.3,0.2-0.5,0.6-0.5,1v12c0,0.4,0.2,0.8,0.5,1l10.4,6c0.2,0.1,0.4,0.1,0.5,0.1s0.4,0,0.5-0.1
	c0.3-0.2,0.5-0.6,0.5-1v-12C15.2,18.2,15,17.9,14.7,17.7z M13,28.8L4.8,24v-9.5l8.2,4.7V28.8z M46.5,54.4l-10.4-6
	c-0.3-0.2-0.8-0.2-1.1,0c-0.3,0.2-0.5,0.6-0.5,1v12c0,0.4,0.2,0.8,0.5,1l10.4,6c0.2,0.1,0.4,0.1,0.5,0.1c0.2,0,0.4,0,0.5-0.1
	c0.3-0.2,0.5-0.6,0.5-1v-12C47,55,46.8,54.6,46.5,54.4z M44.8,65.5l-8.2-4.7v-9.5l8.2,4.7V65.5z M13.2,55.3l-7.5-4.3
	c-0.3-0.2-0.8-0.2-1.1,0c-0.3,0.2-0.5,0.6-0.5,1v8.6c0,0.4,0.2,0.8,0.5,1l7.5,4.3c0.2,0.1,0.4,0.1,0.5,0.1c0.2,0,0.4,0,0.5-0.1
	c0.3-0.2,0.5-0.6,0.5-1v-8.6C13.8,55.8,13.6,55.4,13.2,55.3z M11.6,62.9l-5.3-3.1v-6.1l5.3,3.1V62.9z M76.8,36.7l-7.5-4.3
	c-0.3-0.2-0.8-0.2-1.1,0c-0.3,0.2-0.5,0.6-0.5,1V42c0,0.4,0.2,0.8,0.5,1l7.5,4.3c0.2,0.1,0.4,0.1,0.5,0.1c0.2,0,0.4,0,0.5-0.1
	c0.3-0.2,0.5-0.6,0.5-1v-8.6C77.4,37.3,77.2,36.9,76.8,36.7z M75.2,44.4l-5.3-3.1v-6.1l5.3,3.1V44.4z M20,51.3c0,0.4,0.2,0.8,0.5,1
	l7.5,4.3c0.2,0.1,0.4,0.1,0.5,0.1c0.2,0,0.4,0,0.5-0.1c0.3-0.2,0.5-0.6,0.5-1V47c0-0.4-0.2-0.8-0.5-1l-7.5-4.3
	c-0.3-0.2-0.8-0.2-1.1,0c-0.3,0.2-0.5,0.6-0.5,1V51.3z M22.2,44.6l5.3,3.1v6.1l-5.3-3.1V44.6z M62.4,63.6l-10.4-6
	c-0.3-0.2-0.8-0.2-1.1,0c-0.3,0.2-0.5,0.6-0.5,1l0,12c0,0.4,0.2,0.8,0.5,1l10.4,6c0.2,0.1,0.4,0.1,0.5,0.1c0.2,0,0.4,0,0.5-0.1
	c0.3-0.2,0.5-0.6,0.5-1v-12C62.9,64.1,62.7,63.8,62.4,63.6z M60.7,74.7l-8.2-4.7l0-9.5l8.2,4.7V74.7z M76.8,55.1l-7.5-4.3
	c-0.3-0.2-0.8-0.2-1.1,0c-0.3,0.2-0.5,0.6-0.5,1v8.6c0,0.4,0.2,0.8,0.5,0.9l7.5,4.3c0.2,0.1,0.4,0.1,0.5,0.1c0.2,0,0.4,0,0.5-0.1
	c0.3-0.2,0.5-0.6,0.5-1V56C77.4,55.7,77.2,55.3,76.8,55.1z M75.2,62.8l-5.3-3.1v-6.1l5.3,3.1V62.8z M52.3,15.6l7.5,4.3
	C60,20,60.2,20,60.4,20c0.2,0,0.4,0,0.5-0.1c0.3-0.2,0.5-0.6,0.5-1v-8.6c0-0.4-0.2-0.8-0.5-1L53.4,5c-0.3-0.2-0.8-0.2-1.1,0
	c-0.3,0.2-0.5,0.6-0.5,1v8.6C51.8,15,52,15.4,52.3,15.6z M54,7.9l5.3,3.1V17L54,14V7.9z"/>
</svg>
