<?xml version="1.0" encoding="utf-8"?>
<!-- Generator: Adobe Illustrator 19.0.0, SVG Export Plug-In . SVG Version: 6.00 Build 0)  -->
<svg version="1.1" id="图层_1" xmlns="http://www.w3.org/2000/svg" xmlns:xlink="http://www.w3.org/1999/xlink" x="0px" y="0px"
	 viewBox="0 0 91 97" style="enable-background:new 0 0 91 97;" xml:space="preserve">
<style type="text/css">
	.st0{fill:#BD1A21;}
	.st1{fill:#FFFFFF;}
	.st2{fill:#E0E0E0;}
</style>
<g id="XMLID_1_">
	<polygon id="XMLID_18_" class="st0" points="88.8,66.6 88.8,75.3 52.7,96.5 52.7,53.3 88.8,30.3 88.8,39.3 60.2,57.2 60.2,65.8 
		88.8,49.1 88.8,57.2 60.1,74.5 60.1,83.2 	"/>
	<polygon id="XMLID_17_" class="st1" points="17.5,16 56.7,36.9 49,42 9.9,21 2.2,25.8 49.3,51 72.6,36.3 33.1,15.1 40.8,9.9 
		80.6,31.2 88.8,26 41.1,0.5 	"/>
	<polygon id="XMLID_15_" class="st2" points="39.1,92.9 39.1,49.7 45.8,53.3 45.8,96.5 	"/>
	<polygon id="XMLID_14_" class="st2" points="2.2,73.3 2.2,30.3 9.6,34.3 9.6,77.4 	"/>
	<g id="XMLID_11_">
		<polygon id="XMLID_13_" class="st0" points="28.2,51.9 28.2,44.3 20.6,40.2 20.6,47.5 		"/>
		<polygon id="XMLID_12_" class="st0" points="20.6,53.1 20.6,83.3 28.2,87.5 28.2,57.5 		"/>
	</g>
</g>
</svg>
