<?xml version="1.0" encoding="utf-8"?>
<!-- Generator: Adobe Illustrator 19.0.0, SVG Export Plug-In . SVG Version: 6.00 Build 0)  -->
<svg version="1.1" id="图层_1" xmlns="http://www.w3.org/2000/svg" xmlns:xlink="http://www.w3.org/1999/xlink" x="0px" y="0px"
	 viewBox="0 0 936 936" style="enable-background:new 0 0 936 936;" xml:space="preserve">
<style type="text/css">
	.st0{fill:url(#XMLID_2_);}
</style>
<linearGradient id="XMLID_2_" gradientUnits="userSpaceOnUse" x1="7.4326" y1="468" x2="928.5674" y2="468">
	<stop  offset="0" style="stop-color:#BD1A21"/>
	<stop  offset="1" style="stop-color:#DF5F22"/>
</linearGradient>
<path id="XMLID_5_" class="st0" d="M9.7,468.1c-1.3,0-2.3,1-2.3,2.3s1,2.3,2.3,2.3c1.3,0,2.3-1,2.3-2.3S11,468.1,9.7,468.1z
	 M926.3,463.3c-1.3,0-2.3,1-2.3,2.3c0,1.3,1,2.3,2.3,2.3s2.3-1,2.3-2.3C928.6,464.3,927.5,463.3,926.3,463.3z M18.6,545.4
	c-2.5,0.5-4.1,2.8-3.7,5.3s2.8,4.1,5.3,3.7c2.5-0.5,4.1-2.8,3.7-5.3S21.1,545,18.6,545.4z M922,390.6c2.5-0.5,4.1-2.8,3.7-5.3
	c-0.5-2.5-2.8-4.1-5.3-3.7s-4.1,2.8-3.7,5.3C917.1,389.4,919.5,391,922,390.6z M41.9,618.4c-4.7,1.8-7.2,7-5.4,11.8
	c1.8,4.7,7,7.2,11.8,5.4c4.7-1.8,7.2-7,5.4-11.8S46.6,616.6,41.9,618.4z M901.5,300.4c-4.7,1.8-7.2,7-5.4,11.8
	c1.8,4.7,7,7.2,11.8,5.4c4.7-1.8,7.2-7,5.4-11.8C911.5,301.1,906.3,298.7,901.5,300.4z M73.4,693.3c-3.3,1.9-4.4,6.1-2.5,9.4
	c1.9,3.3,6.1,4.4,9.4,2.5c3.3-1.9,4.4-6.1,2.5-9.4C80.9,692.5,76.7,691.4,73.4,693.3z M871.7,242.7c3.3-1.9,4.4-6.1,2.5-9.4
	c-1.9-3.3-6.1-4.4-9.4-2.5c-3.3,1.9-4.4,6.1-2.5,9.4C864.2,243.5,868.5,244.6,871.7,242.7z M117.8,760.9c-1.9,1.6-2.2,4.5-0.5,6.4
	c1.6,1.9,4.5,2.2,6.4,0.5c1.9-1.6,2.2-4.5,0.5-6.4C122.6,759.5,119.7,759.3,117.8,760.9z M822.8,175.1c1.9-1.6,2.2-4.5,0.5-6.4
	c-1.6-1.9-4.5-2.2-6.4-0.5c-1.9,1.6-2.2,4.5-0.5,6.4C818,176.5,820.8,176.7,822.8,175.1z M173.5,819.1c-0.8,1-0.7,2.4,0.3,3.2
	c1,0.8,2.4,0.7,3.2-0.3c0.8-1,0.7-2.4-0.3-3.2C175.7,818,174.3,818.2,173.5,819.1z M762.2,113.7c-1-0.8-2.4-0.7-3.2,0.3
	c-0.8,1-0.7,2.4,0.3,3.2c1,0.8,2.4,0.7,3.2-0.3C763.3,115.9,763.2,114.5,762.2,113.7z M252.3,858.1c-4.4-2.5-10-1-12.5,3.4
	c-2.5,4.4-1,10,3.4,12.5s10,1,12.5-3.4C258.2,866.2,256.7,860.6,252.3,858.1z M706.5,61.9c-4.4-2.5-10-1-12.5,3.4
	c-2.5,4.4-1,10,3.4,12.5s10,1,12.5-3.4C712.4,70,710.9,64.5,706.5,61.9z M317.3,895.2c-2.4-0.9-5,0.4-5.8,2.8s0.4,5,2.8,5.8
	c2.4,0.9,5-0.4,5.8-2.8C320.9,898.6,319.7,896,317.3,895.2z M629.1,38.1c0.9-2.4-0.4-5-2.8-5.8c-2.4-0.9-5,0.4-5.8,2.8
	c-0.9,2.4,0.4,5,2.8,5.8S628.2,40.5,629.1,38.1z M396.5,913c-3.7-0.6-7.3,1.9-7.9,5.6s1.9,7.3,5.6,7.9s7.3-1.9,7.9-5.6
	C402.8,917.1,400.2,913.6,396.5,913z M551,9.5c-3.7-0.6-7.3,1.9-7.9,5.6c-0.6,3.7,1.9,7.3,5.6,7.9c3.7,0.6,7.3-1.9,7.9-5.6
	C557.2,13.7,554.7,10.1,551,9.5z M472.7,921.7c-2.5,0-4.6,2.1-4.6,4.6s2.1,4.6,4.6,4.6c2.5,0,4.6-2.1,4.6-4.6
	C477.2,923.7,475.2,921.7,472.7,921.7z M472.5,9.7c0-2.5-2.1-4.6-4.6-4.6s-4.6,2.1-4.6,4.6s2.1,4.6,4.6,4.6
	C470.4,14.3,472.5,12.2,472.5,9.7z M549.5,916.7c-1.2,0.2-2.1,1.4-1.8,2.7c0.2,1.2,1.4,2.1,2.7,1.8c1.2-0.2,2.1-1.4,1.8-2.7
	C552,917.3,550.8,916.4,549.5,916.7z M385.7,14.9c-1.2,0.2-2.1,1.4-1.8,2.7c0.2,1.2,1.4,2.1,2.7,1.8c1.2-0.2,2.1-1.4,1.8-2.7
	C388.1,15.5,386.9,14.6,385.7,14.9z M630.7,889.2c-4.7,1.8-7.2,7-5.4,11.8c1.8,4.7,7,7.2,11.8,5.4c4.7-1.8,7.2-7,5.4-11.8
	C640.7,889.9,635.4,887.5,630.7,889.2z M312.7,29.6c-4.7,1.8-7.2,7-5.4,11.8s7,7.2,11.8,5.4c4.7-1.8,7.2-7,5.4-11.8
	C322.7,30.2,317.4,27.8,312.7,29.6z M698.1,861.7c-1.1,0.6-1.5,2-0.8,3.1c0.6,1.1,2,1.5,3.1,0.8c1.1-0.6,1.5-2,0.8-3.1
	C700.5,861.5,699.1,861.1,698.1,861.7z M238.8,71.2c-0.6-1.1-2-1.5-3.1-0.8c-1.1,0.6-1.5,2-0.8,3.1c0.6,1.1,2,1.5,3.1,0.8
	C239,73.7,239.4,72.3,238.8,71.2z M763.7,814c-1.9,1.6-2.2,4.5-0.5,6.4c1.6,1.9,4.5,2.2,6.4,0.5c1.9-1.6,2.2-4.5,0.5-6.4
	C768.6,812.6,765.7,812.4,763.7,814z M170.9,115c-1.9,1.6-2.2,4.5-0.5,6.4c1.6,1.9,4.5,2.2,6.4,0.5c1.9-1.6,2.2-4.5,0.5-6.4
	C175.7,113.6,172.8,113.3,170.9,115z M829.6,755.5c-2.9-2.4-7.2-2-9.7,0.9s-2,7.2,0.9,9.7s7.2,2,9.7-0.9S832.5,757.9,829.6,755.5z
	 M124.4,170c-2.9-2.4-7.2-2-9.7,0.9s-2,7.2,0.9,9.7c2.9,2.4,7.2,2,9.7-0.9S127.3,172.4,124.4,170z M877.5,687.1
	c-4.4-2.5-10-1-12.5,3.4s-1,10,3.4,12.5s10,1,12.5-3.4C883.4,695.2,881.9,689.6,877.5,687.1z M81.3,233c-4.4-2.5-10-1-12.5,3.4
	c-2.5,4.4-1,10,3.4,12.5s10,1,12.5-3.4C87.2,241,85.7,235.5,81.3,233z M903.3,618.2c-2.4-0.9-5,0.4-5.8,2.8c-0.9,2.4,0.4,5,2.8,5.8
	c2.4,0.9,5-0.4,5.8-2.8C906.9,621.7,905.7,619,903.3,618.2z M43.1,315c0.9-2.4-0.4-5-2.8-5.8c-2.4-0.9-5,0.4-5.8,2.8
	c-0.9,2.4,0.4,5,2.8,5.8S42.3,317.4,43.1,315z M922.8,540.7c-2.5-0.4-4.9,1.2-5.3,3.7c-0.4,2.5,1.2,4.9,3.7,5.3
	c2.5,0.4,4.9-1.2,5.3-3.7C927,543.5,925.3,541.1,922.8,540.7z M17.8,395.3c2.5,0.4,4.9-1.2,5.3-3.7c0.4-2.5-1.2-4.9-3.7-5.3
	c-2.5-0.4-4.9,1.2-5.3,3.7S15.3,394.9,17.8,395.3z"/>
</svg>
