<?xml version="1.0" encoding="utf-8"?>
<!-- Generator: Adobe Illustrator 19.0.0, SVG Export Plug-In . SVG Version: 6.00 Build 0)  -->
<svg version="1.1" id="图层_1" xmlns="http://www.w3.org/2000/svg" xmlns:xlink="http://www.w3.org/1999/xlink" x="0px" y="0px"
	 viewBox="0 0 546 347" style="enable-background:new 0 0 546 347;" xml:space="preserve">
<style type="text/css">
	.st0{fill:url(#XMLID_2_);}
</style>
<linearGradient id="XMLID_2_" gradientUnits="userSpaceOnUse" x1="23.4623" y1="173.5016" x2="522.543" y2="173.5016">
	<stop  offset="0" style="stop-color:#B21E23"/>
	<stop  offset="1" style="stop-color:#D45D26"/>
</linearGradient>
<path id="XMLID_193_" class="st0" d="M339,118.3c-12-5.7-32.2-6.4-33.1-6.4c-0.9,0-21.1,0.7-33.1,6.4c-0.5,0.3-0.9,0.8-0.9,1.4v32.7
	c0,1,0.6,24.8,33.4,39.3c0.4,0.2,0.8,0.2,1.2,0c32.7-14.5,33.2-38.3,33.3-39.3v-32.7C339.9,119.1,339.6,118.5,339,118.3z
	 M336.9,152.3c0,0.2-0.6,22.5-30.9,36.3c-30.3-13.7-30.9-35.3-30.9-36.3v-31.7c11.2-5,29.9-5.7,30.9-5.7c1,0,19.8,0.7,30.9,5.7
	V152.3z M305.9,120.4c-0.7,0-16.5,0.5-25.8,5c-0.5,0.3-0.9,0.8-0.9,1.4v25.4c0,0.8,0.5,19.5,26.1,30.9c0.4,0.2,0.8,0.2,1.2,0
	c25.7-11.4,26.1-30.1,26.1-30.9v-25.4c0-0.6-0.3-1.1-0.9-1.4c-9.4-4.6-25.2-5-25.8-5H305.9z M329.7,127.8L329.7,127.8l0.1,24.4
	c0,0.7-0.5,17.3-23.7,27.8c-23.2-10.6-23.7-27.1-23.7-27.8v-24.4c8.7-3.8,22.8-4.3,23.7-4.3C306.9,123.4,321,124,329.7,127.8z
	 M304.2,131.9c-4.7,0.7-8.3,4.4-9,9h-0.5c-1.7,0-3,1.4-3,3v15.5c0,1.7,1.3,3,3,3h22.6c1.7,0,3-1.4,3-3V144c0-1.7-1.4-3-3-3h-0.8
	C315.6,135,310.1,131,304.2,131.9z M317.2,144v15.5h-22.6V144H317.2z M313.4,140.9h-15.2c0.7-3.6,3.9-6.2,7.6-6.2
	C309.5,134.7,312.6,137.3,313.4,140.9z M305.9,155.8c0.8,0,1.5-0.7,1.5-1.5v-5.2c0-0.8-0.7-1.5-1.5-1.5s-1.5,0.7-1.5,1.5v5.2
	C304.4,155.1,305.1,155.8,305.9,155.8z M315.4,54.2h1.3v-1.3h-1.3V54.2z M318,54.2h1.3v-1.3H318V54.2z M310.4,50.1h1.4v2.1
	c0,0.4,0.3,0.7,0.7,0.7h1.4v1.4h-1.4c-0.4,0-0.7,0.3-0.7,0.7v5.6c0,0.4,0.3,0.7,0.7,0.7h22.6c0.4,0,0.7-0.3,0.7-0.7V55
	c0-0.4-0.3-0.7-0.7-0.7h-1.4v-1.4h1.4c0.4,0,0.7-0.3,0.7-0.7v-2.1c5.1,0,9.2-4.1,9.2-9.2c0-5.1-4.1-9.2-9.2-9.2
	c-0.4,0-0.8,0-1.2,0.1c-1.9-6.3-8.6-9.9-14.9-8c-4.8,1.5-8.2,5.8-8.5,10.8c-0.2,0-0.5,0-0.7,0c-4.3,0-7.8,3.5-7.8,7.8
	C302.6,46.6,306.1,50.1,310.4,50.1z M334.4,55.7V60h-21.2v-4.2H334.4z M315.3,54.3v-1.4h16.9v1.4H315.3z M334.4,51.5h-21.2v-4.2
	h21.2V51.5z M310.4,36c0.4,0,0.9,0,1.3,0.1c0.2,0,0.4,0,0.6-0.1c0.2-0.1,0.3-0.3,0.3-0.6c0,0,0-0.1,0-0.1c0-5.8,4.7-10.6,10.6-10.6
	c4.9,0,9.2,3.4,10.3,8.1c0.1,0.4,0.5,0.6,0.8,0.5c4.2-0.9,8.3,1.8,9.2,6c0.9,4.2-1.8,8.3-6,9.2c-0.5,0.1-1.1,0.2-1.6,0.2v-2.1
	c0-0.4-0.3-0.7-0.7-0.7H328v-6.4h6.5c0.4,1.1,1.6,1.7,2.7,1.3c1.1-0.4,1.7-1.6,1.3-2.7c-0.4-1.1-1.6-1.7-2.7-1.3
	c-0.6,0.2-1.1,0.7-1.3,1.3h-7.2c-0.4,0-0.7,0.3-0.7,0.7v7.1h-3.5V32.4h3c0.4,1.1,1.6,1.7,2.7,1.3c1.1-0.4,1.7-1.6,1.3-2.7
	c-0.4-1.1-1.6-1.7-2.7-1.3c-0.6,0.2-1.1,0.7-1.3,1.3h-3.7c-0.4,0-0.7,0.3-0.7,0.7v14.1h-2.4v-0.6h-1.1v-4.3c0-0.4-0.3-0.7-0.7-0.7
	h-3.7c-0.4-1.1-1.6-1.7-2.7-1.3s-1.7,1.6-1.3,2.7c0.4,1.1,1.6,1.7,2.7,1.3c0.6-0.2,1.1-0.7,1.3-1.3h3v4.2h0v-0.6h-1.3v0.6h-2.9
	c-0.4,0-0.7,0.3-0.7,0.7v2.1h-1.4c-3.5,0-6.4-2.8-6.4-6.4C304,38.8,306.9,36,310.4,36z M335.8,38.8c0-0.4,0.3-0.7,0.7-0.7
	s0.7,0.3,0.7,0.7s-0.3,0.7-0.7,0.7S335.8,39.2,335.8,38.8z M327.3,31.7c0-0.4,0.3-0.7,0.7-0.7s0.7,0.3,0.7,0.7s-0.3,0.7-0.7,0.7
	S327.3,32.1,327.3,31.7z M312.5,40.9c0,0.4-0.3,0.7-0.7,0.7c-0.4,0-0.7-0.3-0.7-0.7s0.3-0.7,0.7-0.7
	C312.2,40.2,312.5,40.5,312.5,40.9z M416.9,266.8v16.9c0,2.3,1.9,4.2,4.2,4.2h7.7l-0.8,2.6h-3.6c-1,0-1.8,0.8-1.8,1.8
	c0,1,0.8,1.8,1.8,1.8h16.4c1,0,1.8-0.8,1.8-1.8c0-1-0.8-1.8-1.8-1.8h-3.6l-0.8-2.6h7.7c2.3,0,4.2-1.9,4.2-4.2v-16.9
	c0-2.3-1.9-4.2-4.2-4.2h-23.2C418.8,262.6,416.9,264.5,416.9,266.8z M440.9,291.6c0.4,0,0.8,0.4,0.8,0.8c0,0.4-0.4,0.8-0.8,0.8
	h-16.4c-0.4,0-0.8-0.4-0.8-0.8c0-0.4,0.4-0.8,0.8-0.8H440.9z M429.2,290.6l0.8-2.6h5.5l0.8,2.6H429.2z M447.5,266.8v16.9
	c0,1.7-1.4,3.2-3.2,3.2h-23.2c-1.7,0-3.2-1.4-3.2-3.2v-16.9c0-1.7,1.4-3.2,3.2-3.2h23.2C446.1,263.6,447.5,265.1,447.5,266.8z
	 M419.5,267.3v14.2c0,1.2,0.9,2.1,2.1,2.1h22.1c1.2,0,2.1-0.9,2.1-2.1v-14.2c0-1.2-0.9-2.1-2.1-2.1h-22.1
	C420.5,265.2,419.5,266.2,419.5,267.3z M420.6,267.3c0-0.6,0.5-1.1,1.1-1.1h22.1c0.6,0,1.1,0.5,1.1,1.1v14.2c0,0.6-0.5,1.1-1.1,1.1
	h-22.1c-0.6,0-1.1-0.5-1.1-1.1V267.3z M431.1,280.5h1.1v-1.1h-1.1V280.5z M433.3,280.5h1.1v-1.1h-1.1V280.5z M429,280.5h1.1v-1.1
	H429V280.5z M432.2,285.8h1.1v-1.1h-1.1V285.8z M428,279.5h-1.1v1.1h1.1V279.5z M433.3,272.6h-1.1v1.1h1.1V272.6z M435.4,280.5h1.1
	v-1.1h-1.1V280.5z M438.5,279.5h-1.1v1.1h1.1V279.5z M431.2,277.1l1.3,0.8c0.2,0.1,0.4,0.1,0.5,0l1.3-0.7c1.6-0.9,2.6-2.7,2.6-4.6
	v-2c0-0.2-0.1-0.3-0.2-0.4c-0.1-0.1-0.3-0.1-0.5-0.1c-1.1,0.3-2.2-0.1-2.9-1l-0.3-0.4c-0.2-0.2-0.5-0.3-0.8-0.1c0,0-0.1,0-0.1,0.1
	L432,269c-0.7,0.9-1.8,1.3-2.9,1c-0.3-0.1-0.6,0.1-0.6,0.4c0,0,0,0.1,0,0.1v2C428.5,274.4,429.5,276.1,431.2,277.1z M429.6,271.1
	c1.2,0.1,2.4-0.4,3.2-1.3c0.8,0.9,2,1.4,3.2,1.3v1.4c0,1.5-0.8,2.9-2.1,3.6l-1.1,0.6l-1.1-0.6c-1.3-0.7-2.1-2.1-2.1-3.6V271.1z
	 M505.4,127.6h-3.1l-3.5-13.1v-0.1c0-1.5-0.7-2.9-2-3.8v-2.8c0-1.1-0.9-2-2-2h-1.3c-1.1,0-2,0.9-2,2v2.8c-1.2,0.9-2,2.3-2,3.8v0.1
	l-3.5,13.1H483c-0.4,0-0.7,0.3-0.7,0.7s0.3,0.7,0.7,0.7h2.7l-2.2,8.2c-0.6,2.2,0.5,4.5,2.6,5.4l-0.5,2c-0.1,0.4,0.1,0.7,0.5,0.8h0
	c0.1,0,0.1,0,0.2,0c0.3,0,0.6-0.2,0.6-0.5l4.3-16h2.4v2c0,0.4,0.3,0.7,0.7,0.7s0.7-0.3,0.7-0.7v-2h2.4l4.3,16
	c0.1,0.3,0.3,0.5,0.6,0.5c0.1,0,0.1,0,0.2,0c0.4-0.1,0.6-0.5,0.5-0.8v0l-0.5-2c2.1-0.9,3.2-3.2,2.6-5.4l-2.2-8.2h2.7
	c0.4,0,0.7-0.3,0.7-0.7S505.7,127.6,505.4,127.6z M493.5,107.2h1.3c0.4,0,0.7,0.3,0.7,0.7v2.2c-0.1,0-0.3-0.1-0.4-0.1
	c-0.1,0-0.1,0-0.2,0c-0.5-0.1-1-0.1-1.5,0c-0.1,0-0.1,0-0.2,0c-0.1,0-0.3,0-0.4,0.1l0-2.2C492.9,107.5,493.2,107.2,493.5,107.2z
	 M492.5,111.6c0.2-0.1,0.4-0.2,0.6-0.3c0.3-0.1,0.6-0.2,0.9-0.2c0.1,0,0.2,0,0.2,0c0.6,0,1.2,0.2,1.7,0.4c1,0.6,1.6,1.7,1.6,2.9
	c0,0,0,0.1,0,0.1c0,1.5-1.1,2.8-2.6,3.1c-0.5,0.1-1,0.1-1.4,0c-1.5-0.3-2.5-1.6-2.6-3.1c0,0,0-0.1,0-0.1
	C490.9,113.3,491.5,112.2,492.5,111.6z M486.5,141.3c-1.4-0.7-2.1-2.3-1.7-3.8l2.3-8.6h2.7L486.5,141.3z M490.1,127.6h-2.7l2.9-10.7
	c0.1,0.1,0.1,0.2,0.2,0.3s0.1,0.2,0.2,0.3c0.1,0.1,0.2,0.2,0.3,0.3c0.1,0.1,0.1,0.2,0.2,0.2c0.1,0.1,0.2,0.2,0.4,0.3
	c0.1,0.1,0.2,0.1,0.2,0.2c0.1,0.1,0.3,0.1,0.4,0.2c0.1,0,0.2,0.1,0.3,0.1c0,0,0,0,0,0L490.1,127.6z M494.8,125.6
	c0-0.4-0.3-0.7-0.7-0.7s-0.7,0.3-0.7,0.7c0,0,0,0,0,0c0-0.4,0.3-0.7,0.7-0.7S494.8,125.3,494.8,125.6
	C494.8,125.6,494.8,125.6,494.8,125.6z M494.8,127.6v-0.1c0.4-0.1,0.7-0.4,0.9-0.7c0.2-0.3,0.4-0.7,0.4-1.2c0-1.1-0.9-2-2-2
	c-1.1,0-2,0.9-2,2c0,0.8,0.5,1.6,1.3,1.9v0.1h-2l2.3-8.6c0.1,0,0.2,0,0.4,0s0.2,0,0.4,0l2.3,8.6H494.8z M495.8,118.8
	C495.8,118.8,495.9,118.7,495.8,118.8c0.1-0.1,0.2-0.1,0.3-0.2c0.1-0.1,0.2-0.1,0.4-0.2c0.1-0.1,0.2-0.1,0.3-0.2
	c0.1-0.1,0.2-0.2,0.3-0.2c0.1-0.1,0.2-0.2,0.2-0.2c0.1-0.1,0.2-0.2,0.3-0.3c0.1-0.1,0.1-0.2,0.2-0.3s0.1-0.2,0.2-0.3l2.9,10.7h-2.7
	L495.8,118.8z M503.6,137.5c0.4,1.5-0.3,3.1-1.7,3.8l-3.3-12.4h2.7L503.6,137.5z M172.8,29.9c-0.8,0.7-1.5,1.4-2.2,2.2
	c-2.6,3-3.5,5.6-2.5,7.3c0.5,0.8,1.6,1.8,4.4,1.8c0.5,1.3,1.9,2,3.2,1.6c0.6-0.2,1.1-0.6,1.4-1.1c0.2-0.4,0.3-0.8,0.3-1.2
	c0.4-0.1,0.8-0.2,1.3-0.4c0.2,1,0.5,2,0.8,3c1.3,3.8,3.1,5.8,5.1,5.8c1,0,1.9-0.5,2.5-1.2c1.4-1.4,2.6-4.2,3.4-7.6
	c1,0.3,2,0.6,3,0.8c1,0.2,2.1,0.3,3.1,0.3c2.2,0,3.8-0.6,4.5-1.8c0.5-0.8,0.8-2.3-0.6-4.7c0.9-1.1,0.8-2.7-0.3-3.6
	c-0.5-0.4-1-0.6-1.7-0.6c-0.4,0-0.8,0.1-1.2,0.3c-0.3-0.3-0.6-0.6-1-0.9c0.8-0.7,1.5-1.4,2.2-2.2c2.6-3,3.5-5.6,2.5-7.3
	c-0.5-0.8-1.3-1.4-2.3-1.6c-2-0.5-4.9-0.2-8.3,0.9c-0.2-1-0.5-2-0.8-3c-1.3-3.8-3.1-5.8-5.1-5.8h0c-1,0-2.4,0.5-3.8,2.9
	c-1.3-0.2-2.6,0.6-2.9,1.8c-0.3,1.1,0.2,2.2,1.1,2.8c-0.1,0.4-0.2,0.9-0.3,1.3c-1-0.3-2-0.6-3-0.8c-3.9-0.8-6.6-0.2-7.6,1.5
	c-0.5,0.9-0.5,1.9-0.2,2.8C168.4,25.1,170.2,27.5,172.8,29.9z M197.8,32.1c0.2-0.2,0.5-0.3,0.8-0.3c0.7,0,1.3,0.6,1.3,1.3
	c0,0.4-0.2,0.8-0.5,1c-0.6,0.4-1.4,0.3-1.8-0.3c-0.2-0.2-0.2-0.5-0.2-0.7C197.4,32.7,197.6,32.3,197.8,32.1z M196.7,19.8
	c0.6,0,1.3,0.1,1.9,0.2c0.6,0.1,1.2,0.5,1.5,1c0.7,1.2-0.2,3.3-2.4,5.9c-0.7,0.8-1.4,1.5-2.2,2.2c-1.3-1.1-2.7-2.1-4.1-3.1
	c-0.1-1.7-0.3-3.4-0.7-5.1C192.8,20.2,194.7,19.8,196.7,19.8z M191.6,27.5c1.1,0.8,2.1,1.5,3,2.3c-0.9,0.8-1.9,1.6-3,2.3
	c0-0.8,0.1-1.5,0.1-2.3C191.7,29.1,191.6,28.3,191.6,27.5z M191.5,33.8c1.4-1,2.8-2,4.1-3.1c0.3,0.3,0.7,0.6,1,0.9
	c-0.1,0.1-0.1,0.2-0.2,0.3c0,0,0,0,0,0.1c-0.1,0.1-0.1,0.3-0.1,0.4c0,0,0,0.1,0,0.1c-0.3,1.4,0.6,2.7,2,3c0.2,0,0.4,0.1,0.5,0.1
	c0.1,0,0.3,0,0.4,0c0,0,0.1,0,0.1,0c0.1,0,0.2,0,0.3-0.1c0,0,0,0,0,0c0.8,1.4,1,2.6,0.5,3.3c-0.7,1.2-3,1.5-6.3,0.9
	c-1-0.2-2-0.5-3-0.8C191.2,37.2,191.4,35.5,191.5,33.8z M179.2,34.7c0.7,0.4,1.3,0.8,2,1.2c0.7,0.4,1.4,0.8,2.1,1.1
	c-1.2,0.5-2.4,1-3.5,1.4C179.5,37.3,179.3,36,179.2,34.7z M186.3,46.9L186.3,46.9c-0.4,0.5-1,0.8-1.6,0.8c-1.4,0-2.8-1.8-3.9-5
	c-0.3-1-0.6-2-0.8-3c1.6-0.6,3.2-1.2,4.7-2c1.5,0.7,3.1,1.4,4.7,2C188.7,43,187.6,45.6,186.3,46.9z M189.7,38.5
	c-1.1-0.4-2.3-0.9-3.5-1.4c0.7-0.4,1.4-0.7,2.1-1.1s1.3-0.8,2-1.2C190,36.1,189.9,37.3,189.7,38.5z M190.2,25
	c-0.7-0.4-1.3-0.8-2-1.2c-0.7-0.4-1.4-0.8-2.1-1.1h0c1.2-0.6,2.4-1,3.5-1.4C189.9,22.5,190,23.7,190.2,25z M182.9,15.4
	C182.8,15.4,182.8,15.4,182.9,15.4c-0.1-0.2-0.1-0.4-0.2-0.5c-0.1-0.1-0.2-0.2-0.2-0.4c0,0-0.1-0.1-0.1-0.1
	c-0.1-0.1-0.1-0.1-0.2-0.2c0,0,0,0,0,0c0.8-1.4,1.8-2.1,2.6-2.1h0c1.4,0,2.8,1.8,3.9,5c0.3,1,0.6,2,0.8,3c-1.6,0.6-3.2,1.2-4.7,2
	c-1.5-0.7-3.1-1.4-4.7-2c0.1-0.4,0.2-0.9,0.3-1.3h0.1c0,0,0,0,0.1,0c0,0,0.1,0,0.1,0c0,0,0.1,0,0.1,0c0.1,0,0.1,0,0.2,0
	c0,0,0.1,0,0.1,0c0.1,0,0.1,0,0.2-0.1c0,0,0.1,0,0.1,0c0.1,0,0.2-0.1,0.3-0.2c0.1-0.1,0.3-0.2,0.4-0.3c0,0,0,0,0,0
	C182.9,17.4,183.1,16.4,182.9,15.4z M183.2,22.7c-0.7,0.4-1.4,0.7-2.1,1.1c-0.7,0.4-1.3,0.8-2,1.2c0.1-1.3,0.3-2.6,0.5-3.8
	C180.8,21.7,182,22.1,183.2,22.7z M179.8,15.1c0.4-0.2,0.8-0.2,1.2-0.1c0.6,0.3,0.9,1,0.7,1.7c-0.1,0.2-0.3,0.5-0.5,0.6
	c-0.3,0.2-0.7,0.2-1.1,0.1c-0.3-0.1-0.5-0.3-0.7-0.6C179,16.2,179.2,15.4,179.8,15.1z M179,26.6c0.9-0.6,1.8-1.2,2.8-1.7
	c1-0.6,1.9-1.1,2.9-1.5c1,0.5,1.9,1,2.9,1.5c1,0.6,1.9,1.1,2.8,1.7c0.1,1.1,0.1,2.1,0.1,3.2c0,1.1,0,2.2-0.1,3.2
	c-0.9,0.6-1.8,1.2-2.8,1.7c-1,0.5-1.9,1.1-2.9,1.5c-1-0.5-1.9-1-2.9-1.5c-1-0.6-1.9-1.1-2.8-1.7c-0.1-1.1-0.1-2.1-0.1-3.2
	C178.9,28.8,179,27.7,179,26.6z M176,41.1c-0.4,0.6-1.1,0.8-1.7,0.5c-0.4-0.2-0.6-0.6-0.6-1c0-0.3,0-0.5,0.2-0.8
	c0.1-0.1,0.1-0.2,0.2-0.2c0,0,0,0,0.1-0.1c0.1-0.1,0.1-0.1,0.2-0.1c0,0,0,0,0.1,0c0.2-0.1,0.4-0.2,0.6-0.2h0.1c0.1,0,0.2,0,0.2,0
	c0,0,0.1,0,0.1,0c0.5,0.1,0.8,0.5,0.9,1C176.2,40.5,176.2,40.8,176,41.1z M177.2,39.3L177.2,39.3c-0.1-0.1-0.1-0.2-0.2-0.3
	c0,0,0,0,0,0c-0.1-0.1-0.2-0.2-0.3-0.3c0,0-0.1-0.1-0.1-0.1c-0.1-0.1-0.3-0.2-0.4-0.3c-0.1-0.1-0.3-0.2-0.5-0.2c0,0,0,0-0.1,0
	c-0.9-0.3-1.9,0-2.6,0.7c0,0,0,0,0,0c-0.1,0.1-0.2,0.3-0.3,0.4c-0.1,0.1-0.1,0.3-0.2,0.4c0,0,0,0.1,0,0.1c0,0.1-0.1,0.2-0.1,0.3
	c0,0,0,0,0,0c-1.6,0-2.7-0.4-3.2-1.2c-0.7-1.2,0.2-3.3,2.4-5.9c0.7-0.8,1.4-1.5,2.2-2.2c1.3,1.1,2.6,2.1,4.1,3.1
	c0.1,1.7,0.3,3.4,0.7,5.1C178,39,177.6,39.2,177.2,39.3z M177.7,32.2c-1.1-0.8-2.1-1.6-3-2.3c0.9-0.8,1.9-1.6,3-2.3
	c0,0.8-0.1,1.6-0.1,2.3S177.7,31.5,177.7,32.2z M169.2,21c0.5-0.8,1.6-1.2,3.3-1.2c1,0,2,0.1,3,0.3c1,0.2,2,0.5,3,0.8
	c-0.3,1.7-0.5,3.4-0.7,5.1c-1.4,1-2.8,2-4.1,3.1c-2.5-2.3-4.1-4.5-4.6-6.2C168.9,22.2,169,21.5,169.2,21z M494.2,97.3
	c-11.2,0-20.9,6.5-25.5,15.9L352.2,55.4c0.8-1.6,1.4-3.4,1.9-5.2c2.1-8.1,0.9-16.5-3.3-23.7c-4.2-7.2-11-12.3-19.1-14.4
	c-8.1-2.1-16.5-0.9-23.7,3.3c-7.2,4.2-12.3,11-14.4,19.1c-0.3,1.2-0.5,2.4-0.7,3.7l-80.5-7.9c0.1-5-1.2-10-3.8-14.4
	c-3.8-6.4-9.8-10.9-17-12.8c-14.8-3.9-30,5.1-33.9,19.9c-1.9,7.2-0.8,14.6,2.9,21c0.6,1,1.2,1.9,1.9,2.8L102,103.5
	c-5.7-6.8-13.5-11.9-22.7-14.3c-23.8-6.2-48.2,8.1-54.4,31.9c-6.2,23.8,8.1,48.2,31.9,54.4c3.7,1,7.5,1.4,11.2,1.4
	c12,0,23.4-4.9,31.7-13.3l98.5,96.9c-8.3,9-13.3,20.9-13.3,34c0,27.7,22.5,50.2,50.2,50.2s50.2-22.5,50.2-50.2c0-0.8,0-1.6-0.1-2.4
	l119.1-12.5c0.7,15,13.1,27,28.3,27c15.6,0,28.4-12.7,28.4-28.4c0-11.7-7.1-21.7-17.2-26.1l42.1-99.5c2.6,0.8,5.3,1.2,8.1,1.2
	c15.6,0,28.4-12.7,28.4-28.4C522.5,110,509.8,97.3,494.2,97.3z M467.7,115.4c-1.2,3.2-1.9,6.6-1.9,10.2c0,1.6,0.1,3.1,0.4,4.7
	L370,143.6c-3.5-27.6-24.5-49.7-51.4-55.1l1.9-15.1c1.1,0.1,2.2,0.2,3.3,0.2c11.3,0,21.8-6.2,27.3-16L467.7,115.4z M368.1,151.8
	c0,34.3-27.9,62.2-62.2,62.2s-62.2-27.9-62.2-62.2c0-34.3,27.9-62.2,62.2-62.2S368.1,117.5,368.1,151.8z M295.9,35.1
	c1.9-7.4,6.7-13.7,13.3-17.6c4.5-2.6,9.5-4,14.5-4c2.4,0,4.9,0.3,7.3,0.9c7.4,1.9,13.7,6.7,17.6,13.3c3.9,6.6,5,14.4,3,21.8
	c-4,15.4-19.7,24.6-35.1,20.6C301.2,66.2,291.9,50.4,295.9,35.1z M212.3,32.7l80.4,7.9c-0.8,14.5,8.7,28.2,23.3,32
	c0.7,0.2,1.4,0.3,2.1,0.5l-1.9,15.1c-3.3-0.5-6.7-0.8-10.2-0.8c-16.5,0-31.6,6.2-43,16.4l-56.8-56.3c2.5-3.1,4.3-6.6,5.3-10.5
	C211.9,35.5,212.1,34.1,212.3,32.7z M160.1,23.5c3-11.4,13.3-19,24.5-19c2.1,0,4.2,0.3,6.4,0.8c6.6,1.7,12,5.9,15.5,11.7
	c3.4,5.8,4.4,12.7,2.7,19.2c-1.7,6.6-5.9,12-11.7,15.5c-5.8,3.4-12.7,4.4-19.2,2.7c-6.6-1.7-12-5.9-15.5-11.7
	C159.4,36.9,158.4,30.1,160.1,23.5z M164.2,48.6c3.6,3.9,8.2,6.8,13.5,8.1c2.3,0.6,4.7,0.9,7,0.9c4.9,0,9.7-1.3,14-3.8
	c2.2-1.3,4.1-2.8,5.9-4.6l56.6,56.1c-10.9,10.5-18.1,24.7-19.5,40.6l-129.1-10.4c0.8-11-2.6-21.6-9-30.1L164.2,48.6z M57.4,173.2
	c-22.5-5.9-36-28.9-30.2-51.4c4.9-19,22.1-31.5,40.8-31.5c3.5,0,7.1,0.4,10.6,1.4c22.5,5.9,36,28.9,30.2,51.4
	C103,165.5,79.9,179,57.4,173.2z M101.4,161.9c4.5-5.1,8-11.3,9.8-18.3c0.5-1.9,0.8-3.8,1.1-5.7l129.2,10.4
	c-0.1,1.2-0.1,2.3-0.1,3.5c0,25.9,15.4,48.3,37.5,58.6L258,250c-6.9-3.5-14.7-5.5-22.9-5.5c-13.7,0-26.1,5.5-35.2,14.4L101.4,161.9z
	 M235.1,342.5c-26.4,0-47.8-21.4-47.8-47.8s21.4-47.8,47.8-47.8c26.4,0,47.8,21.4,47.8,47.8S261.5,342.5,235.1,342.5z M404.4,277.3
	l-119.3,12.5c-1.6-16.6-11.2-30.8-25-38.7l20.9-39.8c7.7,3.2,16.1,5,24.9,5c18,0,34.3-7.4,46-19.3l61.7,60.3
	C408.2,262.4,404.7,269.5,404.4,277.3z M458.7,278.4c0,14.3-11.6,25.9-25.9,25.9s-26-11.6-26-25.9s11.6-25.9,26-25.9
	S458.7,264.1,458.7,278.4z M441.7,251.5c-2.8-0.9-5.8-1.4-8.9-1.4c-6.5,0-12.4,2.2-17.2,5.8l-61.9-60.5
	c10.5-11.5,16.9-26.8,16.9-43.5c0-2-0.1-3.9-0.3-5.8l96.4-13.3c2.3,8.8,8.7,16,17.1,19.3L441.7,251.5z M494.2,151.6
	c-14.3,0-25.9-11.6-25.9-25.9s11.6-25.9,25.9-25.9s25.9,11.6,25.9,25.9S508.5,151.6,494.2,151.6z M54.7,115.4h-2v2h2V115.4z
	 M88.8,107.4H47.3c-0.5,0-1,0.4-1,1v47.9c0,0.5,0.4,1,1,1h41.5c0.5,0,1-0.4,1-1v-47.9C89.8,107.9,89.4,107.4,88.8,107.4z
	 M87.8,155.4H48.3v-14h39.6V155.4z M87.8,139.4H48.3v-14h39.6V139.4z M87.8,123.4H48.3v-14h39.6V123.4z M75.4,115.4H59.1v2h16.4
	V115.4z M54.7,147.4h-2v2h2V147.4z M75.4,147.4H59.1v2h16.4V147.4z M54.7,131.4h-2v2h2V131.4z M75.4,131.4H59.1v2h16.4V131.4z
	 M266.5,287.6h-7.3l-0.3-0.8c-0.4-1.2-0.9-2.3-1.4-3.4l-0.4-0.8l5.2-5.2c0.4-0.4,0.4-1.1,0-1.5l-8.3-8.3c-0.4-0.4-1.1-0.4-1.5,0
	l-5.2,5.2l-0.8-0.4c-1.1-0.5-2.2-1-3.4-1.4l-0.8-0.3v-7.4c0-0.6-0.5-1.1-1.1-1.1h-11.8c-0.6,0-1.1,0.5-1.1,1.1v7.6l-0.8,0.3
	c-1.1,0.4-2.2,0.8-3.2,1.4l-0.8,0.4l-5.4-5.4c-0.4-0.4-1.1-0.4-1.6,0l-8.3,8.3c-0.4,0.4-0.4,1.1,0,1.6l5.5,5.5l-0.4,0.8
	c-0.5,1-1,2.1-1.3,3.1l-0.3,0.8h-7.8c-0.6,0-1.1,0.5-1.1,1.1v11.8c0,0.6,0.5,1.1,1.1,1.1h7.8l0.3,0.8c0.4,1.1,0.8,2.2,1.3,3.2
	l0.4,0.8l-5.4,5.5c-0.4,0.4-0.4,1.1,0,1.6l8.3,8.3c0.4,0.4,1.1,0.4,1.5,0l5.4-5.4l0.8,0.4c1,0.5,2.1,1,3.2,1.4l0.8,0.3v7.6
	c0,0.6,0.5,1.1,1.1,1.1H241c0.6,0,1.1-0.5,1.1-1.1v-7.5l0.8-0.3c1.2-0.4,2.3-0.8,3.4-1.4l0.8-0.4l5.2,5.2c0.4,0.4,1.1,0.4,1.5,0
	l8.3-8.3c0.4-0.4,0.4-1.1,0-1.6l-5.2-5.2l0.4-0.8c0.6-1.1,1-2.3,1.4-3.4l0.3-0.8h7.4c0.6,0,1.1-0.5,1.1-1.1v-11.8
	C267.6,288.1,267.1,287.7,266.5,287.6z M265.4,299.4h-7.1c-0.5,0-1,0.3-1.1,0.8c-0.5,2.1-1.3,4.1-2.4,6c-0.3,0.4-0.2,1,0.2,1.4l5,5
	l-6.8,6.7l-5.1-5.1c-0.4-0.4-0.9-0.4-1.3-0.2c-1.9,1.1-3.9,1.9-6,2.4c-0.5,0.1-0.9,0.6-0.8,1.1l0,7.3h-9.5v-7.4c0-0.6-0.3-1-0.8-1.1
	c-2.1-0.5-4-1.4-5.8-2.4c-0.4-0.3-1-0.2-1.3,0.2l-5.2,5.2l-6.8-6.7l5.2-5.3c0.4-0.4,0.4-0.9,0.2-1.3c-1.1-1.8-1.9-3.7-2.4-5.8
	c-0.1-0.5-0.6-0.9-1.1-0.8l-7.3,0v-9.6h7.5c0.6,0,1-0.3,1.1-0.8c0.5-2,1.3-3.9,2.4-5.7c0.2-0.4,0.1-1-0.3-1.3l-0.1-0.1l-5.2-5.3
	l6.8-6.7l5.2,5.2c0.4,0.4,0.9,0.4,1.3,0.2c1.8-1.1,3.8-1.9,5.8-2.4c0.5-0.1,0.8-0.6,0.8-1.1l0-7.4h9.6v7.3c0,0.5,0.3,1,0.8,1.1
	c2.1,0.5,4.1,1.3,6,2.4c0.4,0.2,1,0.2,1.3-0.2l5.1-5.1l6.8,6.7l-5.1,5.1c-0.4,0.4-0.4,0.9-0.2,1.3c1.1,1.9,1.9,3.9,2.4,6
	c0.1,0.5,0.6,0.8,1.1,0.8l7.2,0V299.4z M235.1,282.9c-6.5,0-11.7,5.3-11.7,11.7c0,6.5,5.3,11.7,11.7,11.7s11.7-5.3,11.7-11.7
	C246.8,288.2,241.6,283,235.1,282.9z M236.3,304.1v0.1h-1.2c-5.3,0-9.5-4.3-9.5-9.5s4.3-9.5,9.5-9.5s9.5,4.3,9.5,9.5
	C244.6,299.5,241,303.5,236.3,304.1z"/>
</svg>
