<?xml version="1.0" encoding="utf-8"?>
<!-- Generator: Adobe Illustrator 19.0.0, SVG Export Plug-In . SVG Version: 6.00 Build 0)  -->
<svg version="1.1" id="图层_1" xmlns="http://www.w3.org/2000/svg" xmlns:xlink="http://www.w3.org/1999/xlink" x="0px" y="0px"
	 viewBox="0 0 582 420" style="enable-background:new 0 0 582 420;" xml:space="preserve">
<style type="text/css">
	.st0{fill:url(#XMLID_76_);}
	.st1{fill:url(#XMLID_78_);}
</style>
<g id="XMLID_1_">
	<linearGradient id="XMLID_76_" gradientUnits="userSpaceOnUse" x1="134.1323" y1="401.4424" x2="518.1598" y2="17.4149">
		<stop  offset="0" style="stop-color:#B21E23"/>
		<stop  offset="1" style="stop-color:#D45D26"/>
	</linearGradient>
	<path id="XMLID_2_" class="st0" d="M512.5,58.1h16.3c0.6,0,1.2-0.5,1.2-1.2c0-0.6-0.5-1.2-1.2-1.2h-16.3c-0.6,0-1.2,0.5-1.2,1.2
		C511.3,57.6,511.8,58.1,512.5,58.1z M507.8,58.1h1.2c0.6,0,1.2-0.5,1.2-1.2c0-0.6-0.5-1.2-1.2-1.2h-1.2c-0.6,0-1.2,0.5-1.2,1.2
		C506.6,57.6,507.2,58.1,507.8,58.1z M491.5,62.8h-16.3c-0.6,0-1.2,0.5-1.2,1.2s0.5,1.2,1.2,1.2h16.3c0.6,0,1.2-0.5,1.2-1.2
		S492.1,62.8,491.5,62.8z M512.5,65.1h16.3c0.6,0,1.2-0.5,1.2-1.2s-0.5-1.2-1.2-1.2h-16.3c-0.6,0-1.2,0.5-1.2,1.2
		S511.8,65.1,512.5,65.1z M512.5,72.1h16.3c0.6,0,1.2-0.5,1.2-1.2c0-0.6-0.5-1.2-1.2-1.2h-16.3c-0.6,0-1.2,0.5-1.2,1.2
		C511.3,71.6,511.8,72.1,512.5,72.1z M507.8,72.1h1.2c0.6,0,1.2-0.5,1.2-1.2c0-0.6-0.5-1.2-1.2-1.2h-1.2c-0.6,0-1.2,0.5-1.2,1.2
		C506.6,71.6,507.2,72.1,507.8,72.1z M507.8,65.1h1.2c0.6,0,1.2-0.5,1.2-1.2s-0.5-1.2-1.2-1.2h-1.2c-0.6,0-1.2,0.5-1.2,1.2
		S507.2,65.1,507.8,65.1z M531.7,191.1l-46.3,26.7v52.6l-43,24.8v-14.3l-14.7-8.5l-13.7,7.9l-29.7-17.2c0.2-0.5,0.3-1.1,0.3-1.7
		c0-3.1-2.5-5.6-5.6-5.6c-1.6,0-3.1,0.7-4.2,1.9l-25.2-14.5v-66.4l-57.2-33v-37c2.6-0.5,4.5-2.8,4.5-5.5s-1.9-5-4.5-5.5V72.9
		l26.4-15.2V25.9L291.3,10l-27.5,15.9v31.8l26.4,15.2v22.7c-2.6,0.5-4.5,2.8-4.5,5.5c0,0.8,0.2,1.6,0.5,2.4l-41.4,23.9
		c-0.6-0.5-1.3-0.8-2.2-0.8s-1.6,0.3-2.2,0.8l-34.1-19.7V92.3l-14.7-8.5l-13.4,7.7L156.6,79c0-0.2,0.1-0.4,0.1-0.6
		c0-1.9-1.5-3.4-3.4-3.4c-1.9,0-3.4,1.5-3.4,3.4c0,1.9,1.5,3.4,3.4,3.4c0.8,0,1.6-0.3,2.2-0.8L177,93.4v15.8l14.7,8.5l13.7-7.9
		l33.9,19.6c0,0.2-0.1,0.4-0.1,0.6c0,1.9,1.5,3.4,3.4,3.4c1.9,0,3.4-1.5,3.4-3.4c0-0.2,0-0.4-0.1-0.6l41.6-24
		c0.7,0.7,1.6,1.1,2.6,1.3v37l-57.2,33v66.1l-25.8,14.9c-1-1.1-2.5-1.9-4.2-1.9c-3.1,0-5.6,2.5-5.6,5.6c0,0.6,0.1,1.2,0.3,1.7
		l-29.7,17.2l-13.7-7.9l-14.7,8.5v14.3l-43-24.8v-52.6l-46.3-26.7L4,217.9v53.4L50.3,298l44.8-25.9l44.4,25.7v15.6l14.7,8.5
		l13.5-7.8l34.2,19.7v15.9l14.7,8.5l12.1-7l35.1,20.3v30.2l27.5,15.9l27.5-15.9v-30.6l34.5-19.9l12.1,7l14.7-8.5v-15.9l34.2-19.7
		l13.5,7.8l14.7-8.5v-15.6l44.4-25.7l44.8,25.9l46.3-26.7v-53.4L531.7,191.1z M190.6,114.5l-11.3-6.5v-13l11.3,6.5V114.5z M180.4,93
		l11.3-6.5L203,93l-11.3,6.5L180.4,93z M204.1,106.5l-4.6-2.7c-0.5-0.3-1.2-0.1-1.5,0.4s-0.1,1.2,0.4,1.5l4.8,2.8l-10.3,6v-13
		l11.3-6.5V106.5z M49.1,294.8L6.3,270v-49.5l42.9,24.8V294.8z M7.4,218.5l42.9-24.8l42.9,24.8l-42.9,24.8L7.4,218.5z M94.3,269.1
		l-20.3-11.7l-1.1,2l20,11.5l-41.4,23.9v-49.5l42.9-24.8V269.1z M153,318.7l-11.3-6.5v-13l9.8,5.7l1.5,0.9V318.7z M153,303l-0.3-0.2
		l-10.9-6.3v-13L153,290V303z M142.9,281.5l11.3-6.5l11.3,6.5l-11.3,6.5L142.9,281.5z M155.3,318.7V307l10.2,5.9L155.3,318.7z
		 M166.6,310.9l-10.2-5.9l10.2-5.9V310.9z M166.6,296.5l-11.3,6.5v-13l2.5-1.5l0.1,0.2l8.6-5V296.5z M379,258.1
		c1.9,0,3.4,1.5,3.4,3.4s-1.5,3.4-3.4,3.4s-3.4-1.5-3.4-3.4S377.1,258.1,379,258.1z M346,243.6l-53.6,30.9v-63.5l55-31.7v62.5
		l-29.8-17.2l-1.1,2L346,243.6z M316.6,56.4l-24.1,13.9V42.4l24.1-13.9V56.4z M291.3,12.6l24.1,13.9l-24.1,13.9l-24.1-13.9
		L291.3,12.6z M266.1,56.4V28.5l24.1,13.9v27.9L266.1,56.4z M287.9,101.1c0-1.9,1.5-3.4,3.4-3.4c1.9,0,3.4,1.5,3.4,3.4
		s-1.5,3.4-3.4,3.4C289.4,104.5,287.9,103,287.9,101.1z M290.2,146.3v38.2h2.3v-38.2l53.8,31.1l-55,31.7l-55-31.7L290.2,146.3z
		 M235.2,179.3l55,31.7v63.5l-53.8-31.1l29.1-16.8l-1.1-2l-29.1,16.8V179.3z M203,258.1c1.9,0,3.4,1.5,3.4,3.4
		c0,1.9-1.5,3.4-3.4,3.4s-3.4-1.5-3.4-3.4C199.6,259.6,201.1,258.1,203,258.1z M215.4,354.9l-11.3-6.5v-13l11.3,6.5V354.9z
		 M208.3,335.2l0.1-0.2l-3-1.7l11.1-6.4l11.3,6.5l-11.3,6.5L208.3,335.2z M228.9,348.4l-0.3,0.2l-5.5-3.1l-1.1,2l4.3,2.5l-8.8,5.1
		v-13l11.3-6.5V348.4z M290.2,414.3l-24.1-13.9v-27.6l0.7,0.4l0.1-0.2l23.4,13.5V414.3z M267.2,370.5l24.1-13.9l24,13.9l-1.2,0.7
		l0,0.1l-22.9,13.2L267.2,370.5z M316.6,400.3l-24.1,13.9v-27.9l24.1-13.9V400.3z M364.3,354.9l-8.8-5.1l4.3-2.5l-1.1-2l-5.5,3.1
		l-0.3-0.2v-13l11.3,6.5V354.9z M354.2,333.4l11.3-6.5l11.1,6.4l-3,1.7l0.1,0.2l-8.2,4.7L354.2,333.4z M377.9,348.4l-11.3,6.5v-13
		l11.3-6.5V348.4z M413.2,312.1L378.8,332l-13.3-7.7l-14.7,8.5v16.9l0.3,0.2l-33.5,19.3L291.3,354l-26.6,15.4l-33.7-19.5l0.3-0.2
		v-16.9l-14.7-8.5l-13.3,7.7l-34.4-19.9v-29.7l29.9-17.3c1,1.2,2.5,2,4.2,2c3.1,0,5.6-2.5,5.6-5.6c0-0.6-0.1-1.3-0.3-1.8l25.8-14.9
		l56.7,32.7l0.6,0.3l56.9-32.9l25.4,14.7c-0.2,0.6-0.3,1.2-0.3,1.8c0,3.1,2.5,5.6,5.6,5.6c1.7,0,3.2-0.8,4.2-2l29.9,17.3V312.1z
		 M415.4,299.1l10.2,5.9l-10.2,5.9V299.1z M426.7,318.6l-10.2-5.9l10.2-5.9V318.6z M426.7,303l-11.3-6.5v-12.8l8.6,5l0.1-0.2
		l2.5,1.5V303z M416.5,281.5l11.3-6.5l11.3,6.5l-11.3,6.5L416.5,281.5z M440.2,312.1l-11.3,6.5v-13l11.3-6.5V312.1z M440.2,296.5
		L429,303v-13l11.3-6.5V296.5z M530.6,294.7l-41.4-23.9l20-11.5l-1.1-2l-20.3,11.7v-48.6l42.9,24.8V294.7z M488.8,218.5l42.9-24.8
		l42.9,24.8l-42.9,24.8L488.8,218.5z M575.7,270l-42.9,24.8v-49.5l42.9-24.8V270z M491.5,55.8h-16.3c-0.6,0-1.2,0.5-1.2,1.2
		c0,0.6,0.5,1.2,1.2,1.2h16.3c0.6,0,1.2-0.5,1.2-1.2C492.7,56.3,492.1,55.8,491.5,55.8z M471.7,69.8h-1.2c-0.6,0-1.2,0.5-1.2,1.2
		c0,0.6,0.5,1.2,1.2,1.2h1.2c0.6,0,1.2-0.5,1.2-1.2C472.8,70.3,472.3,69.8,471.7,69.8z M471.7,55.8h-1.2c-0.6,0-1.2,0.5-1.2,1.2
		c0,0.6,0.5,1.2,1.2,1.2h1.2c0.6,0,1.2-0.5,1.2-1.2C472.8,56.3,472.3,55.8,471.7,55.8z M296.3,105.2l41.8,24.2
		c0,0.2-0.1,0.4-0.1,0.6c0,1.9,1.5,3.4,3.4,3.4c1.9,0,3.4-1.5,3.4-3.4c0-0.2,0-0.4-0.1-0.6l33.9-19.6l13.7,7.9l14.7-8.5V93.4
		L428.5,81c0.6,0.5,1.3,0.8,2.2,0.8c1.9,0,3.4-1.5,3.4-3.4c0-1.9-1.5-3.4-3.4-3.4c-1.9,0-3.4,1.5-3.4,3.4c0,0.2,0,0.4,0.1,0.6
		l-21.7,12.5l-13.4-7.7l-14.7,8.5v15.4l-34.1,19.7c-0.6-0.5-1.3-0.8-2.2-0.8s-1.6,0.3-2.2,0.8l-41.8-24.2L296.3,105.2z M404.7,108
		l-11.3,6.5v-13l11.3-6.5V108z M392.3,86.5l11.3,6.5l-11.3,6.5L381,93L392.3,86.5z M379.9,94.9l11.3,6.5v13l-10.3-6l4.8-2.8
		c0.5-0.3,0.7-1,0.4-1.5c-0.3-0.5-1-0.7-1.5-0.4l-4.6,2.7V94.9z M471.7,62.8h-1.2c-0.6,0-1.2,0.5-1.2,1.2s0.5,1.2,1.2,1.2h1.2
		c0.6,0,1.2-0.5,1.2-1.2S472.3,62.8,471.7,62.8z M465.8,75.6h30.3c0.6,0,1.2-0.5,1.2-1.2v-21c0-0.6-0.5-1.2-1.2-1.2h-14v-4.7h14.2
		c0.6,1.8,2.6,2.8,4.4,2.1c1-0.3,1.8-1.1,2.1-2.1h14.2v4.7h-14c-0.6,0-1.2,0.5-1.2,1.2v21c0,0.6,0.5,1.2,1.2,1.2h30.3
		c0.6,0,1.2-0.5,1.2-1.2v-21c0-0.6-0.5-1.2-1.2-1.2h-14v-5.8c0-0.6-0.5-1.2-1.2-1.2h-15.4c-0.4-1-1.1-1.8-2.1-2.1v-4.9
		c9-0.6,15.8-8.5,15.1-17.4c-0.6-9-8.5-15.8-17.4-15.1c-9,0.6-15.8,8.5-15.1,17.4c0.6,8.1,7,14.5,15.1,15.1v4.9
		c-1,0.4-1.8,1.1-2.1,2.1H481c-0.6,0-1.2,0.5-1.2,1.2v5.8h-14c-0.6,0-1.2,0.5-1.2,1.2v21C464.7,75.1,465.2,75.6,465.8,75.6z
		 M532.3,73.3h-28v-4.7h28V73.3z M532.3,66.3h-28v-4.7h28V66.3z M532.3,54.7v4.7h-28v-4.7H532.3z M485.7,22c0-7.7,6.3-14,14-14
		c7.7,0,14,6.3,14,14c0,7.7-6.3,14-14,14C491.9,36,485.7,29.7,485.7,22z M499.7,45.3c0.6,0,1.2,0.5,1.2,1.2c0,0.6-0.5,1.2-1.2,1.2
		c-0.6,0-1.2-0.5-1.2-1.2C498.5,45.8,499,45.3,499.7,45.3z M467,54.7h28v4.7h-28V54.7z M467,61.6h28v4.7h-28V61.6z M467,68.6h28v4.7
		h-28V68.6z M505,21.4c0.3-0.5,0.5-1.1,0.5-1.7c0-1.9-1.6-3.5-3.5-3.5V15c0-0.6-0.5-1.2-1.2-1.2c-0.6,0-1.2,0.5-1.2,1.2v1.2h-1.2V15
		c0-0.6-0.5-1.2-1.2-1.2c-0.6,0-1.2,0.5-1.2,1.2v1.2H495c-0.6,0-1.2,0.5-1.2,1.2c0,0.6,0.5,1.2,1.2,1.2h1.2v7H495
		c-0.6,0-1.2,0.5-1.2,1.2c0,0.6,0.5,1.2,1.2,1.2h1.2V29c0,0.6,0.5,1.2,1.2,1.2c0.6,0,1.2-0.5,1.2-1.2v-1.2h1.2V29
		c0,0.6,0.5,1.2,1.2,1.2c0.6,0,1.2-0.5,1.2-1.2v-1.2h1.2c1.9,0,3.5-1.6,3.5-3.5C506.7,23.2,506,22,505,21.4z M498.5,18.5h3.5
		c0.6,0,1.2,0.5,1.2,1.2s-0.5,1.2-1.2,1.2h-3.5V18.5z M503.1,25.5h-4.7v-2.3h4.7c0.6,0,1.2,0.5,1.2,1.2S503.8,25.5,503.1,25.5z
		 M511.3,22c0-6.4-5.2-11.7-11.6-11.7c-1.9,0-3.7,0.4-5.3,1.3c-5.7,2.9-8,9.9-5.1,15.7c0.2,0.4,0.4,0.8,0.7,1.2
		c3.6,5.4,10.8,6.8,16.2,3.2C509.4,29.5,511.3,25.9,511.3,22z M491.9,27.2c-2.1-3.1-2.1-7.2,0-10.4c0.9-1.3,2.1-2.4,3.5-3.1
		c4.6-2.4,10.2-0.5,12.6,4c2.4,4.6,0.5,10.2-4,12.6C499.7,32.5,494.5,31.1,491.9,27.2z M491.5,69.8h-16.3c-0.6,0-1.2,0.5-1.2,1.2
		c0,0.6,0.5,1.2,1.2,1.2h16.3c0.6,0,1.2-0.5,1.2-1.2C492.7,70.3,492.1,69.8,491.5,69.8z"/>
	<linearGradient id="XMLID_78_" gradientUnits="userSpaceOnUse" x1="60.8925" y1="66.843" x2="119.6838" y2="8.0517">
		<stop  offset="0" style="stop-color:#B21E23"/>
		<stop  offset="1" style="stop-color:#D45D26"/>
	</linearGradient>
	<path id="XMLID_6_" class="st1" d="M90.3,18.8c-10.3,0-18.7,8.4-18.7,18.7S80,56.1,90.3,56.1c10.3,0,18.7-8.4,18.7-18.7
		C108.9,27.1,100.6,18.8,90.3,18.8z M90.3,53.8c-9,0-16.3-7.3-16.3-16.3s7.3-16.3,16.3-16.3c9,0,16.3,7.3,16.3,16.3
		C106.6,46.5,99.3,53.8,90.3,53.8z M75.6,8.3C75.6,8.3,75.6,8.3,75.6,8.3L75.6,8.3c10.5-5.3,23-4.5,32.7,2c-1.5,3.6,0.1,7.7,3.7,9.2
		c3.6,1.5,7.7-0.1,9.2-3.7c1.5-3.6-0.1-7.7-3.7-9.2c-2.6-1.1-5.7-0.5-7.7,1.5c-0.1,0.1-0.1,0.2-0.2,0.2c-10.4-6.9-23.8-7.7-35-2.1
		c-0.6,0.3-0.8,1-0.5,1.6C74.3,8.3,75,8.6,75.6,8.3z M111.4,9.7c0.9-0.9,2.1-1.4,3.3-1.4c2.6,0,4.7,2.1,4.7,4.7
		c0,1.2-0.5,2.4-1.4,3.3c-1.8,1.8-4.7,1.8-6.6,0C109.6,14.5,109.6,11.5,111.4,9.7z M119.4,56.7c6.9-10.4,7.7-23.8,2.1-35
		c-0.3-0.6-1-0.8-1.6-0.5s-0.8,1-0.5,1.6c0,0,0,0,0,0c5.2,10.5,4.5,22.9-2,32.7c-3.6-1.5-7.7,0.1-9.2,3.7c-1.5,3.6,0.1,7.7,3.7,9.2
		c3.6,1.5,7.7-0.1,9.2-3.7c1.1-2.6,0.5-5.7-1.5-7.7C119.6,56.9,119.5,56.8,119.4,56.7z M118,65.2c-1.8,1.8-4.8,1.8-6.6,0
		c-1.8-1.8-1.8-4.8,0-6.6c1.8-1.8,4.8-1.8,6.6,0c0.9,0.9,1.4,2.1,1.4,3.3C119.4,63.1,118.9,64.3,118,65.2z M104.9,66.6L104.9,66.6
		c-10.5,5.3-22.9,4.5-32.7-2c1.5-3.6-0.1-7.7-3.7-9.2c-3.6-1.5-7.7,0.1-9.2,3.7c-1.5,3.6,0.1,7.7,3.7,9.2c2.6,1.1,5.7,0.5,7.7-1.5
		c0.1-0.1,0.1-0.2,0.2-0.2c10.4,6.9,23.8,7.7,35,2.1c0.6-0.3,0.8-1,0.5-1.6C106.2,66.6,105.5,66.3,104.9,66.6z M69.1,65.2
		c-0.9,0.9-2.1,1.4-3.3,1.4c-2.6,0-4.7-2.1-4.7-4.7s2.1-4.7,4.7-4.7c2.6,0,4.7,2.1,4.7,4.7C70.5,63.1,70,64.3,69.1,65.2z M59,53.1
		c0.3,0.6,1,0.8,1.6,0.5c0.6-0.3,0.8-1,0.5-1.6c-5.2-10.5-4.5-22.9,2-32.7c3.6,1.5,7.7-0.1,9.2-3.7c1.5-3.6-0.1-7.7-3.7-9.2
		C65,5,60.9,6.7,59.4,10.2c-1.1,2.6-0.5,5.7,1.5,7.7c0.1,0.1,0.2,0.1,0.2,0.2C54.2,28.6,53.4,42,59,53.1z M62.5,9.7
		c1.8-1.8,4.8-1.8,6.6,0c1.8,1.8,1.8,4.8,0,6.6c-1.8,1.8-4.7,1.8-6.6,0C60.7,14.5,60.7,11.5,62.5,9.7z M93.8,29.3h-1.2V27h-2.3v2.3
		h-1.2V27h-2.3v2.3h-3.5v2.3h2.3v11.7h-2.3v2.3h3.5v2.3h2.3v-2.3h1.2v2.3h2.3v-2.3h1.2c1.9,0,3.5-1.6,3.5-3.5v-2.3
		c0-0.9-0.3-1.7-0.9-2.3c0.6-0.6,0.9-1.5,0.9-2.3v-2.3C97.3,30.9,95.7,29.3,93.8,29.3z M94.9,42.1c0,0.6-0.5,1.2-1.2,1.2H88v-4.7
		h5.8c0.6,0,1.2,0.5,1.2,1.2V42.1z M94.9,35.1c0,0.6-0.5,1.2-1.2,1.2H88v-4.7h5.8c0.6,0,1.2,0.5,1.2,1.2V35.1z M112.3,59.4
		c-1.4,1.4-1.4,3.6,0,4.9c1.4,1.4,3.6,1.4,4.9,0c1.4-1.4,1.4-3.6,0-4.9C115.8,58.1,113.6,58.1,112.3,59.4z M115.6,62.7
		C115.6,62.7,115.6,62.7,115.6,62.7c-0.5,0.5-1.2,0.5-1.6,0c-0.5-0.5-0.5-1.2,0-1.6c0.5-0.5,1.2-0.5,1.6,0
		C116,61.5,116,62.3,115.6,62.7z M117.2,15.5L117.2,15.5c1.4-1.4,1.4-3.6,0-4.9c-1.4-1.4-3.6-1.4-4.9,0c-1.4,1.4-1.4,3.6,0,4.9
		C113.6,16.8,115.8,16.8,117.2,15.5z M113.9,12.2L113.9,12.2c0.5-0.5,1.2-0.5,1.6,0c0.5,0.5,0.5,1.2,0,1.6c-0.5,0.5-1.2,0.5-1.6,0
		C113.5,13.4,113.5,12.6,113.9,12.2z M65.8,16.5c1.9,0,3.5-1.6,3.5-3.5c0-0.9-0.4-1.8-1-2.5c-1.4-1.4-3.6-1.4-4.9,0
		c-1.4,1.4-1.4,3.6,0,4.9C64,16.1,64.9,16.5,65.8,16.5z M65,12.2L65,12.2c0.5-0.5,1.2-0.5,1.6,0c0.5,0.5,0.5,1.2,0,1.6
		c-0.5,0.5-1.2,0.5-1.6,0C64.6,13.4,64.6,12.6,65,12.2z M63.4,59.4C63.4,59.4,63.4,59.4,63.4,59.4c-1.4,1.4-1.4,3.6,0,4.9
		c1.4,1.4,3.6,1.4,4.9,0c1.4-1.4,1.4-3.6,0-4.9C66.9,58.1,64.7,58.1,63.4,59.4z M65.8,63.1c-0.6,0-1.2-0.5-1.2-1.2s0.5-1.2,1.2-1.2
		c0.6,0,1.2,0.5,1.2,1.2S66.5,63.1,65.8,63.1z M90.3,22.3c-8.4,0-15.2,6.8-15.2,15.2s6.8,15.2,15.2,15.2c8.4,0,15.2-6.8,15.2-15.2
		C105.4,29.1,98.7,22.3,90.3,22.3z M90.3,50.3c-7.1,0-12.8-5.7-12.8-12.8s5.7-12.8,12.8-12.8c7.1,0,12.8,5.7,12.8,12.8
		C103.1,44.5,97.4,50.3,90.3,50.3z"/>
</g>
</svg>
