<?xml version="1.0" encoding="utf-8"?>
<!-- Generator: Adobe Illustrator 19.0.0, SVG Export Plug-In . SVG Version: 6.00 Build 0)  -->
<svg version="1.1" id="图层_1" xmlns="http://www.w3.org/2000/svg" xmlns:xlink="http://www.w3.org/1999/xlink" x="0px" y="0px"
	 viewBox="0 0 19 19" style="enable-background:new 0 0 19 19;" xml:space="preserve">
<path id="XMLID_9_" d="M9.5,0C4.3,0,0,4.3,0,9.5S4.3,19,9.5,19S19,14.7,19,9.5S14.7,0,9.5,0z M9.5,16C5.9,16,3,13.1,3,9.5
	S5.9,3,9.5,3S16,5.9,16,9.5S13.1,16,9.5,16z M9.5,7C8.1,7,7,8.1,7,9.5C7,10.9,8.1,12,9.5,12S12,10.9,12,9.5C12,8.1,10.9,7,9.5,7z"/>
</svg>
