<?xml version="1.0" encoding="utf-8"?>
<!-- Generator: Adobe Illustrator 19.0.0, SVG Export Plug-In . SVG Version: 6.00 Build 0)  -->
<svg version="1.1" id="图层_1" xmlns="http://www.w3.org/2000/svg" xmlns:xlink="http://www.w3.org/1999/xlink" x="0px" y="0px"
	 viewBox="0 0 2000 2000" style="enable-background:new 0 0 2000 2000;" xml:space="preserve">
<style type="text/css">
	.st0{fill:#2F4957;}
	#c01{animation:rotateMove 60s  linear infinite;}
	#c02{animation:rotateMove2 30s  linear infinite;}
	#c03{animation:rotateMove 20s  linear infinite;}
	#c04{animation:rotateMove2 30s  linear infinite;}
	#c05{animation:rotateMove 60s  linear infinite;}
	#c06{animation:rotateMove2 30s  linear infinite;}
	#c07{animation:rotateMove 40s  linear infinite;}
	@keyframes rotateMove{
		0%	{
			transform:rotate(0deg);
			transform-origin: 1000px 1000px;
			}
		100%  {
			transform:rotate(360deg);
			transform-origin: 1000px 1000px;
			}
	}
	@keyframes rotateMove2{
		0%	{
			transform:rotate(360deg);
			transform-origin: 1000px 1000px;
		}
		100%	{
			transform:rotate(0deg);
			transform-origin: 1000px 1000px;
			}
	}
</style>
<g id="c01">
	<circle id="XMLID_2_" class="st0" cx="1000" cy="799.7" r="1"/>
	<circle id="XMLID_3_" class="st0" cx="1000" cy="1200.3" r="1"/>
	<circle id="XMLID_5_" class="st0" cx="965.2" cy="803.8" r="2"/>
	<circle id="XMLID_4_" class="st0" cx="1034.8" cy="1198.2" r="2"/>
	<circle id="XMLID_7_" class="st0" cx="931.5" cy="814.8" r="4"/>
	<circle id="XMLID_6_" class="st0" cx="1068.5" cy="1191.2" r="4"/>
	<circle id="XMLID_9_" class="st0" cx="899.9" cy="828.5" r="3"/>
	<circle id="XMLID_8_" class="st0" cx="1100.1" cy="1175.5" r="3"/>
	<circle id="XMLID_11_" class="st0" cx="871.3" cy="847.6" r="2"/>
	<circle id="XMLID_10_" class="st0" cx="1128.7" cy="1154.4" r="2"/>
	<circle id="XMLID_13_" class="st0" cx="846.6" cy="871.3" r="1"/>
	<circle id="XMLID_12_" class="st0" cx="1153.4" cy="1128.7" r="1"/>
	<circle id="XMLID_15_" class="st0" cx="826.5" cy="902.9" r="4"/>
	<circle id="XMLID_14_" class="st0" cx="1173.5" cy="1103.1" r="4"/>
	<circle id="XMLID_17_" class="st0" cx="811.8" cy="932.5" r="2"/>
	<circle id="XMLID_16_" class="st0" cx="1188.2" cy="1069.5" r="2"/>
	<circle id="XMLID_19_" class="st0" cx="802.8" cy="967.2" r="3"/>
	<circle id="XMLID_18_" class="st0" cx="1197.2" cy="1036.8" r="3"/>
	<circle id="XMLID_21_" class="st0" cx="799.7" cy="1001" r="2"/>
	<circle id="XMLID_20_" class="st0" cx="1200.3" cy="1001" r="2"/>
	<circle id="XMLID_23_" class="st0" cx="802.8" cy="1034.8" r="1"/>
	<circle id="XMLID_22_" class="st0" cx="1197.2" cy="965.2" r="1"/>
	<circle id="XMLID_25_" class="st0" cx="811.8" cy="1071.5" r="4"/>
	<circle id="XMLID_24_" class="st0" cx="1188.2" cy="934.5" r="4"/>
	<circle id="XMLID_27_" class="st0" cx="826.5" cy="1100.1" r="1"/>
	<circle id="XMLID_26_" class="st0" cx="1173.5" cy="899.9" r="1"/>
	<circle id="XMLID_29_" class="st0" cx="846.6" cy="1129.7" r="2"/>
	<circle id="XMLID_28_" class="st0" cx="1153.4" cy="872.3" r="2"/>
	<circle id="XMLID_31_" class="st0" cx="871.3" cy="1155.4" r="3"/>
	<circle id="XMLID_30_" class="st0" cx="1128.7" cy="848.6" r="3"/>
	<circle id="XMLID_33_" class="st0" cx="899.9" cy="1176.5" r="4"/>
	<circle id="XMLID_32_" class="st0" cx="1100.1" cy="829.5" r="4"/>
	<circle id="XMLID_35_" class="st0" cx="931.5" cy="1189.2" r="2"/>
	<circle id="XMLID_34_" class="st0" cx="1068.5" cy="812.8" r="2"/>
	<circle id="XMLID_37_" class="st0" cx="965.2" cy="1198.2" r="2"/>
	<circle id="XMLID_36_" class="st0" cx="1034.8" cy="803.8" r="2"/>
</g>
<g id="c02">
	<circle id="XMLID_72_" class="st0" cx="910.5" cy="762.5" r="1.3"/>
	<circle id="XMLID_71_" class="st0" cx="1088.5" cy="1233.6" r="1.3"/>
	<circle id="XMLID_70_" class="st0" cx="871.4" cy="782.7" r="2.5"/>
	<circle id="XMLID_69_" class="st0" cx="1128.5" cy="1215.8" r="2.5"/>
	<circle id="XMLID_68_" class="st0" cx="836.7" cy="810.6" r="5"/>
	<circle id="XMLID_67_" class="st0" cx="1165" cy="1192.5" r="5"/>
	<circle id="XMLID_66_" class="st0" cx="805.6" cy="840.9" r="3.8"/>
	<circle id="XMLID_65_" class="st0" cx="1195.2" cy="1159.9" r="3.8"/>
	<circle id="XMLID_64_" class="st0" cx="780.4" cy="875.9" r="2.5"/>
	<circle id="XMLID_63_" class="st0" cx="1219.5" cy="1122.5" r="2.5"/>
	<circle id="XMLID_62_" class="st0" cx="761.9" cy="914.8" r="1.3"/>
	<circle id="XMLID_61_" class="st0" cx="1237.2" cy="1081.3" r="1.3"/>
	<circle id="XMLID_60_" class="st0" cx="752.3" cy="960.8" r="5"/>
	<circle id="XMLID_59_" class="st0" cx="1249.3" cy="1042.3" r="5"/>
	<circle id="XMLID_58_" class="st0" cx="748.1" cy="1002.2" r="2.5"/>
	<circle id="XMLID_57_" class="st0" cx="1251.7" cy="996.2" r="2.5"/>
	<circle id="XMLID_56_" class="st0" cx="752.9" cy="1047.1" r="3.8"/>
	<circle id="XMLID_55_" class="st0" cx="1247.8" cy="953.7" r="3.8"/>
	<circle id="XMLID_54_" class="st0" cx="764.4" cy="1088.2" r="2.5"/>
	<circle id="XMLID_53_" class="st0" cx="1235.5" cy="910.3" r="2.5"/>
	<circle id="XMLID_52_" class="st0" cx="782.9" cy="1126.6" r="1.3"/>
	<circle id="XMLID_51_" class="st0" cx="1216.1" cy="869.5" r="1.3"/>
	<circle id="XMLID_50_" class="st0" cx="809.9" cy="1165.7" r="5"/>
	<circle id="XMLID_49_" class="st0" cx="1191.8" cy="837.4" r="5"/>
	<circle id="XMLID_48_" class="st0" cx="840" cy="1192.9" r="1.3"/>
	<circle id="XMLID_47_" class="st0" cx="1159" cy="803.2" r="1.3"/>
	<circle id="XMLID_46_" class="st0" cx="876.7" cy="1218.8" r="2.5"/>
	<circle id="XMLID_45_" class="st0" cx="1123.2" cy="779.6" r="2.5"/>
	<circle id="XMLID_44_" class="st0" cx="917.1" cy="1238" r="3.8"/>
	<circle id="XMLID_43_" class="st0" cx="1083.7" cy="762.7" r="3.8"/>
	<circle id="XMLID_42_" class="st0" cx="960.1" cy="1250.1" r="5"/>
	<circle id="XMLID_41_" class="st0" cx="1041.6" cy="753.1" r="5"/>
	<circle id="XMLID_40_" class="st0" cx="1003" cy="1251" r="2.5"/>
	<circle id="XMLID_39_" class="st0" cx="996.9" cy="747.4" r="2.5"/>
	<circle id="XMLID_38_" class="st0" cx="1046.6" cy="1246.7" r="2.5"/>
	<circle id="XMLID_73_" class="st0" cx="953.3" cy="751.8" r="2.5"/>
</g>
<g id="c03">
	<circle id="XMLID_111_" class="st0" cx="799.4" cy="764.2" r="1.5"/>
	<circle id="XMLID_110_" class="st0" cx="1198.2" cy="1231.1" r="1.5"/>
	<circle id="XMLID_109_" class="st0" cx="762.9" cy="803.6" r="3.1"/>
	<circle id="XMLID_108_" class="st0" cx="1236.7" cy="1194.1" r="3.1"/>
	<circle id="XMLID_107_" class="st0" cx="734.5" cy="850" r="6.1"/>
	<circle id="XMLID_106_" class="st0" cx="1269" cy="1152.3" r="6.1"/>
	<circle id="XMLID_105_" class="st0" cx="711.4" cy="897.6" r="4.6"/>
	<circle id="XMLID_104_" class="st0" cx="1290.2" cy="1102.4" r="4.6"/>
	<circle id="XMLID_103_" class="st0" cx="697" cy="948.2" r="3.1"/>
	<circle id="XMLID_102_" class="st0" cx="1302.6" cy="1049.5" r="3.1"/>
	<circle id="XMLID_101_" class="st0" cx="691.8" cy="1000.4" r="1.5"/>
	<circle id="XMLID_100_" class="st0" cx="1305.8" cy="995" r="1.5"/>
	<circle id="XMLID_99_" class="st0" cx="699.9" cy="1057.1" r="6.1"/>
	<circle id="XMLID_98_" class="st0" cx="1303.6" cy="945.2" r="6.1"/>
	<circle id="XMLID_97_" class="st0" cx="712.2" cy="1106.4" r="3.1"/>
	<circle id="XMLID_96_" class="st0" cx="1287.3" cy="891.3" r="3.1"/>
	<circle id="XMLID_95_" class="st0" cx="736.3" cy="1155.8" r="4.6"/>
	<circle id="XMLID_94_" class="st0" cx="1265.3" cy="844.2" r="4.6"/>
	<circle id="XMLID_93_" class="st0" cx="766.3" cy="1198.2" r="3.1"/>
	<circle id="XMLID_92_" class="st0" cx="1233.2" cy="799.4" r="3.1"/>
	<circle id="XMLID_91_" class="st0" cx="803.5" cy="1234.6" r="1.5"/>
	<circle id="XMLID_90_" class="st0" cx="1194" cy="760.8" r="1.5"/>
	<circle id="XMLID_89_" class="st0" cx="850.6" cy="1268.4" r="6.1"/>
	<circle id="XMLID_88_" class="st0" cx="1152.9" cy="734" r="6.1"/>
	<circle id="XMLID_87_" class="st0" cx="896.3" cy="1287.1" r="1.5"/>
	<circle id="XMLID_86_" class="st0" cx="1101.2" cy="708.3" r="1.5"/>
	<circle id="XMLID_85_" class="st0" cx="949.1" cy="1301.6" r="3.1"/>
	<circle id="XMLID_84_" class="st0" cx="1050.4" cy="696" r="3.1"/>
	<circle id="XMLID_83_" class="st0" cx="1003.5" cy="1307" r="4.6"/>
	<circle id="XMLID_82_" class="st0" cx="998.1" cy="693" r="4.6"/>
	<circle id="XMLID_81_" class="st0" cx="1057.7" cy="1303" r="6.1"/>
	<circle id="XMLID_80_" class="st0" cx="945.8" cy="699.3" r="6.1"/>
	<circle id="XMLID_79_" class="st0" cx="1107.3" cy="1286.4" r="3.1"/>
	<circle id="XMLID_78_" class="st0" cx="892.2" cy="711.3" r="3.1"/>
	<circle id="XMLID_77_" class="st0" cx="1155.6" cy="1263.3" r="3.1"/>
	<circle id="XMLID_76_" class="st0" cx="843.9" cy="734.3" r="3.1"/>
</g>
<g id="c04">
	<circle id="XMLID_148_" class="st0" cx="670.1" cy="812.6" r="1.9"/>
	<circle id="XMLID_147_" class="st0" cx="1323.4" cy="1184.3" r="1.9"/>
	<circle id="XMLID_146_" class="st0" cx="644.4" cy="873.1" r="3.8"/>
	<circle id="XMLID_145_" class="st0" cx="1352.3" cy="1125.7" r="3.8"/>
	<circle id="XMLID_144_" class="st0" cx="631.1" cy="938.3" r="7.5"/>
	<circle id="XMLID_143_" class="st0" cx="1372.1" cy="1064.1" r="7.5"/>
	<circle id="XMLID_142_" class="st0" cx="624.2" cy="1002.7" r="5.6"/>
	<circle id="XMLID_141_" class="st0" cx="1375.8" cy="997.9" r="5.6"/>
	<circle id="XMLID_140_" class="st0" cx="628.7" cy="1067" r="3.8"/>
	<circle id="XMLID_139_" class="st0" cx="1368" cy="931.8" r="3.8"/>
	<circle id="XMLID_138_" class="st0" cx="644.4" cy="1129.2" r="1.9"/>
	<circle id="XMLID_137_" class="st0" cx="1349" cy="867.7" r="1.9"/>
	<circle id="XMLID_136_" class="st0" cx="677.4" cy="1191.2" r="7.5"/>
	<circle id="XMLID_135_" class="st0" cx="1325.9" cy="811.3" r="7.5"/>
	<circle id="XMLID_134_" class="st0" cx="712" cy="1242.7" r="3.8"/>
	<circle id="XMLID_133_" class="st0" cx="1284.7" cy="756" r="3.8"/>
	<circle id="XMLID_132_" class="st0" cx="760.3" cy="1289.7" r="5.6"/>
	<circle id="XMLID_131_" class="st0" cx="1239.7" cy="710.9" r="5.6"/>
	<circle id="XMLID_130_" class="st0" cx="812.5" cy="1326" r="3.8"/>
	<circle id="XMLID_129_" class="st0" cx="1184.2" cy="672.7" r="3.8"/>
	<circle id="XMLID_128_" class="st0" cx="870.5" cy="1352.4" r="1.9"/>
	<circle id="XMLID_127_" class="st0" cx="1123" cy="644.5" r="1.9"/>
	<circle id="XMLID_126_" class="st0" cx="938.7" cy="1371.7" r="7.5"/>
	<circle id="XMLID_125_" class="st0" cx="1064.5" cy="630.7" r="7.5"/>
	<circle id="XMLID_124_" class="st0" cx="999.1" cy="1374.2" r="1.9"/>
	<circle id="XMLID_123_" class="st0" cx="994.4" cy="622.7" r="1.9"/>
	<circle id="XMLID_122_" class="st0" cx="1066" cy="1369" r="3.8"/>
	<circle id="XMLID_121_" class="st0" cx="930.8" cy="629.7" r="3.8"/>
	<circle id="XMLID_120_" class="st0" cx="1130.8" cy="1352.6" r="5.6"/>
	<circle id="XMLID_119_" class="st0" cx="869.2" cy="648" r="5.6"/>
	<circle id="XMLID_118_" class="st0" cx="1191.6" cy="1325.5" r="7.5"/>
	<circle id="XMLID_117_" class="st0" cx="811.7" cy="677" r="7.5"/>
	<circle id="XMLID_116_" class="st0" cx="1241.7" cy="1285.7" r="3.8"/>
	<circle id="XMLID_115_" class="st0" cx="755" cy="713" r="3.8"/>
	<circle id="XMLID_114_" class="st0" cx="1287.8" cy="1239.1" r="3.8"/>
	<circle id="XMLID_113_" class="st0" cx="709" cy="759.6" r="3.8"/>
</g>
<g id="c05">
	<circle id="XMLID_185_" class="st0" cx="599" cy="772.2" r="2.3"/>
	<circle id="XMLID_184_" class="st0" cx="1393.1" cy="1224" r="2.3"/>
	<circle id="XMLID_183_" class="st0" cx="567.8" cy="845.7" r="4.6"/>
	<circle id="XMLID_182_" class="st0" cx="1428.3" cy="1152.8" r="4.6"/>
	<circle id="XMLID_181_" class="st0" cx="551.6" cy="925" r="9.1"/>
	<circle id="XMLID_180_" class="st0" cx="1452.4" cy="1078" r="9.1"/>
	<circle id="XMLID_179_" class="st0" cx="543.2" cy="1003.3" r="6.8"/>
	<circle id="XMLID_178_" class="st0" cx="1456.8" cy="997.5" r="6.8"/>
	<circle id="XMLID_177_" class="st0" cx="548.6" cy="1081.4" r="4.6"/>
	<circle id="XMLID_176_" class="st0" cx="1447.4" cy="917.1" r="4.6"/>
	<circle id="XMLID_175_" class="st0" cx="567.8" cy="1157.1" r="2.3"/>
	<circle id="XMLID_174_" class="st0" cx="1424.3" cy="839.1" r="2.3"/>
	<circle id="XMLID_173_" class="st0" cx="607.8" cy="1232.4" r="9.1"/>
	<circle id="XMLID_172_" class="st0" cx="1396.2" cy="770.6" r="9.1"/>
	<circle id="XMLID_171_" class="st0" cx="649.9" cy="1295.1" r="4.6"/>
	<circle id="XMLID_170_" class="st0" cx="1346.1" cy="703.4" r="4.6"/>
	<circle id="XMLID_169_" class="st0" cx="708.6" cy="1352.2" r="6.8"/>
	<circle id="XMLID_168_" class="st0" cx="1291.4" cy="648.6" r="6.8"/>
	<circle id="XMLID_167_" class="st0" cx="772.1" cy="1396.3" r="4.6"/>
	<circle id="XMLID_166_" class="st0" cx="1223.9" cy="602.2" r="4.6"/>
	<circle id="XMLID_165_" class="st0" cx="842.5" cy="1428.4" r="2.3"/>
	<circle id="XMLID_164_" class="st0" cx="1149.6" cy="567.8" r="2.3"/>
	<circle id="XMLID_163_" class="st0" cx="925.5" cy="1451.9" r="9.1"/>
	<circle id="XMLID_162_" class="st0" cx="1078.5" cy="551.1" r="9.1"/>
	<circle id="XMLID_161_" class="st0" cx="998.9" cy="1454.9" r="2.3"/>
	<circle id="XMLID_160_" class="st0" cx="993.1" cy="541.3" r="2.3"/>
	<circle id="XMLID_159_" class="st0" cx="1080.2" cy="1448.6" r="4.6"/>
	<circle id="XMLID_158_" class="st0" cx="915.8" cy="549.9" r="4.6"/>
	<circle id="XMLID_157_" class="st0" cx="1159" cy="1428.6" r="6.8"/>
	<circle id="XMLID_156_" class="st0" cx="841" cy="572.1" r="6.8"/>
	<circle id="XMLID_155_" class="st0" cx="1232.9" cy="1395.7" r="9.1"/>
	<circle id="XMLID_154_" class="st0" cx="771.1" cy="607.3" r="9.1"/>
	<circle id="XMLID_153_" class="st0" cx="1293.9" cy="1347.3" r="4.6"/>
	<circle id="XMLID_152_" class="st0" cx="702.2" cy="651.1" r="4.6"/>
	<circle id="XMLID_151_" class="st0" cx="1349.8" cy="1290.7" r="4.6"/>
	<circle id="XMLID_150_" class="st0" cx="646.2" cy="707.8" r="4.6"/>
</g>
<g id="c06">
	<circle id="XMLID_259_" class="st0" cx="412.9" cy="1003.1" r="2.9"/>
	<circle id="XMLID_258_" class="st0" cx="1587.1" cy="997" r="2.9"/>
	<circle id="XMLID_257_" class="st0" cx="425.3" cy="1105" r="5.9"/>
	<circle id="XMLID_256_" class="st0" cx="1580.5" cy="895" r="5.9"/>
	<circle id="XMLID_255_" class="st0" cx="458.2" cy="1203.6" r="11.7"/>
	<circle id="XMLID_254_" class="st0" cx="1559.4" cy="796.3" r="11.7"/>
	<circle id="XMLID_253_" class="st0" cx="499" cy="1296.2" r="8.8"/>
	<circle id="XMLID_252_" class="st0" cx="1512.7" cy="703.8" r="8.8"/>
	<circle id="XMLID_251_" class="st0" cx="555.2" cy="1379.7" r="5.9"/>
	<circle id="XMLID_250_" class="st0" cx="1450.7" cy="620.3" r="5.9"/>
	<circle id="XMLID_249_" class="st0" cx="625" cy="1451.7" r="2.9"/>
	<circle id="XMLID_248_" class="st0" cx="1375" cy="548.3" r="2.9"/>
	<circle id="XMLID_247_" class="st0" cx="717.9" cy="1509.9" r="11.7"/>
	<circle id="XMLID_246_" class="st0" cx="1299.7" cy="490" r="11.7"/>
	<circle id="XMLID_245_" class="st0" cx="805" cy="1552.7" r="5.9"/>
	<circle id="XMLID_244_" class="st0" cx="1200.8" cy="447.3" r="5.9"/>
	<circle id="XMLID_243_" class="st0" cx="906.9" cy="1578.7" r="8.8"/>
	<circle id="XMLID_242_" class="st0" cx="1104.8" cy="421.3" r="8.8"/>
	<circle id="XMLID_241_" class="st0" cx="1006" cy="1587.1" r="5.9"/>
	<circle id="XMLID_240_" class="st0" cx="999.9" cy="412.9" r="5.9"/>
	<circle id="XMLID_239_" class="st0" cx="1105" cy="1577.6" r="2.9"/>
	<circle id="XMLID_238_" class="st0" cx="895" cy="422.4" r="2.9"/>
	<circle id="XMLID_237_" class="st0" cx="1212.5" cy="1550.6" r="11.7"/>
	<circle id="XMLID_236_" class="st0" cx="805.1" cy="449.4" r="11.7"/>
	<circle id="XMLID_235_" class="st0" cx="1296.2" cy="1506.9" r="2.9"/>
	<circle id="XMLID_234_" class="st0" cx="703.8" cy="493.1" r="2.9"/>
	<circle id="XMLID_233_" class="st0" cx="1382.6" cy="1447.7" r="5.9"/>
	<circle id="XMLID_232_" class="st0" cx="623.2" cy="552.3" r="5.9"/>
	<circle id="XMLID_231_" class="st0" cx="1457.5" cy="1375" r="8.8"/>
	<circle id="XMLID_230_" class="st0" cx="554.2" cy="625" r="8.8"/>
	<circle id="XMLID_229_" class="st0" cx="1518.7" cy="1290.8" r="11.7"/>
	<circle id="XMLID_228_" class="st0" cx="498.9" cy="709.1" r="11.7"/>
	<circle id="XMLID_227_" class="st0" cx="1555.6" cy="1197.9" r="5.9"/>
	<circle id="XMLID_226_" class="st0" cx="450.2" cy="802.1" r="5.9"/>
	<circle id="XMLID_225_" class="st0" cx="1581.6" cy="1098.9" r="5.9"/>
	<circle id="XMLID_224_" class="st0" cx="424.3" cy="901.1" r="5.9"/>
</g>
<g id="c07">
	<circle id="XMLID_296_" class="st0" cx="263" cy="1003.9" r="3.7"/>
	<circle id="XMLID_295_" class="st0" cx="1737" cy="996.2" r="3.7"/>
	<circle id="XMLID_294_" class="st0" cx="278.5" cy="1131.8" r="7.4"/>
	<circle id="XMLID_293_" class="st0" cx="1728.8" cy="868.2" r="7.4"/>
	<circle id="XMLID_292_" class="st0" cx="319.8" cy="1255.6" r="14.7"/>
	<circle id="XMLID_291_" class="st0" cx="1702.3" cy="744.3" r="14.7"/>
	<circle id="XMLID_290_" class="st0" cx="371" cy="1371.8" r="11"/>
	<circle id="XMLID_289_" class="st0" cx="1643.7" cy="628.2" r="11"/>
	<circle id="XMLID_288_" class="st0" cx="441.6" cy="1476.7" r="7.4"/>
	<circle id="XMLID_287_" class="st0" cx="1565.8" cy="523.3" r="7.4"/>
	<circle id="XMLID_286_" class="st0" cx="529.2" cy="1567.1" r="3.7"/>
	<circle id="XMLID_285_" class="st0" cx="1470.8" cy="433" r="3.7"/>
	<circle id="XMLID_284_" class="st0" cx="645.9" cy="1640.1" r="14.7"/>
	<circle id="XMLID_283_" class="st0" cx="1376.2" cy="359.8" r="14.7"/>
	<circle id="XMLID_282_" class="st0" cx="755.2" cy="1693.9" r="7.4"/>
	<circle id="XMLID_281_" class="st0" cx="1252.1" cy="306.1" r="7.4"/>
	<circle id="XMLID_280_" class="st0" cx="883.2" cy="1726.5" r="11"/>
	<circle id="XMLID_279_" class="st0" cx="1131.6" cy="273.5" r="11"/>
	<circle id="XMLID_278_" class="st0" cx="1007.5" cy="1737" r="7.4"/>
	<circle id="XMLID_277_" class="st0" cx="999.8" cy="263" r="7.4"/>
	<circle id="XMLID_276_" class="st0" cx="1131.8" cy="1725.2" r="3.7"/>
	<circle id="XMLID_275_" class="st0" cx="868.2" cy="274.9" r="3.7"/>
	<circle id="XMLID_274_" class="st0" cx="1266.7" cy="1691.2" r="14.7"/>
	<circle id="XMLID_273_" class="st0" cx="755.4" cy="308.7" r="14.7"/>
	<circle id="XMLID_272_" class="st0" cx="1371.8" cy="1636.4" r="3.7"/>
	<circle id="XMLID_271_" class="st0" cx="628.2" cy="363.7" r="3.7"/>
	<circle id="XMLID_270_" class="st0" cx="1480.4" cy="1562.1" r="7.4"/>
	<circle id="XMLID_269_" class="st0" cx="527" cy="437.9" r="7.4"/>
	<circle id="XMLID_268_" class="st0" cx="1574.4" cy="1470.8" r="11"/>
	<circle id="XMLID_267_" class="st0" cx="440.3" cy="529.2" r="11"/>
	<circle id="XMLID_266_" class="st0" cx="1651.2" cy="1365.1" r="14.7"/>
	<circle id="XMLID_265_" class="st0" cx="370.9" cy="634.8" r="14.7"/>
	<circle id="XMLID_264_" class="st0" cx="1697.5" cy="1248.5" r="7.4"/>
	<circle id="XMLID_263_" class="st0" cx="309.8" cy="751.5" r="7.4"/>
	<circle id="XMLID_262_" class="st0" cx="1730.2" cy="1124.2" r="7.4"/>
	<circle id="XMLID_261_" class="st0" cx="277.2" cy="875.8" r="7.4"/>
</g>
</svg>
