<?xml version="1.0" encoding="utf-8"?>
<!-- Generator: Adobe Illustrator 19.0.0, SVG Export Plug-In . SVG Version: 6.00 Build 0)  -->
<svg version="1.1" id="图层_1" xmlns="http://www.w3.org/2000/svg" xmlns:xlink="http://www.w3.org/1999/xlink" x="0px" y="0px"
	 viewBox="0 0 80 80" style="enable-background:new 0 0 80 80;" xml:space="preserve">
<style type="text/css">
	.st0{fill:url(#XMLID_2_);}
</style>
<linearGradient id="XMLID_2_" gradientUnits="userSpaceOnUse" x1="16.5018" y1="67.7548" x2="68.8773" y2="15.3794">
	<stop  offset="0" style="stop-color:#BD1A21"/>
	<stop  offset="1" style="stop-color:#DF5F22"/>
</linearGradient>
<path id="XMLID_59_" class="st0" d="M50.2,5.8c0.9,0.3,1.8,0.6,2.7,0.9c0.1,0,0.3,0.1,0.4,0.1c0.4,0,0.9-0.3,1-0.7
	c0.2-0.6-0.1-1.2-0.7-1.4c-1-0.4-1.9-0.7-2.9-1c-0.6-0.2-1.2,0.2-1.4,0.8C49.3,5,49.6,5.6,50.2,5.8z M5.6,43.8
	c-0.1-1-0.2-1.9-0.3-2.9c0-0.6-0.5-1.1-1.2-1.1c-0.6,0-1.1,0.5-1.1,1.2c0,1,0.1,2,0.3,3.1c0.1,0.6,0.6,1,1.1,1c0,0,0.1,0,0.1,0
	C5.2,44.9,5.6,44.4,5.6,43.8z M4.3,36.1c0,0,0.1,0,0.1,0c0.6,0,1-0.4,1.1-1c0.1-1,0.3-1.9,0.5-2.8c0.1-0.6-0.3-1.2-0.9-1.3
	c-0.6-0.1-1.2,0.3-1.3,0.9c-0.2,1-0.4,2-0.5,3C3.2,35.5,3.7,36,4.3,36.1z M57.7,9c0.8,0.5,1.6,1,2.4,1.5c0.2,0.1,0.4,0.2,0.6,0.2
	c0.4,0,0.7-0.2,0.9-0.5c0.4-0.5,0.2-1.2-0.3-1.6c-0.8-0.6-1.7-1.1-2.6-1.6c-0.5-0.3-1.2-0.1-1.5,0.4C57,8,57.2,8.7,57.7,9z
	 M24.1,8.1c0.2,0,0.3,0,0.5-0.1c0.9-0.4,1.7-0.8,2.6-1.2c0.6-0.2,0.9-0.9,0.6-1.4c-0.2-0.6-0.9-0.9-1.4-0.6
	c-0.9,0.4-1.9,0.8-2.8,1.3c-0.5,0.3-0.8,0.9-0.5,1.5C23.3,7.9,23.7,8.1,24.1,8.1z M45.2,9.6c0.9,0.2,1.9,0.4,2.8,0.6
	c0.1,0,0.2,0,0.3,0c0.5,0,0.9-0.3,1.1-0.8c0.2-0.6-0.2-1.2-0.8-1.4c-1-0.3-2-0.5-3-0.7c-0.6-0.1-1.2,0.3-1.3,0.9
	C44.2,8.9,44.6,9.5,45.2,9.6z M36.5,9.4c0,0,0.1,0,0.1,0c0.9-0.1,1.9-0.2,2.9-0.2c0.6,0,1.1-0.5,1.1-1.1c0-0.6-0.5-1.1-1.1-1.1
	c-1,0-2.1,0.1-3.1,0.2c-0.6,0.1-1,0.6-1,1.2C35.5,8.9,36,9.4,36.5,9.4z M41.7,74.1c-1,0-1.9,0-2.9,0c-0.5,0-1.1,0.5-1.2,1.1
	c0,0.6,0.5,1.1,1.1,1.2c0.5,0,1,0,1.5,0c0.5,0,1.1,0,1.6,0c0.6,0,1.1-0.5,1.1-1.2C42.8,74.6,42.4,74.1,41.7,74.1z M28.4,72.1
	c-0.9-0.3-1.8-0.7-2.7-1.1c-0.6-0.3-1.2,0-1.5,0.6c-0.3,0.6,0,1.2,0.6,1.5c0.9,0.4,1.9,0.8,2.8,1.1c0.1,0,0.1,0,0.2,0.1
	c0.5,0.1,1-0.2,1.2-0.7C29.3,72.9,29,72.3,28.4,72.1z M18.4,66.5c-0.5-0.4-1.2-0.3-1.6,0.2c-0.4,0.5-0.3,1.2,0.2,1.6
	c0.8,0.6,1.6,1.2,2.5,1.8c0.1,0.1,0.3,0.2,0.5,0.2c0.4,0.1,0.8-0.1,1.1-0.5c0.3-0.5,0.2-1.2-0.3-1.5C19.9,67.7,19.2,67.1,18.4,66.5z
	 M6.8,49.4c-0.2-0.6-0.8-0.9-1.4-0.7c-0.6,0.2-0.9,0.8-0.7,1.4c0.3,1,0.6,1.9,1,2.9c0.2,0.4,0.6,0.7,1,0.7c0.1,0,0.3,0,0.4-0.1
	c0.6-0.2,0.9-0.9,0.6-1.4C7.4,51.2,7,50.3,6.8,49.4z M74.3,31.6c0.1,0.5,0.6,0.9,1.1,0.9c0.1,0,0.2,0,0.2,0c0.6-0.1,1-0.7,0.8-1.3
	c-0.2-1-0.5-2-0.8-3c-0.2-0.6-0.8-0.9-1.4-0.7c-0.6,0.2-0.9,0.8-0.7,1.4C73.8,29.7,74.1,30.7,74.3,31.6z M6.1,27.4
	c0.1,0,0.3,0.1,0.4,0.1c0.4,0,0.9-0.3,1-0.7c0.3-0.9,0.7-1.8,1.1-2.6c0.3-0.6,0-1.2-0.5-1.5c-0.6-0.3-1.2,0-1.5,0.5
	C6.2,24.1,5.8,25,5.5,26C5.3,26.5,5.6,27.2,6.1,27.4z M71.4,23.5c0.2,0.4,0.6,0.6,1,0.6c0.2,0,0.3,0,0.5-0.1
	c0.5-0.3,0.8-0.9,0.5-1.5c-0.5-0.9-1-1.8-1.5-2.7c-0.3-0.5-1-0.7-1.5-0.4c-0.5,0.3-0.7,1-0.4,1.5C70.5,21.8,70.9,22.6,71.4,23.5z
	 M73.6,53c-0.6-0.3-1.2,0-1.5,0.6c-0.4,0.9-0.8,1.7-1.3,2.6c-0.3,0.5-0.2,1,0.2,1.4c0.1,0.1,0.1,0.1,0.2,0.1
	c0.5,0.3,1.2,0.1,1.5-0.4c0.5-0.9,0.9-1.8,1.4-2.7C74.5,53.9,74.2,53.2,73.6,53z M76,44.4c-0.6-0.1-1.2,0.3-1.3,0.9
	c-0.2,0.9-0.4,1.9-0.6,2.8c-0.1,0.4,0,0.8,0.3,1.1c0.1,0.1,0.3,0.2,0.5,0.2c0.6,0.2,1.2-0.2,1.4-0.8c0.3-1,0.5-2,0.7-3
	C77,45.1,76.6,44.5,76,44.4z M50.2,72.9c-0.9,0.3-1.9,0.5-2.8,0.7c-0.5,0.1-0.9,0.6-0.9,1.1c0,0.1,0,0.2,0,0.2
	c0.1,0.6,0.7,1,1.3,0.9c1-0.2,2-0.5,3-0.7c0.6-0.2,0.9-0.8,0.8-1.4C51.4,73,50.8,72.7,50.2,72.9z M58.1,69.4
	c-0.8,0.5-1.7,0.9-2.5,1.4c-0.4,0.2-0.6,0.6-0.6,1c0,0.2,0,0.3,0.1,0.5c0.3,0.6,0.9,0.8,1.5,0.5c0.9-0.4,1.8-0.9,2.7-1.4
	c0.5-0.3,0.7-1,0.4-1.5C59.4,69.3,58.7,69.1,58.1,69.4z M10.7,19.6c0.4,0,0.7-0.2,0.9-0.5c0.5-0.8,1.1-1.5,1.8-2.3
	c0.4-0.5,0.3-1.2-0.1-1.6c-0.5-0.4-1.2-0.3-1.6,0.1c-0.7,0.8-1.3,1.6-1.9,2.4c-0.4,0.5-0.2,1.2,0.3,1.6
	C10.3,19.6,10.5,19.6,10.7,19.6z M64.9,14.5c0.6,0.6,1.1,1.2,1.7,1.8c0.2,0.3,0.5,0.4,0.8,0.4c0.3,0,0.5-0.1,0.7-0.3
	c0.5-0.4,0.5-1.1,0.1-1.6c-0.6-0.7-1.2-1.3-1.8-1.9l-0.3-0.3c-0.4-0.4-1.1-0.4-1.6,0c-0.4,0.4-0.4,1.1,0,1.6L64.9,14.5z M16.7,13
	c0.3,0,0.5-0.1,0.7-0.3c0.7-0.6,1.5-1.2,2.3-1.8c0.5-0.4,0.6-1.1,0.2-1.6c-0.4-0.5-1.1-0.6-1.6-0.2c-0.8,0.6-1.6,1.2-2.4,1.9
	c-0.5,0.4-0.5,1.1-0.1,1.6C16.1,12.9,16.4,13,16.7,13z M43.8,69.1c-0.9,0.1-1.9,0.2-2.9,0.2c-0.6,0-1.1,0.5-1.1,1.1
	c0,0.6,0.5,1.1,1.1,1.1h0c1,0,2.1-0.1,3.1-0.2c0.6-0.1,1.1-0.6,1-1.2C44.9,69.5,44.4,69,43.8,69.1z M35.2,68.9
	c-0.9-0.2-1.9-0.4-2.8-0.6c-0.6-0.2-1.2,0.2-1.4,0.8c-0.2,0.6,0.2,1.2,0.8,1.4c1,0.3,2,0.5,3,0.7c0.1,0,0.1,0,0.2,0
	c0.5,0,1-0.4,1.1-0.9C36.2,69.6,35.8,69,35.2,68.9z M52,66.9c-0.9,0.4-1.8,0.7-2.7,1c-0.6,0.2-0.9,0.8-0.7,1.4
	c0.2,0.5,0.6,0.8,1.1,0.8c0.1,0,0.2,0,0.3-0.1c1-0.3,1.9-0.7,2.9-1.1c0.6-0.2,0.8-0.9,0.6-1.5C53.3,66.9,52.6,66.7,52,66.9z
	 M26.5,68.4c0.4,0,0.8-0.2,1-0.6c0.3-0.6,0-1.2-0.5-1.5c-0.9-0.4-1.7-0.9-2.5-1.4c-0.5-0.3-1.2-0.2-1.5,0.4
	c-0.3,0.5-0.2,1.2,0.4,1.5c0.9,0.5,1.8,1,2.7,1.5C26.2,68.4,26.4,68.4,26.5,68.4z M19.2,63.4c0.3,0,0.6-0.1,0.8-0.4
	c0.4-0.5,0.4-1.2-0.1-1.6c-0.7-0.6-1.4-1.3-2-2c-0.4-0.5-1.1-0.5-1.6-0.1c-0.5,0.4-0.5,1.1-0.1,1.6c0.7,0.8,1.4,1.5,2.2,2.2
	C18.7,63.3,18.9,63.4,19.2,63.4z M13.1,52.4c-0.3-0.6-0.9-0.8-1.5-0.5c-0.6,0.3-0.8,0.9-0.5,1.5c0.4,0.9,0.9,1.8,1.5,2.7
	c0.2,0.3,0.6,0.5,1,0.5c0.2,0,0.4-0.1,0.6-0.2c0.5-0.3,0.7-1,0.4-1.5C14,54.1,13.5,53.2,13.1,52.4z M68.9,48.4
	c-0.3,0.9-0.6,1.8-1,2.7c-0.2,0.6,0,1.2,0.6,1.5c0.1,0.1,0.3,0.1,0.4,0.1c0.4,0,0.7-0.3,0.9-0.7c0.4-0.9,0.9-1.9,1.2-2.9
	c0.2-0.6-0.1-1.2-0.7-1.4C69.7,47.5,69,47.8,68.9,48.4z M11.1,47c-0.2-0.9-0.4-1.8-0.6-2.8c-0.1-0.6-0.7-1-1.3-0.9
	c-0.6,0.1-1,0.7-0.9,1.3c0.2,1,0.4,2,0.7,3c0.1,0.5,0.6,0.8,1.1,0.8c0.1,0,0.2,0,0.3,0C10.9,48.2,11.3,47.6,11.1,47z M71.2,44.1
	c0.6,0,1-0.4,1.1-1c0.1-1,0.2-2,0.2-3.1c0-0.6-0.5-1.1-1.1-1.1c-0.6,0.1-1.1,0.5-1.1,1.1c0,1-0.1,1.9-0.2,2.9
	c-0.1,0.6,0.4,1.2,1,1.2C71.1,44.1,71.1,44.1,71.2,44.1z M69.3,31.5c0.2,0.9,0.4,1.9,0.6,2.8c0.1,0.5,0.6,0.9,1.1,0.9
	c0.1,0,0.1,0,0.2,0c0.6-0.1,1-0.7,0.9-1.3c-0.2-1-0.4-2-0.7-3c-0.2-0.6-0.8-0.9-1.4-0.8C69.5,30.3,69.1,30.9,69.3,31.5z M66.3,22.1
	c-0.5,0.3-0.7,1-0.4,1.5c0.5,0.8,1,1.7,1.4,2.5c0.2,0.4,0.6,0.6,1,0.6c0.2,0,0.3,0,0.5-0.1c0.6-0.3,0.8-0.9,0.5-1.5
	c-0.4-0.9-0.9-1.8-1.5-2.7C67.5,21.9,66.8,21.7,66.3,22.1z M60.4,15.4C60,15.9,60,16.6,60.5,17c0.7,0.6,1.4,1.3,2,2
	c0.2,0.2,0.5,0.4,0.8,0.4c0.3,0,0.5-0.1,0.7-0.3c0.5-0.4,0.5-1.1,0.1-1.6c-0.7-0.8-1.4-1.5-2.2-2.2C61.5,14.9,60.8,15,60.4,15.4z
	 M19.5,15.9c0.2,0.3,0.5,0.4,0.9,0.4c0.3,0,0.5-0.1,0.7-0.3c0.7-0.6,1.5-1.2,2.3-1.7c0.5-0.3,0.6-1,0.3-1.5c-0.3-0.5-1-0.6-1.5-0.3
	c-0.9,0.6-1.7,1.2-2.5,1.8C19.2,14.7,19.1,15.4,19.5,15.9z M52.9,10.7c-0.3,0.6,0,1.2,0.5,1.5c0.9,0.4,1.7,0.9,2.5,1.4
	c0.2,0.1,0.4,0.2,0.6,0.2c0.4,0,0.7-0.2,1-0.5c0.3-0.5,0.2-1.2-0.4-1.5c-0.9-0.5-1.8-1-2.7-1.5C53.8,9.9,53.1,10.1,52.9,10.7z
	 M26.9,11c0.2,0.4,0.6,0.7,1,0.7c0.1,0,0.3,0,0.4-0.1c0.9-0.4,1.8-0.7,2.7-1c0.6-0.2,0.9-0.8,0.7-1.4c-0.2-0.6-0.8-0.9-1.4-0.7
	c-1,0.3-1.9,0.7-2.9,1.1C26.9,9.8,26.7,10.4,26.9,11z M33.9,65.7c0.5,0,1-0.3,1.1-0.8c0.1-0.6-0.2-1.2-0.8-1.4
	c-0.9-0.2-1.8-0.5-2.7-0.8c-0.6-0.2-1.2,0.1-1.4,0.7c-0.2,0.6,0.1,1.2,0.7,1.4c1,0.4,2,0.7,3,0.9C33.7,65.7,33.8,65.7,33.9,65.7z
	 M25.8,62.1c0.4,0,0.7-0.2,0.9-0.5c0.3-0.5,0.2-1.2-0.3-1.5c-0.8-0.5-1.5-1.1-2.3-1.7c-0.5-0.4-1.2-0.3-1.6,0.1
	c-0.4,0.5-0.3,1.2,0.1,1.6c0.8,0.7,1.6,1.3,2.5,1.9C25.4,62,25.6,62.1,25.8,62.1z M63.5,51.1c0.1,0.1,0.3,0.1,0.5,0.1
	c0.4,0,0.8-0.2,1-0.6c0.4-0.9,0.8-1.9,1.1-2.9c0.2-0.6-0.1-1.2-0.7-1.4c-0.6-0.2-1.2,0.1-1.4,0.7c-0.3,0.9-0.6,1.8-1,2.6
	C62.7,50.2,62.9,50.8,63.5,51.1z M16.3,46.7c-0.3-0.9-0.5-1.8-0.7-2.8c-0.1-0.6-0.7-1-1.3-0.9c-0.6,0.1-1,0.7-0.9,1.3
	c0.2,1,0.4,2,0.8,3c0.1,0.5,0.6,0.8,1.1,0.8c0.1,0,0.2,0,0.3-0.1C16.2,47.9,16.5,47.3,16.3,46.7z M67.3,41.6
	c0.1-0.8,0.1-1.6,0.1-2.4l0-0.7c0-0.6-0.5-1.1-1.1-1.1c-0.6,0-1.1,0.5-1.1,1.1l0,0.7c0,0.7,0,1.4-0.1,2.2c-0.1,0.6,0.4,1.2,1,1.2
	c0,0,0.1,0,0.1,0C66.8,42.6,67.2,42.2,67.3,41.6z M13,38.2c0,0.6,0.5,1.1,1.1,1.2h0c0.6,0,1.1-0.5,1.1-1.1c0-0.9,0.1-1.9,0.3-2.8
	c0.1-0.6-0.3-1.2-0.9-1.3c-0.6-0.1-1.2,0.3-1.3,0.9C13.2,36.1,13.1,37.1,13,38.2z M65.4,33.8c0.1,0,0.2,0,0.3,0
	c0.6-0.2,1-0.8,0.8-1.4c-0.3-1-0.6-2-0.9-3c-0.2-0.6-0.9-0.9-1.4-0.6c-0.6,0.2-0.9,0.9-0.6,1.4c0.3,0.9,0.6,1.8,0.9,2.7
	C64.5,33.4,65,33.8,65.4,33.8z M44.7,14.8l0.7,0.1c0.7,0.2,1.4,0.3,2.1,0.5c0.6,0.2,1.2-0.1,1.4-0.7c0,0,0-0.1,0-0.1
	c0.1-0.6-0.2-1.1-0.8-1.3c-0.8-0.2-1.5-0.4-2.3-0.6l-0.7-0.1c-0.6-0.1-1.2,0.2-1.3,0.9C43.7,14.2,44.1,14.7,44.7,14.8z M36.2,14.7
	c0.9-0.1,1.9-0.2,2.8-0.3c0.5,0,0.9-0.4,1-0.9c0-0.1,0-0.2,0-0.3c0-0.6-0.5-1.1-1.2-1.1c-1,0-2.1,0.1-3.1,0.3
	c-0.6,0.1-1,0.7-0.9,1.3C35,14.4,35.6,14.8,36.2,14.7z M15.6,30.6c0.1,0.1,0.3,0.1,0.4,0.1c0.4,0,0.9-0.3,1-0.7
	c0.4-0.9,0.8-1.7,1.2-2.6c0.3-0.5,0.1-1.2-0.4-1.5c-0.5-0.3-1.2-0.1-1.5,0.4c-0.5,0.9-0.9,1.9-1.3,2.8C14.7,29.7,15,30.3,15.6,30.6z
	 M22,19c-0.3,0.3-0.6,0.6-0.9,0.9c-0.4,0.4-0.8,0.9-1.2,1.3c-0.4,0.5-0.4,1.2,0.1,1.6c0.2,0.2,0.5,0.3,0.7,0.3
	c0.3,0,0.6-0.1,0.8-0.4c0.4-0.4,0.7-0.8,1.1-1.2c0.3-0.3,0.6-0.6,0.9-0.8c0.5-0.4,0.5-1.1,0.1-1.6C23.1,18.7,22.4,18.6,22,19z
	 M62.2,52.4c-0.4-0.4-1.4-0.7-2.9,0.1L58.7,52c3.9-5.7,5-12.9,2.9-19.4c-3-9.4-11.6-15.7-21.4-15.7c-2.3,0-4.5,0.3-6.7,1
	C21.7,21.6,15.1,34.2,18.8,46c3,9.4,11.6,15.7,21.4,15.7c2.3,0,4.5-0.4,6.7-1c2.1-0.7,4.2-1.7,6-3l0.5,0.5c-0.5,0.9-1,2.1-0.1,2.9
	c0.7,0.7,11.5,11.5,11.5,11.5c0.2,0.2,0.7,0.5,1.4,0.5c2.5,0,6.6-4.2,7.6-6.6c0.6-1.4,0.2-2.2-0.3-2.7L62.2,52.4z M70.1,68.2
	c-1.6,1.7-3.2,2.7-3.8,2.8c-1.1-1.1-9.5-9.5-11.1-11.1c0.1-0.2,0.2-0.5,0.6-1.1c0.3-0.4,0.3-1.1-0.1-1.4l-1.8-1.8
	c-0.4-0.4-1-0.4-1.5-0.1c-1.9,1.4-4,2.5-6.2,3.2c-2,0.6-4,0.9-6.1,0.9c-8.9,0-16.6-5.7-19.3-14.2c-3.3-10.6,2.6-22,13.2-25.4
	c2-0.6,4-0.9,6.1-0.9c8.9,0,16.6,5.7,19.3,14.2c1.9,6.2,0.8,13-3.1,18.2c-0.3,0.4-0.3,1.1,0.1,1.5l1.8,1.8c0.4,0.4,1,0.5,1.5,0.2
	c0.5-0.4,0.9-0.6,1.1-0.6L72,65.2C72,65.5,71.6,66.6,70.1,68.2z M52,32.3h-6.8v-5.1c0-0.6-0.5-1.1-1.1-1.1h-7.9
	c-0.6,0-1.1,0.5-1.1,1.1v9.6h-6.8c-0.6,0-1.1,0.5-1.1,1.1v11.7c0,0.6,0.5,1.1,1.1,1.1H52c0.6,0,1.1-0.5,1.1-1.1V33.4
	C53.1,32.8,52.6,32.3,52,32.3z M34.9,48.4h-5.7V39h5.7V48.4z M42.9,48.4h-5.7V28.3h5.7V48.4z M50.8,48.4h-5.7V34.5h5.7V48.4z"/>
</svg>
