<?xml version="1.0" encoding="utf-8"?>
<!-- Generator: Adobe Illustrator 19.0.0, SVG Export Plug-In . SVG Version: 6.00 Build 0)  -->
<svg version="1.1" id="图层_1" xmlns="http://www.w3.org/2000/svg" xmlns:xlink="http://www.w3.org/1999/xlink" x="0px" y="0px"
	 viewBox="284 -234 612 512" style="enable-background:new 284 -234 612 512;" xml:space="preserve">
<style type="text/css">
	.st0{fill:url(#XMLID_2_);}
</style>
<linearGradient id="XMLID_2_" gradientUnits="userSpaceOnUse" x1="423.6" y1="-202.1" x2="757.75" y2="132.05" gradientTransform="matrix(1 0 0 -1 0 44)">
	<stop  offset="0" style="stop-color:#B21E23"/>
	<stop  offset="1" style="stop-color:#D45D26"/>
</linearGradient>
<path id="XMLID_383_" class="st0" d="M869.4,58.3l3.7-2.2V44.5l-10-5.8l-10,5.8v11.6l3.7,2.2L833.1,72l-63.9-35.8V-2.2l-34.1-19.7
	L701.6-2.6l-40.9-23v-80.5l-60.6-35l11.6-6.7v-24.6l-20.9-12c-0.1-0.4-0.4-0.8-0.9-0.8s-0.9,0.4-0.9,0.9c0,0.1,0,0.2,0.1,0.3
	L569-172.4v24.6l11.6,6.7l-60.6,35v81.3l0.5,0.3l-39.6,22l-33.6-19.4L413.2-2.2V35l-66.7,37l-23.7-13.7l3.7-2.2V44.5l-10-5.8
	l-10,5.8v11.6l3.7,2.2l-24.5,14.2v35.7l30.4,17.6l0.5,0.3l30.9-17.8V73.7l65.8-36.5l33.6,19.4l0.5,0.3l33-19L543,74v54.5l-60.6,34.3
	L462,151l-21.3,12.3v24.6l21.3,12.3l19.2-11.1l88,50.7v23.7l21.3,12.3l21.3-12.3v-23.7l90.2-51l19.7,11.4l21.3-12.3v-24.6L721.7,151
	l-20.4,11.8L642.6,129V74.4l62.3-35.2l30.5,17.6l33-19.1l64.1,35.9v34.6l30.9,17.8l30.9-17.8V72.5L869.4,58.3z M316.5,39.8l8.7,5
	l-8.7,5l-8.7-5L316.5,39.8z M307.4,55.6v-10l9.1,5.3l9.1-5.3v10l-3.7,2.2l0,0l0,0l-4.9,2.8c-0.3-0.1-0.6-0.1-0.9,0l-4.9-2.8l0,0l0,0
	L307.4,55.6z M312.1,59.3l3.5,2c0,0.2,0.1,0.5,0.3,0.6c0.2,0.2,0.4,0.3,0.6,0.3c0.2,0,0.5-0.1,0.7-0.3c0.2-0.2,0.3-0.4,0.3-0.7l0,0
	l3.5-2l23.7,13.7l-8.6,5l-18.6-10.7l0,0c0-0.5-0.4-0.9-0.9-0.9s-0.9,0.4-0.9,0.9l0,0l-18.6,10.7l-8.6-5L312.1,59.3z M336,80.1v21.4
	l-18.6,10.7V90.8L336,80.1z M315.6,123.3l-28.1-16.2V74.6l8.6,5v22.5l19.5,11.3V123.3z M315.6,112.3L297,101.6V80.2l18.6,10.7V112.3
	z M298,78.5L316.1,68c0.1,0.1,0.3,0.1,0.4,0.1c0.2,0,0.3,0,0.4-0.1l18.2,10.5l-18.6,10.7L298,78.5z M345.6,107.1l-28.1,16.2v-10
	L337,102V79.5l8.6-5C345.6,74.5,345.6,107.1,345.6,107.1z M447.3-19.8l31.3,18.1l-31.3,18.1L416-1.7L447.3-19.8z M479.5,35.1
	l-17.2-9.9l-0.9,1.6l17,9.8l-31.1,18L415.2,36l16.7-9.2l-0.9-1.6L415.2,34V-0.1l32.2,18.6l32.2-18.6L479.5,35.1L479.5,35.1z
	 M461.7,153.2c0.1,0,0.1,0,0.2,0s0.1,0,0.2,0l18.4,10.6l-18.6,10.7l-18.6-10.7L461.7,153.2z M481.3,186.9l-0.3,0.2l-9.1-5.3
	l-0.9,1.6l8.2,4.7l-17.3,10l-19.5-11.3v-21.4l19.5,11.3l19.5-11.3v21.5H481.3z M721.3,153.2c0.1,0,0.1,0,0.2,0c0.1,0,0.1,0,0.2,0
	l18.4,10.6l-18.6,10.7l-18.6-10.7L721.3,153.2z M702,165.4l19.5,11.3l19.5-11.3v21.4l-19.5,11.3l-17.8-10.3l8.7-4.9l-0.9-1.6
	l-9.5,5.3V165.4L702,165.4z M735.1-19.8l31.3,18.1l-31.3,18.1L703.8-1.7L735.1-19.8z M560.1-44.3l14.9-8.3l-0.9-1.6l-15.9,8.8
	l-1.3-0.7v-36.4l31.5,18.2v36.4L560.1-44.3z M588.5-25.8v36.4l-62.4-36l32.2-17.8L588.5-25.8z M558.8-85.7l30.6-17.7v18.2h1.9v-18.2
	l30.6,17.7l-31.6,18.2L558.8-85.7z M622-45.2L592.2-28v-36.4l31.5-18.2v36.2l-15.6-8.8l-0.9,1.6L622-45.2z M592.2-25.8l31.7-18.3
	l32,17.9l-63.7,36.8V-25.8z M625.5-45.3v-38.3l31.5-18.2v74.1L625.5-45.3z M655.2-105l-31.5,18.2l-32.5-18.7V-136l5.1-3L655.2-105z
	 M590.3-182.6l18.6,10.7l-19,10.7l-18.2-10.7L590.3-182.6z M570.8-148.8v-21.4l19.1,11.2l19.9-11.3v21.5l-19.5,11.3L570.8-148.8z
	 M584.2-138.9l5.1,3v30.4l-32.4,18.7L525.4-105L584.2-138.9z M523.6-101.8l31.5,18.2v38.5l1.2,0.7l-32.1,17.9l-0.6-0.3V-101.8
	L523.6-101.8z M609.8,262.5l-19.5,11.3l-19.5-11.3v-21.4l19.1,11.2l19.9-11.3V262.5z M571.7,239.5l18.6-10.7l18.6,10.7l-19,10.7
	L571.7,239.5z M700.1,164.4v23.4l-89.5,50.6l-19.8-11.5c-0.1-0.5-0.4-0.8-0.9-0.8s-0.9,0.4-0.9,0.9c0,0.1,0,0.2,0.1,0.3l-19,11
	l-87.2-50.2l0.3-0.2v-23.6l60.3-34.1l48.5,28l0.7,0.4l48.7-28.1L700.1,164.4z M592.6,39.8l9.1-5.3v10.3l-3.6,2.1l-0.5-0.3l-0.5,0.8
	l-3.9,2.3l0,0c-0.3-0.3-1-0.3-1.3,0l0,0l-3.9-2.3l-0.5-0.8l-0.5,0.3l-3.6-2.1V34.5L592.6,39.8z M584.2,33.9l8.4-4.8l8.4,4.8
	l-8.4,4.8L584.2,33.9z M588.8,49l3,1.7c0,0.1,0.1,0.3,0.2,0.4c0.2,0.2,0.4,0.3,0.7,0.3c0.3,0,0.5-0.1,0.7-0.3
	c0.1-0.1,0.2-0.2,0.2-0.4l3-1.7l42,24.3l-11.7,6.8l-33.2-19.2c-0.1-0.4-0.4-0.7-0.9-0.7c-0.4,0-0.8,0.3-0.9,0.7l-33.2,19.2L547,73.3
	L588.8,49z M559.8,121l15.2-8.6l-0.9-1.6l-15.1,8.5v-36l32.2,18.6v37.2L559.8,121z M591.3,141.3v13.6l-45.2-26.1l11.9-6.7
	L591.3,141.3z M560.4,81.1l32.2-18.6l32.2,18.6l-32.2,18.6L560.4,81.1z M625.1,121.1l-31.2,18v-37.2l32.2-18.6v36.2L608,109.1
	l-0.9,1.6L625.1,121.1z M593.9,141.3l33.1-19.1l11.8,6.8L594,154.9v-13.6H593.9z M628,120.6V82.2l11.7-6.8v51.9L628,120.6z
	 M557.2,82.2v38.1l-11.7,6.6V75.5L557.2,82.2z M642.1,72.3L599,47.5l3.6-2.1V33.8l-0.6-0.4v-0.1l0,0l-9.3-5.4l-9.3,5.4l0,0v0.1
	l-0.6,0.4v11.6l3.6,2.1l-42.5,24.6l-62.3-35.9V-0.6l40.9-22.7l68,39.3l69.3-40l41.5,23.3v37.9l1.7,1L642.1,72.3z M767.3,35.1
	l-17.7-9.9l-0.9,1.6l17.5,9.8l-31.1,18l-28.6-16.5l15.4-8.7l-0.9-1.6l-16.4,9.3l-1.7-1V0l32.2,18.6L767.3,0V35.1z M863.1,39.8l8.7,5
	l-8.7,5l-8.7-5L863.1,39.8z M854,55.6v-10l9.1,5.3l9.1-5.3v10l-3.7,2.2l0,0l0,0l-4.9,2.8c-0.3-0.2-0.6-0.2-0.9,0l-4.9-2.8l0,0l0,0
	L854,55.6z M858.6,59.4L858.6,59.4l3.5,2c0,0.2,0.1,0.5,0.3,0.6c0.2,0.2,0.4,0.3,0.7,0.3c0.2,0,0.5-0.1,0.6-0.3
	c0.2-0.2,0.3-0.4,0.3-0.6l3.5-2l0,0l23.7,13.7l-8.6,5L864,67.4l0,0c0-0.5-0.4-0.9-0.9-0.9s-0.9,0.4-0.9,0.9l0,0l-18.6,10.7l-8.6-5
	L858.6,59.4z M882.6,80.1v21.4L864,112.2V90.8L882.6,80.1z M862.2,123.3l-28.1-16.2V74.6l8.6,5v22.5l19.5,11.3V123.3z M862.2,112.3
	l-18.6-10.7V80.2l18.6,10.7V112.3z M844.5,78.5L862.6,68c0.1,0.1,0.3,0.1,0.4,0.1c0.2,0,0.3,0,0.4-0.1l18.1,10.5l-18.6,10.7
	L844.5,78.5z M892.1,107.1L864,123.3v-10l19.5-11.3V79.5l8.6-5V107.1z M471.9,141.8v-11.6l-10-5.8l-10,5.8v11.6l10,5.8L471.9,141.8z
	 M461.9,125.4l8.7,5l-8.7,5l-8.7-5L461.9,125.4z M461.2,145.8c-0.1,0.1-0.1,0.1-0.1,0.2l-8.3-4.8v-10l9.1,5.3l9.1-5.3v10l-8.3,4.8
	c0-0.1-0.1-0.2-0.1-0.2C462.2,145.5,461.5,145.5,461.2,145.8z M711.4,141.8l10,5.8l10-5.8v-11.6l-10-5.8l-10,5.8V141.8z
	 M721.5,125.4l8.7,5l-8.7,5l-8.7-5L721.5,125.4z M712.4,131.2l9.1,5.3l9.1-5.3v10l-8.3,4.8c0-0.1-0.1-0.2-0.2-0.2
	c-0.3-0.3-1-0.3-1.3,0c-0.1,0.1-0.1,0.1-0.1,0.2l-8.3-4.8L712.4,131.2L712.4,131.2z M447.3-45.5c-0.5,0-0.9,0.4-0.9,0.9
	s0.4,0.9,0.9,0.9s0.9-0.4,0.9-0.9C448.2-45,447.8-45.5,447.3-45.5z M447.9,0.3c0.2-0.2,0.3-0.4,0.3-0.6c0-0.3-0.1-0.5-0.3-0.7
	c-0.3-0.3-1-0.4-1.3,0c-0.2,0.2-0.3,0.4-0.3,0.7c0,0.2,0.1,0.5,0.3,0.6c0.2,0.2,0.4,0.3,0.7,0.3C447.5,0.6,447.8,0.5,447.9,0.3z
	 M447.3-36.6c-0.5,0-0.9,0.4-0.9,0.9s0.4,0.9,0.9,0.9s0.9-0.4,0.9-0.9C448.2-36.2,447.8-36.6,447.3-36.6z M446.6-52.7
	c0.1,0.1,0.3,0.2,0.4,0.2l0.3,0.1l0.3-0.1c0.2,0,0.3-0.1,0.4-0.2l0,0l20.7-11.9v-24.6l-21.3-12.3l-21.3,12.3v24.6L446.6-52.7
	L446.6-52.7z M447.3-99.5l18.6,10.7l-18.6,10.7l-18.6-10.7L447.3-99.5z M427.8-87.2l19.5,11.3l19.5-11.3v21.4l-19.5,11.3l-19.5-11.2
	V-87.2z M447.3-27.8c-0.5,0-0.9,0.4-0.9,0.9s0.4,0.9,0.9,0.9s0.9-0.4,0.9-0.9C448.2-27.4,447.8-27.8,447.3-27.8z M447.3-17.1
	c0.5,0,0.9-0.4,0.9-0.9s-0.4-0.9-0.9-0.9s-0.9,0.4-0.9,0.9S446.8-17.1,447.3-17.1z M447.3-8.2c0.5,0,0.9-0.4,0.9-0.9
	s-0.4-0.9-0.9-0.9s-0.9,0.4-0.9,0.9C446.4-8.7,446.8-8.2,447.3-8.2z M316.5,74c0.5,0,0.9-0.4,0.9-0.9s-0.4-0.9-0.9-0.9
	s-0.9,0.4-0.9,0.9S316,74,316.5,74z M315.9,78.3c-0.2,0.2-0.3,0.4-0.3,0.7c0,0.3,0.1,0.5,0.3,0.6c0.2,0.2,0.4,0.3,0.6,0.3
	c0.3,0,0.5-0.1,0.7-0.3c0.2-0.2,0.3-0.4,0.3-0.7c0-0.2-0.1-0.5-0.3-0.7C316.8,78,316.2,78,315.9,78.3z M462.5,164.7
	c0.2-0.2,0.3-0.4,0.3-0.7c0-0.2-0.1-0.5-0.3-0.7c-0.3-0.3-1-0.3-1.3,0c-0.2,0.2-0.3,0.4-0.3,0.7c0,0.3,0.1,0.5,0.3,0.7
	c0.2,0.2,0.4,0.3,0.7,0.3C462.1,165,462.3,164.9,462.5,164.7z M461.8,159.1c0.5,0,0.9-0.4,0.9-0.9s-0.4-0.9-0.9-0.9
	s-0.9,0.4-0.9,0.9S461.3,159.1,461.8,159.1z M721.5,159.1c0.5,0,0.9-0.4,0.9-0.9s-0.4-0.9-0.9-0.9s-0.9,0.4-0.9,0.9
	S721,159.1,721.5,159.1z M722.1,164.7c0.2-0.2,0.3-0.4,0.3-0.7c0-0.2-0.1-0.5-0.3-0.7c-0.3-0.3-1-0.3-1.3,0
	c-0.2,0.2-0.3,0.4-0.3,0.7c0,0.3,0.1,0.5,0.3,0.7s0.4,0.3,0.7,0.3C721.8,165,722,164.9,722.1,164.7z M592.6,67.3
	c0.5,0,0.9-0.4,0.9-0.9s-0.4-0.9-0.9-0.9s-0.9,0.4-0.9,0.9C591.7,66.8,592.1,67.3,592.6,67.3z M592.6,56.6c0.5,0,0.9-0.4,0.9-0.9
	s-0.4-0.9-0.9-0.9s-0.9,0.4-0.9,0.9S592.1,56.6,592.6,56.6z M592.6,72.6c0.5,0,0.9-0.4,0.9-0.9s-0.4-0.9-0.9-0.9s-0.9,0.4-0.9,0.9
	C591.7,72.1,592.1,72.6,592.6,72.6z M592.6,77.9c0.5,0,0.9-0.4,0.9-0.9s-0.4-0.9-0.9-0.9s-0.9,0.4-0.9,0.9S592.1,77.9,592.6,77.9z
	 M593.3,82.9c0.2-0.2,0.3-0.4,0.3-0.6c0-0.3-0.1-0.5-0.3-0.7c-0.3-0.3-1-0.3-1.3,0c-0.2,0.2-0.3,0.4-0.3,0.7c0,0.2,0.1,0.5,0.3,0.6
	c0.2,0.2,0.4,0.3,0.7,0.3C593,83.2,593.1,83.1,593.3,82.9z M862.4,78.3c-0.2,0.2-0.3,0.4-0.3,0.7c0,0.3,0.1,0.5,0.3,0.7
	s0.4,0.3,0.7,0.3c0.2,0,0.5-0.1,0.6-0.3c0.2-0.2,0.3-0.4,0.3-0.6s-0.1-0.5-0.3-0.7C863.4,78,862.8,78,862.4,78.3z M863.1,74
	c0.5,0,0.9-0.4,0.9-0.9s-0.4-0.9-0.9-0.9s-0.9,0.4-0.9,0.9S862.6,74,863.1,74z M735.1-8.2c0.5,0,0.9-0.4,0.9-0.9s-0.4-0.9-0.9-0.9
	s-0.9,0.4-0.9,0.9C734.2-8.7,734.6-8.2,735.1-8.2z M736.1-0.3c0-0.2-0.1-0.5-0.3-0.6c-0.3-0.3-1-0.4-1.3,0c-0.2,0.2-0.3,0.4-0.3,0.6
	c0,0.3,0.1,0.5,0.3,0.7s0.4,0.3,0.6,0.3s0.5-0.1,0.7-0.3S736.1-0.1,736.1-0.3z M735.1-17.1c0.5,0,0.9-0.4,0.9-0.9s-0.4-0.9-0.9-0.9
	s-0.9,0.4-0.9,0.9S734.6-17.1,735.1-17.1z M735.1-45.5c-0.5,0-0.9,0.4-0.9,0.9s0.4,0.9,0.9,0.9s0.9-0.4,0.9-0.9
	C736.1-45,735.6-45.5,735.1-45.5z M734.5-52.7c0.1,0.1,0.2,0.2,0.4,0.2l0.3,0.2l0.3-0.2c0.1,0,0.3-0.1,0.4-0.2l0,0l20.7-11.9v-24.6
	l-21.3-12.3l-21.5,12.2v24.6L734.5-52.7L734.5-52.7z M735.1-99.5l18.6,10.7l-18.6,10.7l-18.6-10.7L735.1-99.5z M715.6-87.2
	l19.5,11.3l19.5-11.3v21.4l-19.5,11.3l-19.5-11.3V-87.2z M735.1-36.6c-0.5,0-0.9,0.4-0.9,0.9s0.4,0.9,0.9,0.9s0.9-0.4,0.9-0.9
	C736.1-36.2,735.6-36.6,735.1-36.6z M735.1-27.8c-0.5,0-0.9,0.4-0.9,0.9s0.4,0.9,0.9,0.9s0.9-0.4,0.9-0.9
	C736.1-27.4,735.6-27.8,735.1-27.8z M589.2-208.6c0.2,0.2,0.4,0.3,0.6,0.3c0.3,0,0.5-0.1,0.7-0.3c0.1-0.1,0.2-0.3,0.2-0.5l9.1-5.3
	V-226l-10-5.8l-10,5.8v11.6l9.1,5.3C589-208.9,589.1-208.7,589.2-208.6z M589.9-230.7l8.7,5l-8.7,5l-8.7-5L589.9-230.7z
	 M580.8-224.9l9.1,5.3l9.1-5.3v10l-8.6,5c-0.3-0.2-0.7-0.2-1.1,0l-8.6-5v-10H580.8z M589.9-197.7c-0.5,0-0.9,0.4-0.9,0.9
	s0.4,0.9,0.9,0.9s0.9-0.4,0.9-0.9S590.4-197.7,589.9-197.7z M589.9-191.5c-0.5,0-0.9,0.4-0.9,0.9s0.4,0.9,0.9,0.9s0.9-0.4,0.9-0.9
	S590.4-191.5,589.9-191.5z M589.9-203.9c-0.5,0-0.9,0.4-0.9,0.9s0.4,0.9,0.9,0.9s0.9-0.4,0.9-0.9
	C590.8-203.5,590.4-203.9,589.9-203.9z M589.9-177.2c0.5,0,0.9-0.4,0.9-0.9s-0.4-0.9-0.9-0.9s-0.9,0.4-0.9,0.9
	S589.4-177.2,589.9-177.2z M590.8-171.9c0-0.2-0.1-0.5-0.3-0.6c-0.3-0.4-1-0.4-1.3,0c-0.2,0.2-0.3,0.4-0.3,0.6
	c0,0.3,0.1,0.5,0.3,0.7s0.4,0.3,0.6,0.3c0.3,0,0.5-0.1,0.7-0.3C590.7-171.4,590.8-171.6,590.8-171.9z M589.9,213.6
	c-0.5,0-0.9,0.4-0.9,0.9s0.4,0.9,0.9,0.9s0.9-0.4,0.9-0.9C590.8,214.1,590.4,213.6,589.9,213.6z M589.9,219.9
	c-0.5,0-0.9,0.4-0.9,0.9s0.4,0.9,0.9,0.9s0.9-0.4,0.9-0.9S590.4,219.9,589.9,219.9z M589.9,234.2c0.5,0,0.9-0.4,0.9-0.9
	s-0.4-0.9-0.9-0.9s-0.9,0.4-0.9,0.9C589,233.8,589.4,234.2,589.9,234.2z M589.9,207.4c-0.5,0-0.9,0.4-0.9,0.9s0.4,0.9,0.9,0.9
	s0.9-0.4,0.9-0.9S590.4,207.4,589.9,207.4z M579.8,185.4V197l9.1,5.3c0,0.2,0.1,0.4,0.2,0.5c0.2,0.2,0.4,0.3,0.6,0.3
	c0.3,0,0.5-0.1,0.7-0.3c0.1-0.2,0.2-0.3,0.2-0.5l9.1-5.3v-11.6l-10-5.8L579.8,185.4z M599,196.4l-8.6,5c-0.3-0.2-0.7-0.2-1.1,0
	l-8.6-5v-10l9.1,5.3l9.1-5.3v10H599z M589.9,190.6l-8.7-5l8.7-5l8.7,5L589.9,190.6z M590.8,239.5c0-0.2-0.1-0.5-0.3-0.7
	c-0.3-0.3-1-0.3-1.3,0c-0.2,0.2-0.3,0.4-0.3,0.7c0,0.3,0.1,0.5,0.3,0.7s0.4,0.3,0.6,0.3c0.3,0,0.5-0.1,0.7-0.3
	C590.7,240,590.8,239.8,590.8,239.5z"/>
</svg>
