<?xml version="1.0" encoding="utf-8"?>
<!-- Generator: Adobe Illustrator 19.0.0, SVG Export Plug-In . SVG Version: 6.00 Build 0)  -->
<svg version="1.1" id="图层_1" xmlns="http://www.w3.org/2000/svg" xmlns:xlink="http://www.w3.org/1999/xlink" x="0px" y="0px"
	 viewBox="0 0 498 428" style="enable-background:new 0 0 498 428;" xml:space="preserve">
<style type="text/css">
	.st0{fill:url(#XMLID_23_);}
</style>
<linearGradient id="XMLID_23_" gradientUnits="userSpaceOnUse" x1="84.282" y1="379.8631" x2="418.1788" y2="45.9662">
	<stop  offset="0" style="stop-color:#BC1A21"/>
	<stop  offset="1" style="stop-color:#DE5F22"/>
</linearGradient>
<path id="XMLID_88_" class="st0" d="M333,239.8c6.1,0,11-4.9,11-11c0-6.1-4.9-11-11-11c-1.4,0-2.8,0.3-4.1,0.8l-24.2-41.9
	c2.5-2,4.1-5.1,4.1-8.5c0-6.1-4.9-11-11-11c-5.5,0-10.1,4.1-10.9,9.4h-47.3c-0.8-5.3-5.3-9.4-10.9-9.4c-6.1,0-11,4.9-11,11
	c0,3.3,1.4,6.2,3.7,8.2l-24.4,42.2c-1.3-0.5-2.6-0.8-4.1-0.8c-6.1,0-11,4.9-11,11c0,6.1,4.9,11,11,11c1.4,0,2.8-0.3,4.1-0.8
	l23.9,41.4c-2.9,2-4.8,5.3-4.8,9.1c0,6.1,4.9,11,11,11c5.5,0,10.1-4.1,10.9-9.4H287c0.8,5.3,5.3,9.4,10.9,9.4c6.1,0,11-4.9,11-11
	c0-3.4-1.6-6.5-4.1-8.5l24.2-41.9C330.2,239.5,331.6,239.8,333,239.8z M326.2,220.2c-2.2,1.7-3.7,4.2-4.1,7.1h-44.6
	c-0.5-4.3-2.8-8.1-6.2-10.4l22.4-38.4c1.3,0.5,2.7,0.8,4.1,0.8c1.5,0,2.9-0.3,4.2-0.8L326.2,220.2z M274.5,228.8
	c0,6.3-5.2,11.5-11.5,11.5c-6.3,0-11.5-5.2-11.5-11.5c0-6.3,5.2-11.5,11.5-11.5C269.3,217.3,274.5,222.5,274.5,228.8z M297.8,160.3
	c4.3,0,7.8,3.5,7.8,7.8c0,4.3-3.5,7.8-7.8,7.8c-4.3,0-7.8-3.5-7.8-7.8C290,163.8,293.5,160.3,297.8,160.3z M239.6,169.7H287
	c0.4,2.8,1.9,5.3,4,7l-22.4,38.5c-1.7-0.7-3.6-1.1-5.6-1.1c-2,0-3.9,0.4-5.6,1.1l-21.9-38.4C237.7,175.1,239.2,172.6,239.6,169.7z
	 M220.9,168.2c0-4.3,3.5-7.8,7.8-7.8c4.3,0,7.8,3.5,7.8,7.8c0,4.3-3.5,7.8-7.8,7.8C224.4,176,220.9,172.5,220.9,168.2z M224.1,178.1
	c1.4,0.7,3,1.1,4.7,1.1c1.4,0,2.8-0.3,4-0.8l21.9,38.4c-3.4,2.4-5.7,6.1-6.2,10.4h-44.6c-0.4-2.8-1.9-5.3-4.1-7.1L224.1,178.1z
	 M193,236.6c-4.3,0-7.8-3.5-7.8-7.8c0-4.3,3.5-7.8,7.8-7.8c4.3,0,7.8,3.5,7.8,7.8C200.8,233.1,197.3,236.6,193,236.6z M199.8,237.4
	c2.2-1.7,3.7-4.2,4.1-7.1h44.6c0.4,4,2.5,7.6,5.5,9.9l-22.7,38.9c-1.3-0.5-2.7-0.8-4.1-0.8c-1.2,0-2.3,0.2-3.4,0.5L199.8,237.4z
	 M227.2,297.3c-4.3,0-7.8-3.5-7.8-7.8c0-4.3,3.5-7.8,7.8-7.8c4.3,0,7.8,3.5,7.8,7.8C235,293.8,231.5,297.3,227.2,297.3z M287,287.9
	H238c-0.4-2.8-1.9-5.3-4-7l22.6-38.9c1.9,0.9,4.1,1.5,6.3,1.5c2.2,0,4.2-0.5,6.1-1.3l22,38.7C288.9,282.5,287.4,285,287,287.9z
	 M305.7,289.4c0,4.3-3.5,7.8-7.8,7.8c-4.3,0-7.8-3.5-7.8-7.8c0-4.3,3.5-7.8,7.8-7.8C302.2,281.6,305.7,285.1,305.7,289.4z
	 M302,279.3c-1.3-0.5-2.7-0.8-4.2-0.8c-1.4,0-2.8,0.3-4,0.8l-22.1-38.7c3.2-2.4,5.3-6,5.8-10.1h44.6c0.4,2.8,1.9,5.3,4.1,7.1
	L302,279.3z M325.2,228.8c0-4.3,3.5-7.8,7.8-7.8c4.3,0,7.8,3.5,7.8,7.8c0,4.3-3.5,7.8-7.8,7.8C328.7,236.6,325.2,233.1,325.2,228.8z
	 M358.4,306.9h-24.1c-0.9,0-1.7,0.7-1.7,1.7c0,0.9,0.7,1.7,1.7,1.7h24.1c0.9,0,1.7-0.7,1.7-1.7C360.1,307.6,359.3,306.9,358.4,306.9
	z M380.5,308.5c0-0.9-0.7-1.7-1.7-1.7h-9.6c-0.9,0-1.7,0.7-1.7,1.7c0,0.9,0.7,1.7,1.7,1.7h9.6C379.8,310.2,380.5,309.5,380.5,308.5z
	 M426.9,80.4h21.7c0.9,0,1.7-0.7,1.7-1.7c0-0.9-0.7-1.7-1.7-1.7h-21.7c-0.9,0-1.7,0.7-1.7,1.7C425.2,79.6,426,80.4,426.9,80.4z
	 M416,88.8h19.3c0.9,0,1.7-0.7,1.7-1.7s-0.7-1.7-1.7-1.7H416c-0.9,0-1.7,0.7-1.7,1.7S415.1,88.8,416,88.8z M197.8,128.7
	c0-0.9-0.7-1.7-1.7-1.7h-21.7c-0.9,0-1.7,0.7-1.7,1.7c0,0.9,0.8,1.7,1.7,1.7h21.7C197.1,130.4,197.8,129.6,197.8,128.7z
	 M163.6,135.5c-0.9,0-1.7,0.7-1.7,1.7c0,0.9,0.7,1.7,1.7,1.7h19.3c0.9,0,1.7-0.7,1.7-1.7c0-0.9-0.7-1.7-1.7-1.7H163.6z M98.3,341.7
	h-9.6c-0.9,0-1.7,0.7-1.7,1.7c0,0.9,0.7,1.7,1.7,1.7h9.6c0.9,0,1.7-0.7,1.7-1.7C100,342.4,99.3,341.7,98.3,341.7z M77.9,341.7H53.8
	c-0.9,0-1.7,0.7-1.7,1.7c0,0.9,0.7,1.7,1.7,1.7h24.1c0.9,0,1.7-0.7,1.7-1.7C79.5,342.4,78.8,341.7,77.9,341.7z M161.3,322.2
	c0-0.9-0.7-1.7-1.7-1.7h-16.9c-0.9,0-1.7,0.7-1.7,1.7c0,0.9,0.7,1.7,1.7,1.7h16.9C160.6,323.8,161.3,323.1,161.3,322.2z M180.7,14.3
	h16.9c0.9,0,1.7-0.7,1.7-1.7c0-0.9-0.7-1.7-1.7-1.7h-16.9c-0.9,0-1.7,0.7-1.7,1.7C179.1,13.5,179.8,14.3,180.7,14.3z M362.5,132.1
	c0.9,0,1.7-0.7,1.7-1.7c0-0.9-0.7-1.7-1.7-1.7h-2.4c-0.9,0-1.7,0.7-1.7,1.7c0,0.9,0.7,1.7,1.7,1.7H362.5z M342.2,132.1
	c0.9,0,1.7-0.7,1.7-1.7c0-0.9-0.7-1.7-1.7-1.7h-2.4c-0.9,0-1.7,0.7-1.7,1.7c0,0.9,0.7,1.7,1.7,1.7H342.2z M352.3,132.1
	c0.9,0,1.7-0.7,1.7-1.7c0-0.9-0.7-1.7-1.7-1.7h-2.4c-0.9,0-1.7,0.7-1.7,1.7c0,0.9,0.7,1.7,1.7,1.7H352.3z M50.1,85.8
	c3.5,0,6.3-2.8,6.3-6.3c0-3.5-2.8-6.3-6.3-6.3c-3.5,0-6.3,2.8-6.3,6.3C43.8,83,46.6,85.8,50.1,85.8z M50.1,76c2,0,3.5,1.6,3.5,3.5h0
	c0,2-1.6,3.5-3.5,3.5c-2,0-3.5-1.6-3.5-3.5C46.6,77.6,48.1,76,50.1,76z M367.6,17.9c3.5,0,6.3-2.8,6.3-6.3c0-3.5-2.8-6.3-6.3-6.3
	c-3.5,0-6.3,2.8-6.3,6.3C361.3,15.1,364.1,17.9,367.6,17.9z M367.6,8.1c2,0,3.5,1.6,3.5,3.5h0c0,2-1.6,3.5-3.5,3.5
	c-2,0-3.5-1.6-3.5-3.5C364,9.7,365.6,8.1,367.6,8.1z M91.3,371.8c-3.5,0-6.3,2.8-6.3,6.3c0,3.5,2.8,6.3,6.3,6.3
	c3.5,0,6.3-2.8,6.3-6.3C97.6,374.6,94.8,371.8,91.3,371.8z M94.9,378.1c0,2-1.6,3.5-3.5,3.5c-2,0-3.5-1.6-3.5-3.5
	c0-2,1.6-3.5,3.5-3.5C93.3,374.5,94.9,376.1,94.9,378.1L94.9,378.1z M378.2,379.4c-3.5,0-6.3,2.8-6.3,6.3c0,3.5,2.8,6.3,6.3,6.3
	c3.5,0,6.3-2.8,6.3-6.3C384.5,382.2,381.7,379.4,378.2,379.4z M381.7,385.7c0,2-1.6,3.5-3.5,3.5c-2,0-3.5-1.6-3.5-3.5
	c0-2,1.6-3.5,3.5-3.5C380.2,382.1,381.7,383.7,381.7,385.7L381.7,385.7z M192.4,271.6c0-3.5-2.8-6.3-6.3-6.3c-3,0-5.5,2.1-6.1,4.9
	h-48.5c-0.3,0-0.5,0.1-0.7,0.2c-0.4,0.2-0.7,0.6-0.7,1.1v29.3H81.7c-0.6-2.8-3.1-4.9-6.1-4.9c-3.5,0-6.3,2.8-6.3,6.3
	s2.8,6.3,6.3,6.3c3,0,5.5-2.1,6.1-4.9h49.8c0.7,0,1.4-0.6,1.4-1.4V273H180c0.6,2.8,3.1,4.9,6.1,4.9
	C189.6,277.9,192.4,275.1,192.4,271.6z M79.1,302.3c0,2-1.6,3.5-3.5,3.5c-2,0-3.5-1.6-3.5-3.5c0-2,1.6-3.5,3.5-3.5
	C77.6,298.7,79.1,300.3,79.1,302.3L79.1,302.3z M182.6,271.6c0-2,1.6-3.5,3.5-3.5c2,0,3.5,1.6,3.5,3.5c0,2-1.6,3.5-3.5,3.5
	C184.2,275.2,182.6,273.6,182.6,271.6z M344.9,177.9c-3.5,0-6.3,2.8-6.3,6.3c0,3.5,2.8,6.3,6.3,6.3c3,0,5.5-2.1,6.1-4.9h41.4
	c0.8,0,1.4-0.6,1.4-1.4c0-0.2,0-0.3-0.1-0.5c0.1-0.1,0.1-0.3,0.1-0.5V166h33.4c0,0,0,0,0,0c0.4,0,0.7-0.2,1-0.4
	c0.2-0.2,0.4-0.6,0.4-1c0,0,0,0,0,0v-16.3c2.8-0.6,4.9-3.1,4.9-6.1c0-3.5-2.8-6.3-6.3-6.3c-3.5,0-6.3,2.8-6.3,6.3
	c0,3,2.1,5.5,4.9,6.1v14.9h-33.5c-0.7,0-1.4,0.6-1.4,1.4v18.2H351C350.3,180,347.9,177.9,344.9,177.9z M344.9,187.8
	c-2,0-3.5-1.6-3.5-3.5c0-2,1.6-3.5,3.5-3.5c2,0,3.5,1.6,3.5,3.5C348.4,186.2,346.8,187.8,344.9,187.8z M423.7,142.2
	c0-2,1.6-3.5,3.5-3.5c2,0,3.5,1.6,3.5,3.5c0,2-1.6,3.5-3.5,3.5C425.3,145.8,423.7,144.2,423.7,142.2z M426.7,319v-26.5
	c0-0.8-0.6-1.4-1.4-1.4H408v-20.7c0-0.2,0-0.3-0.1-0.5c0.1-0.2,0.1-0.3,0.1-0.5c0-0.7-0.6-1.4-1.4-1.4H351c-0.6-2.8-3.1-4.9-6.1-4.9
	c-3.5,0-6.3,2.8-6.3,6.3c0,3.5,2.8,6.3,6.3,6.3c3,0,5.5-2.1,6.1-4.9h54.3v21.7c0,0.4,0.2,0.7,0.4,1c0.2,0.2,0.6,0.4,1,0.4
	c0,0,0,0,0,0h17.3V319c-2.8,0.6-4.9,3.1-4.9,6.1c0,3.5,2.8,6.3,6.3,6.3c3.5,0,6.3-2.8,6.3-6.3h0C431.6,322.1,429.5,319.6,426.7,319z
	 M344.9,273c-2,0-3.5-1.6-3.5-3.5c0-2,1.6-3.5,3.5-3.5c2,0,3.5,1.6,3.5,3.5C348.4,271.4,346.8,273,344.9,273z M425.3,328.6
	c-2,0-3.5-1.6-3.5-3.5c0-2,1.6-3.5,3.5-3.5c2,0,3.5,1.6,3.5,3.5h0C428.8,327,427.3,328.6,425.3,328.6z M337.8,365.7v-30.4
	c0-0.7-0.6-1.4-1.4-1.4h-73v-11.1c2.8-0.6,4.9-3.1,4.9-6.1c0-3.5-2.8-6.3-6.3-6.3c-3.5,0-6.3,2.8-6.3,6.3c0,3,2.1,5.5,4.9,6.1v11.1
	h-72.9c-0.8,0-1.4,0.6-1.4,1.4v30.4c-2.8,0.6-4.9,3.1-4.9,6.1c0,3.5,2.8,6.3,6.3,6.3c3.5,0,6.3-2.8,6.3-6.3c0-3-2.1-5.5-4.9-6.1
	v-29.1h72.9c0,0,0,0,0,0c0,0,0,0,0,0h72.9v29.1c-2.8,0.6-4.9,3.1-4.9,6.1c0,3.5,2.8,6.3,6.3,6.3c3.5,0,6.3-2.8,6.3-6.3
	C342.7,368.8,340.6,366.3,337.8,365.7z M191.3,371.8c0,2-1.6,3.5-3.5,3.5c-2,0-3.5-1.6-3.5-3.5c0-2,1.6-3.5,3.5-3.5c0,0,0,0,0,0
	c0,0,0,0,0,0C189.8,368.3,191.3,369.8,191.3,371.8z M262.1,320.3c-2,0-3.5-1.6-3.5-3.5c0-2,1.6-3.5,3.5-3.5c2,0,3.5,1.6,3.5,3.5
	C265.6,318.7,264.1,320.3,262.1,320.3z M336.4,375.3c-2,0-3.5-1.6-3.5-3.5c0-2,1.6-3.5,3.5-3.5c0,0,0,0,0,0c0,0,0,0,0,0
	c2,0,3.5,1.6,3.5,3.5C340,373.7,338.4,375.3,336.4,375.3z M161.3,91.6c3,0,5.5-2.1,6.1-4.9h46.9v21.2c0,0.7,0.6,1.4,1.4,1.4H261
	v25.3c-3,0.4-5.3,3-5.3,6.2c0,3.5,2.8,6.3,6.3,6.3c3.5,0,6.3-2.8,6.3-6.3c0-2.8-1.9-5.2-4.5-6v-25.5h44.8c0.7,0,1.4-0.6,1.4-1.4
	V86.7h46.9c0.6,2.8,3.1,4.9,6.1,4.9c3.5,0,6.3-2.8,6.3-6.3c0-3.5-2.8-6.3-6.3-6.3c-3,0-5.5,2.1-6.1,4.9h-48.3c-0.4,0-0.7,0.2-1,0.4
	c-0.2,0.2-0.4,0.6-0.4,1v21.2h-90V85.3c0-0.4-0.1-0.7-0.4-0.9c-0.2-0.3-0.6-0.4-1-0.4h-48.3c-0.6-2.8-3.1-4.9-6.1-4.9
	c-3.5,0-6.3,2.8-6.3,6.3C155.1,88.8,157.9,91.6,161.3,91.6z M359.3,85.3c0-2,1.6-3.5,3.5-3.5c2,0,3.5,1.6,3.5,3.5
	c0,2-1.6,3.5-3.5,3.5C360.9,88.9,359.3,87.3,359.3,85.3C359.3,85.3,359.3,85.3,359.3,85.3C359.3,85.3,359.3,85.3,359.3,85.3z
	 M265.4,140.8c0,2-1.6,3.5-3.5,3.5c-2,0-3.5-1.6-3.5-3.5c0-2,1.6-3.5,3.5-3.5C263.8,137.2,265.4,138.8,265.4,140.8z M161.3,81.8
	c2,0,3.5,1.6,3.5,3.5c0,0,0,0,0,0c0,0,0,0,0,0c0,2-1.6,3.5-3.5,3.5c-2,0-3.5-1.6-3.5-3.5C157.8,83.4,159.4,81.8,161.3,81.8z
	 M76.3,137.8c3,0,5.5-2.1,6.1-4.9h48.4v49.2c0,0.1,0,0.1,0,0.2c0,0.1,0,0.1,0,0.2c0,0.8,0.6,1.4,1.4,1.4H178
	c0.6,2.8,3.1,4.9,6.1,4.9c3.5,0,6.3-2.8,6.3-6.3c0-3.5-2.8-6.3-6.3-6.3c-3,0-5.5,2.1-6.1,4.9h-44.5v-49.5c0,0,0,0,0,0
	c0-0.2-0.1-0.4-0.1-0.6c-0.2-0.5-0.7-0.8-1.2-0.8c0,0,0,0,0,0H82.4c-0.6-2.8-3.1-4.9-6.1-4.9c-3.5,0-6.3,2.8-6.3,6.3
	C70.1,135,72.9,137.8,76.3,137.8z M180.6,182.4c0-2,1.6-3.5,3.5-3.5c2,0,3.5,1.6,3.5,3.5c0,2-1.6,3.5-3.5,3.5
	C182.2,186,180.6,184.4,180.6,182.4C180.6,182.5,180.6,182.4,180.6,182.4C180.6,182.4,180.6,182.4,180.6,182.4z M76.3,128
	c2,0,3.5,1.6,3.5,3.5c0,2-1.6,3.5-3.5,3.5c-2,0-3.5-1.6-3.5-3.5C72.8,129.6,74.4,128,76.3,128z M97.6,235.1h5c0.7,0,1.2-0.6,1.2-1.2
	c0-0.7-0.6-1.2-1.2-1.2h-5c-0.7,0-1.2,0.6-1.2,1.2C96.3,234.5,96.9,235.1,97.6,235.1z M64.1,224.5c0.2,0,0.4-0.1,0.6-0.2l11.6-6.5
	l11.4,6.5c0.2,0.1,0.4,0.2,0.6,0.2c0.4,0,0.9-0.2,1.1-0.6c0.3-0.6,0.1-1.4-0.5-1.7l-11.4-6.5v-11.8c0-0.7-0.6-1.2-1.2-1.2
	c-0.7,0-1.2,0.6-1.2,1.2v11.8l-11.5,6.5c-0.6,0.3-0.8,1.1-0.5,1.7C63.3,224.2,63.7,224.5,64.1,224.5z M45.1,235.1h5
	c0.7,0,1.2-0.6,1.2-1.2c0-0.7-0.6-1.2-1.2-1.2h-5c-0.7,0-1.2,0.6-1.2,1.2C43.8,234.5,44.4,235.1,45.1,235.1z M67.6,200.1h17.5
	c1.4,0,2.5-1.1,2.5-2.5v-20c0-1.4-1.1-2.5-2.5-2.5H67.6c-1.4,0-2.5,1.1-2.5,2.5v20C65.1,199,66.2,200.1,67.6,200.1z M67.6,177.7
	h17.5l0,20H67.6V177.7z M55.1,237.6h-10c-0.7,0-1.2,0.6-1.2,1.2c0,0.7,0.6,1.2,1.2,1.2h10c0.7,0,1.2-0.6,1.2-1.2
	C56.3,238.2,55.8,237.6,55.1,237.6z M61.3,247.6v-20c0-1.4-1.1-2.5-2.5-2.5H41.4c-1.4,0-2.5,1.1-2.5,2.5v20c0,1.4,1.1,2.5,2.5,2.5
	h17.5C60.2,250.1,61.3,249,61.3,247.6z M41.4,227.6h17.5l0,20H41.4V227.6z M55.1,242.6h-10c-0.7,0-1.2,0.6-1.2,1.2
	c0,0.7,0.6,1.2,1.2,1.2h10c0.7,0,1.2-0.6,1.2-1.2C56.3,243.2,55.8,242.6,55.1,242.6z M81.3,187.6h-10c-0.7,0-1.2,0.6-1.2,1.2
	c0,0.7,0.6,1.2,1.2,1.2h10c0.7,0,1.2-0.6,1.2-1.2C82.6,188.2,82,187.6,81.3,187.6z M97.6,245.1h10c0.7,0,1.2-0.6,1.2-1.2
	c0-0.7-0.6-1.2-1.2-1.2h-10c-0.7,0-1.2,0.6-1.2,1.2C96.3,244.5,96.9,245.1,97.6,245.1z M81.3,192.6h-10c-0.7,0-1.2,0.6-1.2,1.2
	c0,0.7,0.6,1.2,1.2,1.2h10c0.7,0,1.2-0.6,1.2-1.2C82.6,193.2,82,192.6,81.3,192.6z M93.8,225.1c-1.4,0-2.5,1.1-2.5,2.5v20
	c0,1.4,1.1,2.5,2.5,2.5h17.5c1.4,0,2.5-1.1,2.5-2.5v-20c0-1.4-1.1-2.5-2.5-2.5H93.8z M111.3,247.6H93.8v-20h17.5L111.3,247.6z
	 M71.3,185.1h5c0.7,0,1.2-0.6,1.2-1.2c0-0.7-0.6-1.2-1.2-1.2h-5c-0.7,0-1.2,0.6-1.2,1.2C70.1,184.6,70.6,185.1,71.3,185.1z
	 M97.6,240.1h10c0.7,0,1.2-0.6,1.2-1.2c0-0.7-0.6-1.2-1.2-1.2h-10c-0.7,0-1.2,0.6-1.2,1.2C96.3,239.5,96.9,240.1,97.6,240.1z
	 M231.8,73.5h16.3l0.3,0c0.1,0,0.1,0,0.2,0c0.1,0,0.3,0,0.4,0l0.5,0v0c4.3-0.5,7.7-4.1,7.7-8.4c0-3.7-2.5-6.9-5.9-8.1l8.7-11
	c0.9,0.4,1.9,0.6,2.9,0.6c1.1,0,2-0.2,2.9-0.7l9.2,10.4c-0.8,0.9-1.4,1.9-1.8,3.1c-3.4,0.5-6.1,3.5-6.1,7c0,3.9,3.2,7.1,7.2,7.1
	h16.3l0.3,0c0.1,0,0.1,0,0.2,0c0.1,0,0.3,0,0.4,0l0.5,0v0c4.3-0.5,7.7-4.1,7.7-8.4c0-4.7-3.9-8.5-8.6-8.5c-1.2,0-2.3,0.2-3.3,0.7
	c-1.5-2.2-4-3.5-6.7-3.5c-1.3,0-2.6,0.3-3.8,0.9L268,44.3c1.1-1.3,1.8-2.9,1.8-4.7c0-3.4-2.4-6.3-5.7-6.9V24h7.5l0.3,0
	c0.1,0,0.2,0,0.3,0c0.2,0,0.4,0,0.6,0l0.2,0v0c5.3-0.4,9.5-4.8,9.5-10.2c0-5.7-4.6-10.3-10.3-10.3c-1.5,0-2.9,0.3-4.3,0.9
	c-1.8-2.7-4.8-4.5-8.2-4.5c-4.4,0-8.3,3-9.4,7.1c-4.2,0.5-7.5,4.1-7.5,8.4c0,4.7,3.8,8.5,8.5,8.5h9.9v8.6c-3.2,0.7-5.7,3.5-5.7,6.9
	c0,1.8,0.7,3.5,1.9,4.8L248,56.6c-1,0.1-1.9,0.3-2.8,0.6c-1.5-2.2-4-3.5-6.7-3.5c-3.6,0-6.8,2.4-7.8,5.7c-3.4,0.5-6.1,3.5-6.1,7
	C224.6,70.4,227.8,73.5,231.8,73.5z M275.7,61c0.4-2.5,2.6-4.4,5.2-4.4c2.1,0,4,1.2,4.9,3.1l0.7,1.5l1.4-0.9c0.9-0.6,2-0.9,3.1-0.9
	c3.2,0,5.8,2.5,5.8,5.7c0,3.1-2.6,5.7-5.8,5.7c-0.1,0-0.3,0-0.4,0l-1.5-0.1v0.1h-14.9c-2.4,0-4.3-1.9-4.3-4.2s1.9-4.2,4.4-4.2l1.3,0
	L275.7,61z M251.5,21.2c-3.1,0-5.7-2.5-5.7-5.7s2.6-5.7,5.7-5.7l1.3,0l0.2-1.2c0.5-3.3,3.4-5.9,6.8-5.9c2.7,0,5.2,1.6,6.3,4.1
	l0.7,1.5l1.4-0.9c1.2-0.8,2.6-1.2,4.1-1.2c4.1,0,7.5,3.3,7.5,7.4c0,4.1-3.4,7.4-7.5,7.4c-0.2,0-0.3,0-0.5,0l-1.5-0.1v0.1H251.5z
	 M262.8,35.3c2.3,0,4.2,1.9,4.2,4.2c0,2.3-1.9,4.2-4.2,4.2s-4.2-1.9-4.2-4.2C258.6,37.3,260.5,35.3,262.8,35.3z M231.8,62.2l1.3,0
	l0.2-1.2c0.4-2.5,2.6-4.4,5.2-4.4c2.1,0,4,1.2,4.9,3.1l0.7,1.5l1.4-0.9c0.9-0.6,2-0.9,3.1-0.9c3.2,0,5.8,2.5,5.8,5.7
	c0,3.1-2.6,5.7-5.8,5.7c-0.1,0-0.3,0-0.4,0l-1.5-0.1v0.1h-14.9c-2.4,0-4.3-1.9-4.3-4.2S229.4,62.2,231.8,62.2z M467.7,180.3
	c-4.5,0-8.2,3.7-8.2,8.2c0,1.4,0.4,2.7,1,3.9l-13.4,13.4c-1.8-1.4-4.2-2.3-6.7-2.3c-2.5,0-4.8,0.9-6.7,2.3l-10.4-10.4
	c0.5-0.8,0.8-1.7,0.8-2.8c0-3-2.4-5.4-5.4-5.4c-3,0-5.4,2.4-5.4,5.4c0,3,2.4,5.4,5.4,5.4c1,0,1.9-0.3,2.8-0.8l10.4,10.4
	c-1.4,1.8-2.3,4.2-2.3,6.7s0.9,4.8,2.3,6.7l-17.3,17.3c-1.5-1.3-3.4-2.1-5.5-2.1c-4.5,0-8.2,3.7-8.2,8.2c0,4.5,3.7,8.2,8.2,8.2
	c4.5,0,8.2-3.7,8.2-8.2c0-1.4-0.4-2.7-1-3.9l17.5-17.5c1.5,1.2,3.3,2,5.3,2.2V239c-3.9,0.7-6.8,4-6.8,8.1c0,4.5,3.7,8.2,8.2,8.2
	s8.2-3.7,8.2-8.2c0-4-3-7.4-6.8-8.1v-13.8c2-0.2,3.8-1,5.3-2.2l10.4,10.4c-0.5,0.8-0.8,1.7-0.8,2.8c0,3,2.4,5.4,5.4,5.4
	c3,0,5.4-2.4,5.4-5.4c0-3-2.4-5.4-5.4-5.4c-1,0-1.9,0.3-2.8,0.8l-10.4-10.4c1.4-1.8,2.3-4.2,2.3-6.7s-0.9-4.8-2.3-6.7l13.2-13.2
	c1.5,1.3,3.4,2.1,5.5,2.1c4.5,0,8.2-3.7,8.2-8.2C475.9,184,472.2,180.3,467.7,180.3z M418.7,195.3c-1.5,0-2.7-1.2-2.7-2.7
	c0-1.5,1.2-2.7,2.7-2.7c1.5,0,2.7,1.2,2.7,2.7C421.4,194.1,420.2,195.3,418.7,195.3z M409.1,249.8c-3,0-5.4-2.4-5.4-5.4
	c0-3,2.4-5.4,5.4-5.4c3,0,5.4,2.4,5.4,5.4C414.6,247.4,412.1,249.8,409.1,249.8z M462.3,233.5c1.5,0,2.7,1.2,2.7,2.7
	c0,1.5-1.2,2.7-2.7,2.7c-1.5,0-2.7-1.2-2.7-2.7C459.6,234.7,460.8,233.5,462.3,233.5z M445.9,247.1c0,3-2.4,5.4-5.4,5.4
	c-3,0-5.4-2.4-5.4-5.4c0-3,2.4-5.4,5.4-5.4C443.5,241.6,445.9,244.1,445.9,247.1z M440.5,222.6c-4.5,0-8.2-3.7-8.2-8.2
	s3.7-8.2,8.2-8.2s8.2,3.7,8.2,8.2S445,222.6,440.5,222.6z M467.7,194c-3,0-5.4-2.4-5.4-5.4c0-3,2.4-5.4,5.4-5.4c3,0,5.4,2.4,5.4,5.4
	C473.2,191.5,470.7,194,467.7,194z M290.4,379.8c-4,0-7.3,2.9-7.9,6.7h-4.3c-2.1,0-3.8-1.7-3.8-3.8v-20.3h-2.7v20.3
	c0,3.6,2.9,6.5,6.5,6.5h4.3c0.6,3.8,3.9,6.7,7.9,6.7c4.4,0,8-3.6,8-8C298.4,383.4,294.8,379.8,290.4,379.8z M290.4,393.2
	c-3,0-5.4-2.4-5.4-5.4c0-3,2.4-5.4,5.4-5.4c3,0,5.4,2.4,5.4,5.4C295.8,390.8,293.3,393.2,290.4,393.2z M244.9,398.6h-5.5
	c-0.6-3.8-3.9-6.7-7.9-6.7c-4.4,0-8,3.6-8,8s3.6,8,8,8c4,0,7.3-2.9,7.9-6.7h5.5c3,0,5.4,2.4,5.4,5.4V428h2.7v-21.4
	C252.9,402.2,249.3,398.6,244.9,398.6z M231.5,405.3c-3,0-5.4-2.4-5.4-5.4c0-3,2.4-5.4,5.4-5.4c3,0,5.4,2.4,5.4,5.4
	C236.9,402.9,234.5,405.3,231.5,405.3z M290.4,398.6c-4,0-7.3,2.9-7.9,6.7H277c-4.4,0-8,3.6-8,8V428h2.7v-14.7
	c0-2.9,2.4-5.3,5.4-5.3h5.5c0.6,3.8,3.9,6.7,7.9,6.7c4.4,0,8-3.6,8-8C298.4,402.2,294.8,398.6,290.4,398.6z M290.4,411.9
	c-3,0-5.4-2.4-5.4-5.4c0-3,2.4-5.4,5.4-5.4c3,0,5.4,2.4,5.4,5.4C295.8,409.5,293.3,411.9,290.4,411.9z M254.3,378.5h-5.4
	c0-4.4-3.6-8-8-8c-4.4,0-8,3.6-8,8s3.6,8,8,8c3.5,0,6.5-2.2,7.6-5.4h5.8c3,0,5.4,2.4,5.4,5.4V428h2.7v-41.5
	C262.3,382.1,258.7,378.5,254.3,378.5z M240.9,383.8c-3,0-5.4-2.4-5.4-5.4c0-3,2.4-5.4,5.4-5.4c3,0,5.4,2.4,5.4,5.4
	C246.2,381.4,243.8,383.8,240.9,383.8z M104.9,51.2h4.8v4.8c0,0.9,0.7,1.7,1.7,1.7c0.9,0,1.7-0.8,1.7-1.7v-4.8h4.8
	c0.9,0,1.7-0.7,1.7-1.7c0-0.9-0.7-1.7-1.7-1.7H113v-4.8c0-0.9-0.7-1.7-1.7-1.7c-0.9,0-1.7,0.7-1.7,1.7v4.8h-4.8
	c-0.9,0-1.7,0.7-1.7,1.7C103.2,50.4,103.9,51.2,104.9,51.2z M29.8,187.2h-4.8v-4.8c0-0.9-0.7-1.7-1.7-1.7c-0.9,0-1.7,0.7-1.7,1.7
	v4.8H17c-0.9,0-1.7,0.7-1.7,1.7c0,0.9,0.7,1.7,1.7,1.7h4.8v4.8c0,0.9,0.7,1.7,1.7,1.7c0.9,0,1.7-0.7,1.7-1.7v-4.8h4.8
	c0.9,0,1.7-0.7,1.7-1.7C31.5,188,30.7,187.2,29.8,187.2z M495.8,258.9H491v-4.8c0-0.9-0.7-1.7-1.7-1.7c-0.9,0-1.7,0.7-1.7,1.7v4.8
	h-4.8c-0.9,0-1.7,0.7-1.7,1.7c0,0.9,0.7,1.7,1.7,1.7h4.8v4.8c0,0.9,0.7,1.7,1.7,1.7c0.9,0,1.7-0.7,1.7-1.7v-4.8h4.8
	c0.9,0,1.7-0.7,1.7-1.7C497.5,259.7,496.7,258.9,495.8,258.9z M454.7,334.8c-0.4-0.7-1.2-1.2-2-1.2c0,0,0,0,0,0
	c-0.9,0-1.6,0.4-2,1.2l-5.6,9.8c-0.4,0.7-0.4,1.6,0,2.4c0.4,0.7,1.2,1.2,2,1.2h11.3c0.9,0,1.6-0.4,2-1.2c0.4-0.7,0.4-1.6,0-2.4
	L454.7,334.8z M447.3,345.7l5.4-9.4l5.4,9.4H447.3z M159.8,403c-0.4-0.7-1.2-1.2-2-1.2h0c-0.9,0-1.6,0.4-2,1.2l-5.6,9.8
	c-0.4,0.7-0.4,1.6,0,2.4c0.4,0.7,1.2,1.2,2,1.2h11.3c0.9,0,1.6-0.4,2-1.2c0.4-0.7,0.4-1.6,0-2.4L159.8,403z M152.4,413.8l5.4-9.4
	l5.4,9.4H152.4z M473.8,128.9c-0.4-0.7-1.2-1.2-2-1.2c-0.9,0-1.6,0.4-2,1.2l-5.6,9.8v0c-0.4,0.7-0.4,1.6,0,2.4
	c0.4,0.7,1.2,1.2,2,1.2h11.3c0.9,0,1.6-0.4,2-1.2c0.4-0.7,0.4-1.6,0-2.4L473.8,128.9z M466.4,139.7l5.4-9.4l5.4,9.4H466.4z
	 M10.6,271.8c-0.4-0.7-1.2-1.2-2-1.2h0c-0.9,0-1.6,0.4-2,1.2l-5.6,9.8c-0.4,0.7-0.4,1.6,0,2.4c0.4,0.7,1.2,1.2,2,1.2h11.3
	c0.9,0,1.6-0.4,2-1.2c0.4-0.7,0.4-1.6,0-2.4L10.6,271.8z M3.1,282.6l5.4-9.4l5.4,9.4H3.1z"/>
</svg>
