<?xml version="1.0" encoding="utf-8"?>
<!-- Generator: Adobe Illustrator 19.0.0, SVG Export Plug-In . SVG Version: 6.00 Build 0)  -->
<svg version="1.1" id="图层_1" xmlns="http://www.w3.org/2000/svg" xmlns:xlink="http://www.w3.org/1999/xlink" x="0px" y="0px"
	 viewBox="0 0 30 30" style="enable-background:new 0 0 30 30;" xml:space="preserve">
<style type="text/css">
	.st0{fill:#BD1A21;}
	.st1{fill:#BD1A21;stroke:#BD1A21;stroke-width:0.1326;stroke-miterlimit:10;}
</style>
<path class="st0" d="M26,5.4L26,5.4C22.3,5,18.7,3.5,15.8,1l-0.1-0.1c-0.4-0.3-1-0.3-1.4,0L14.2,1C11.3,3.5,7.7,5,4,5.4
	C3.4,5.4,3,5.9,3,6.4v5.2c0,7.7,4.5,14.5,11.6,17.6c0.1,0.1,0.3,0.1,0.4,0.1c0.1,0,0.3,0,0.4-0.1c7-3,11.6-9.9,11.6-17.6V6.4
	C27,5.9,26.6,5.4,26,5.4z M24.8,7.4v4.3c0,6.6-3.9,12.6-9.8,15.4c-6-2.8-9.9-8.8-9.8-15.4V7.4c3.6-0.6,7-2,9.8-4.2
	C17.9,5.4,21.3,6.8,24.8,7.4z"/>
<path id="XMLID_14_" class="st1" d="M15,7.4c-4.2,0-7.6,3.4-7.6,7.6c0,4.2,3.4,7.6,7.6,7.6s7.6-3.4,7.6-7.6S19.2,7.4,15,7.4z
	 M15,21.6c-3.6,0-6.6-2.9-6.6-6.6s2.9-6.6,6.6-6.6c3.6,0,6.6,2.9,6.6,6.6C21.6,18.6,18.6,21.6,15,21.6z"/>
<path class="st0" d="M16.6,11.2h-0.5v-1.1H15v1.1h-0.5v-1.1h-1.1v1.1h-1.6v1.1h1.1v5.5h-1.1v1.1h1.6v1.1h1.1v-1.1H15v1.1h1.1v-1.1
	h0.5c0.9,0,1.6-0.7,1.6-1.6v-1.1c0-0.4-0.2-0.8-0.4-1.1c0.3-0.3,0.4-0.7,0.4-1.1v-1.1C18.3,11.9,17.5,11.2,16.6,11.2z M13.9,12.3
	h2.7c0.3,0,0.5,0.2,0.5,0.5v1.1c0,0.3-0.2,0.5-0.5,0.5h-2.7V12.3z M17.2,17.2c0,0.3-0.2,0.5-0.5,0.5h-2.7v-2.2h2.7
	c0.3,0,0.5,0.2,0.5,0.5V17.2z"/>
</svg>
