<?xml version="1.0" encoding="utf-8"?>
<!-- Generator: Adobe Illustrator 19.0.0, SVG Export Plug-In . SVG Version: 6.00 Build 0)  -->
<svg version="1.1" id="图层_1" xmlns="http://www.w3.org/2000/svg" xmlns:xlink="http://www.w3.org/1999/xlink" x="0px" y="0px"
	 viewBox="0 0 196 174" style="enable-background:new 0 0 196 174;" xml:space="preserve">
<style type="text/css">
	.st0{fill:url(#XMLID_2_);}
</style>
<linearGradient id="XMLID_2_" gradientUnits="userSpaceOnUse" x1="31.6133" y1="153.133" x2="163.88" y2="20.8663">
	<stop  offset="0" style="stop-color:#B21E23"/>
	<stop  offset="1" style="stop-color:#D45D26"/>
</linearGradient>
<path id="XMLID_12_" class="st0" d="M188,80.4c-0.7,0-1.5,0.1-2.1,0.3l-38.7-67c1.3-1.2,2-2.9,2-4.8c0-3.7-3-6.7-6.7-6.7
	c-3.3,0-6.1,2.5-6.6,5.6H59.6c-0.5-3.2-3.3-5.6-6.6-5.6c-3.7,0-6.7,3-6.7,6.7c0,2,0.9,3.9,2.4,5.1L10.2,80.8
	c-0.7-0.2-1.4-0.3-2.1-0.3c-3.7,0-6.7,3-6.7,6.7c0,3.7,3,6.7,6.7,6.7c0.7,0,1.5-0.1,2.1-0.3L48.6,160c-1.4,1.2-2.3,3-2.3,5
	c0,3.7,3,6.7,6.7,6.7c3.2,0,5.9-2.3,6.6-5.4h76.3c0.6,3.1,3.3,5.4,6.6,5.4c3.7,0,6.7-3,6.7-6.7c0-1.8-0.7-3.5-1.9-4.7l38.6-66.9
	c0.7,0.2,1.4,0.3,2.1,0.3c3.7,0,6.7-3,6.7-6.7C194.7,83.4,191.7,80.4,188,80.4z M142.5,4.9c2.2,0,4,1.8,4,4c0,2.2-1.8,4-4,4
	s-4-1.8-4-4C138.5,6.7,140.3,4.9,142.5,4.9z M53,4.9c2.2,0,4,1.8,4,4c0,2.2-1.8,4-4,4s-4-1.8-4-4C49,6.7,50.8,4.9,53,4.9z M8,91.2
	c-2.2,0-4-1.8-4-4s1.8-4,4-4c2.2,0,4,1.8,4,4S10.2,91.2,8,91.2z M53,169.1c-2.2,0-4-1.8-4-4s1.8-4,4-4s4,1.8,4,4
	S55.2,169.1,53,169.1z M142.5,169.1c-2.2,0-4-1.8-4-4s1.8-4,4-4s4,1.8,4,4S144.7,169.1,142.5,169.1z M183.5,92.2L145,158.9
	c-0.8-0.3-1.6-0.5-2.5-0.5c-3.2,0-5.9,2.3-6.6,5.4H59.6c-0.6-3.1-3.3-5.4-6.6-5.4c-0.7,0-1.5,0.1-2.1,0.3L12.5,92.2
	c1.4-1.2,2.3-3,2.3-5c0-2-0.9-3.8-2.3-5L51,15.3c0.6,0.2,1.3,0.3,2,0.3c3.1,0,5.8-2.2,6.5-5.1H136c0.7,2.9,3.4,5.1,6.5,5.1
	c0.8,0,1.7-0.2,2.4-0.5l38.6,66.9c-1.4,1.2-2.3,3-2.3,5C181.3,89.1,182.1,90.9,183.5,92.2z M188,91.2c-2.2,0-4-1.8-4-4s1.8-4,4-4
	s4,1.8,4,4S190.2,91.2,188,91.2z M145.3,121.4l-38.9,0l-0.5,0l-0.2-0.4c-0.6-3.1-3.1-5.6-6.2-6.2l-0.4-0.1l0-0.6v-7.4l0.5-0.1
	c16.8-0.9,29.9-14.7,29.9-31.5c0-17.4-14.2-31.6-31.6-31.6c-17.4,0-31.6,14.2-31.6,31.6c0,16.8,13.1,30.7,29.9,31.5l0.5,0l0,7.5
	l0,0.5l-0.4,0.2c-3.1,0.6-5.6,3.1-6.2,6.2l-0.1,0.4l-0.5-0.1l-38.9,0c-0.7,0-1.2,0.5-1.2,1.2c0,0.3,0.1,0.6,0.3,0.8
	c0.2,0.2,0.5,0.4,0.8,0.4l38.9,0l0.5,0l0.2,0.4c0.8,3.7,4,6.4,7.8,6.4c3.8,0,7-2.7,7.8-6.4l0.1-0.4l0.5,0.1l38.9,0
	c0.3,0,0.6-0.1,0.9-0.3c0.2-0.2,0.4-0.5,0.4-0.8C146.5,121.9,146,121.4,145.3,121.4z M121.6,92.3c-4.1,5.6-10,9.6-16.8,11.2
	l-1.3,0.3l0.7-1.1c1.3-1.9,2.4-4.1,3.4-6.6l0.1-0.3l0.5,0c2.4,0,4.5-1.7,5.2-4l0.1-0.4h8.6L121.6,92.3z M107.9,65.4l0.4,0l0.1,0.4
	c0.4,2.5,0.6,5,0.7,7.6l0,0.5H91.7l-0.1-0.4c-0.5-1.8-1.9-3.2-3.7-3.7l-0.4-0.1l0-0.4c0.2-2.7,0.7-5.3,1.2-7.8l0.1-0.4h13.9l0.1,0.4
	C103.6,63.7,105.6,65.3,107.9,65.4z M105.1,59.9c0-1.8,1.4-3.2,3.2-3.2s3.1,1.4,3.1,3.2c0,1.8-1.4,3.2-3.1,3.2
	S105.1,61.7,105.1,59.9z M89.4,75.1c0,1.8-1.4,3.2-3.2,3.2c-1.8,0-3.2-1.4-3.2-3.2c0-1.5,1-2.7,2.4-3.1l0.2-0.1v0l0.5,0
	C88,71.9,89.4,73.3,89.4,75.1z M87.9,80.4c1.8-0.5,3.2-2,3.7-3.7l0.1-0.4H109l0,0.5c-0.1,2.6-0.3,5.1-0.7,7.6l-0.1,0.4l-0.4,0
	c-2.3,0.1-4.3,1.7-5,4l-0.1,0.4H88.9l-0.1-0.4c-0.6-2.5-1-5.1-1.2-7.8l0-0.4L87.9,80.4z M108.2,87.1c1.8,0,3.1,1.4,3.1,3.2
	c0,1.8-1.4,3.2-3.1,3.2s-3.2-1.4-3.2-3.2C105.1,88.5,106.4,87.1,108.2,87.1z M127.2,76.8c-0.2,4.2-1.4,8.3-3.4,12l-0.1,0.3h-10
	l-0.1-0.4c-0.4-1.4-1.4-2.6-2.6-3.3l-0.3-0.2l0.1-0.3c0.4-2.7,0.6-5.4,0.7-8.2l0-0.5h15.8L127.2,76.8z M123.8,61.3
	c2,3.7,3.1,7.8,3.4,12l0,0.5h-15.8l0-0.5c-0.1-2.8-0.3-5.5-0.7-8.2l-0.1-0.3l0.3-0.2c1.3-0.7,2.2-1.9,2.6-3.3l0.1-0.4h10L123.8,61.3
	z M104.9,46.7c6.7,1.6,12.7,5.6,16.8,11.2l0.6,0.8h-8.6l-0.1-0.4c-0.7-2.3-2.9-4-5.3-4h-0.3l-0.1-0.3c-1-2.5-2.1-4.7-3.4-6.6
	l-0.7-1.1L104.9,46.7z M96.3,45.9l0.2,0c1.1-0.1,2.2-0.1,3.3,0l0.2,0l0.1,0.1c2,2,3.8,5,5.3,8.6l0.2,0.4l-0.3,0.2
	c-1.1,0.7-1.9,1.8-2.3,3.1l-0.1,0.4H89.5l0.2-0.6c1.6-5.2,3.8-9.4,6.5-12L96.3,45.9z M74.4,57.9c4.2-5.7,10.2-9.7,17.1-11.3l1.3-0.3
	L92,47.4c-2,2.9-3.7,6.6-4.9,10.9L87,58.7H73.8L74.4,57.9z M68.8,73.4c0.2-4.2,1.4-8.3,3.4-12l0.1-0.3h14l-0.1,0.6
	c-0.5,2.5-0.9,5-1.1,7.7l0,0.3l-0.3,0.1c-1.8,0.5-3.3,2-3.8,3.8l-0.1,0.4h-12L68.8,73.4z M72.2,88.8c-2-3.7-3.1-7.8-3.4-12l0-0.5h12
	l0.1,0.4c0.5,1.8,2,3.2,3.8,3.8l0.3,0.1l0,0.3c0.2,2.6,0.6,5.2,1.1,7.7l0.1,0.6h-14L72.2,88.8z M91.4,103.6
	C84.6,102,78.5,98,74.4,92.3l-0.6-0.8H87l0.1,0.4c1.2,4.3,2.9,8,4.9,10.9l0.7,1.1L91.4,103.6z M96.5,104.3l-0.2,0l-0.1-0.1
	c-2.6-2.6-4.9-6.8-6.5-12l-0.2-0.6h13.3l0.1,0.4c0.4,1.3,1.2,2.4,2.3,3.1l0.3,0.2l-0.2,0.4c-1.4,3.6-3.3,6.5-5.3,8.6l-0.1,0.1
	l-0.2,0C98.6,104.3,97.6,104.3,96.5,104.3z M98,128.1c-3.1,0-5.6-2.5-5.6-5.6s2.5-5.6,5.6-5.6c3.1,0,5.6,2.5,5.6,5.6
	S101.1,128.1,98,128.1z"/>
</svg>
