<?xml version="1.0" encoding="utf-8"?>
<!-- Generator: Adobe Illustrator 19.0.0, SVG Export Plug-In . SVG Version: 6.00 Build 0)  -->
<svg version="1.1" id="图层_1" xmlns="http://www.w3.org/2000/svg" xmlns:xlink="http://www.w3.org/1999/xlink" x="0px" y="0px"
	 viewBox="0 0 110 110" style="enable-background:new 0 0 110 110;" xml:space="preserve">
<style type="text/css">
	.st0{fill:#BD1A21;}
</style>
<g id="XMLID_1_">
	<g id="XMLID_21_">
		<path id="XMLID_59_" class="st0" d="M77,65.4c-0.1,0-0.2,0-0.3,0c-0.8-0.1-1.2-0.8-1.1-1.6c0.4-2,0.6-4.1,0.6-6.2
			c0-11-3.7-18-13.2-25.1c-0.6-0.5-0.7-1.3-0.2-1.9c0.5-0.6,1.3-0.7,2-0.2C75,38,79,45.7,79,57.6c0,2.3-0.2,4.5-0.7,6.7
			C78.2,64.9,77.6,65.4,77,65.4z"/>
	</g>
	<g id="XMLID_20_">
		<path id="XMLID_58_" class="st0" d="M9.8,56.6c-0.1,0-0.1,0-0.2,0c-0.8-0.1-1.3-0.7-1.2-1.5c1.8-16,15.3-28.7,32.1-30.3
			c0.8-0.1,1.4,0.5,1.5,1.2c0.1,0.7-0.5,1.4-1.2,1.5c-15.4,1.4-27.9,13.2-29.6,27.9C11.1,56.1,10.5,56.6,9.8,56.6z"/>
	</g>
	<g id="XMLID_19_">
		<path id="XMLID_57_" class="st0" d="M43.7,91.4C26.8,91.4,12.2,79.9,9,64.1l2.7-0.5c3,14.6,16.4,25.2,32,25.2
			c6.5,0,12.8-1.8,18.2-5.3l1.6,2.2C57.6,89.4,50.8,91.4,43.7,91.4z"/>
	</g>
	<g id="XMLID_18_">
		<path id="XMLID_48_" class="st0" d="M86.4,90.4c-2.5-2.2-7.9-5.8-15.6-5.8c-0.1,0-0.2,0-0.3,0c-6.6,0.1-12.3,0.3-16.9,0.6
			c-3.8,0.2-7,0.3-9.6,0.3c-8.9,0-16.3-5.5-21.1-9.6C17.3,71,11.7,65.7,5.3,58.9c-0.1-0.1-0.3-0.3-0.4-0.4C4.2,57.9,3.3,57,3.8,56
			c1-2.1,5.7-1.4,7-0.9c2.1,0.8,4,2.4,5.7,3.8c0.3,0.2,0.6,0.5,0.9,0.7c2.3,1.8,5.3,4.6,8.9,8.3c1.4-1.2,4.2-2.2,5.8-2.5
			c3.2-0.7,6.5-0.7,9.7-0.7c3.2,0,6.5,0,9.8-0.7c2.1-0.4,3.8-0.8,5.3-1.2c2.9-0.7,5.3-1.3,8.8-1.3c5.8,0,8.4,0.3,11.5,2.2
			c1.7,1.1,3.1,2.3,4.8,3.8c1.2,1.1,2.5,2.2,4,3.4c1.5,1.1,5.7,3.6,12.1,7.3l-0.4,0.6c-6.6-3.7-10.7-6.2-12.2-7.3
			c-1.6-1.2-2.9-2.4-4-3.4c-1.6-1.4-3-2.7-4.7-3.7c-2.8-1.7-5-2.1-11.1-2.1c-3.4,0-5.7,0.6-8.6,1.3c-1.5,0.4-3.2,0.8-5.3,1.2
			c-3.4,0.6-6.7,0.7-9.9,0.7c-3.3,0-6.4,0-9.5,0.7c-1.6,0.3-4.6,1.5-5.7,2.6l-0.3,0.3l-0.3-0.3c-3.8-3.8-6.8-6.7-9.1-8.5
			c-0.3-0.2-0.6-0.5-0.9-0.7c-1.7-1.4-3.5-2.9-5.5-3.7c-1.5-0.6-5.4-1-6.1,0.5c-0.3,0.5,0.2,1.1,1,1.8c0.1,0.1,0.3,0.3,0.4,0.4
			c6.4,6.7,12,12.1,17.5,16.8c4.7,4.1,12,9.4,20.6,9.4c2.5,0,5.8-0.1,9.6-0.3c4.6-0.2,10.3-0.5,16.9-0.6c8.3-0.1,13.9,3.7,16.5,6
			L86.4,90.4z"/>
	</g>
	<g id="XMLID_17_">
		<path id="XMLID_45_" class="st0" d="M97.7,79.7c-0.2,0-0.5-0.1-0.7-0.2c-6.5-3.7-10.6-6.1-12.1-7.3c-1.6-1.2-2.9-2.4-4.1-3.4
			c-1.6-1.4-3-2.6-4.5-3.6c-2.5-1.6-4.6-2-10.3-2c-0.1,0-0.1,0-0.2,0c-3.3,0-5.4,0.5-8.3,1.3c-1.5,0.4-3.2,0.8-5.4,1.2
			c-3.5,0.7-6.8,0.7-10.1,0.7c-3.2,0-6.3,0-9.3,0.6c-1.7,0.3-4.7,1.7-5.3,2.5c-0.4,0.5-0.3,0.8-0.2,1c0.3,0.5,1,0.9,1.8,0.9h0.9
			c0.2,0,17,0,22.9-0.1c3.6-0.1,5.7,0.4,6.6,1.5c0.4,0.5,0.5,1,0.4,1.6c-0.2,0.7-0.9,1.1-1.7,1c-0.5-0.1-0.8-0.5-1-0.9
			c-0.3-0.2-1.4-0.5-4.2-0.4c-5.9,0.1-22.8,0.1-22.9,0.1h-0.9c-1.8,0-3.5-0.9-4.3-2.3c-0.7-1.2-0.5-2.6,0.4-3.8
			c1.3-1.8,5.5-3.3,7-3.6c3.3-0.7,6.7-0.7,9.9-0.7c3.1,0,6.4,0,9.6-0.6c2.1-0.4,3.8-0.8,5.2-1.2c3-0.8,5.4-1.3,9-1.4
			c5.8,0,8.7,0.3,12.1,2.4c1.8,1.1,3.3,2.5,4.9,3.9c1.2,1.1,2.4,2.2,3.9,3.3c1,0.8,3.8,2.6,11.8,7.1c0.7,0.4,0.9,1.2,0.5,1.8
			C98.6,79.5,98.1,79.7,97.7,79.7z"/>
	</g>
	<g id="XMLID_16_">
		<path id="XMLID_42_" class="st0" d="M86.6,91.3c-0.3,0-0.7-0.1-0.9-0.3c-2.4-2.1-7.6-5.6-15.2-5.5c-6.6,0.1-12.3,0.3-16.8,0.6
			c-3.8,0.2-7.1,0.3-9.6,0.3c-9.2,0-16.9-5.6-21.8-9.9C16.6,71.7,11,66.3,4.5,59.6c-0.1-0.1-0.2-0.2-0.4-0.3c-0.7-0.7-2.1-2-1.3-3.7
			c1.4-3,6.9-2,8.4-1.4c2.2,0.9,4.2,2.5,6,4c0.3,0.2,0.6,0.5,0.9,0.7c2.3,1.9,5.5,4.8,9.3,8.6c0.5,0.5,0.5,1.4,0,1.9
			c-0.6,0.5-1.4,0.5-2,0c-3.7-3.8-6.8-6.6-9.1-8.5c-0.3-0.2-0.6-0.5-0.9-0.7c-1.6-1.3-3.4-2.8-5.2-3.5c-1.5-0.6-4.2-0.6-4.7,0
			c0.1,0.2,0.5,0.6,0.7,0.8c0.2,0.2,0.3,0.3,0.4,0.4c6.4,6.7,11.9,12,17.4,16.8c4.6,3.9,11.7,9.2,19.9,9.2c2.5,0,5.8-0.1,9.5-0.3
			c4.6-0.2,10.3-0.5,16.9-0.6c8.5-0.2,14.4,3.8,17.1,6.2c0.6,0.5,0.6,1.3,0.1,1.9C87.4,91.2,87,91.3,86.6,91.3z"/>
	</g>
	<g id="XMLID_15_">
		<path id="XMLID_35_" class="st0" d="M26.3,69.5c-0.3,0-0.6-0.1-0.8-0.3c-3.8-3.8-6.8-6.6-9.1-8.5L15.6,60c-1.3-1.1-2.6-2.2-4-3
			c-0.3-0.2-0.5-0.4-0.5-0.8c-0.1-0.3,0-0.6,0.3-0.9c0.5-0.5,2.3-2,6.2-1c4.3,1.1,14.4,10.8,14.5,10.9c0.3,0.3,0.4,0.6,0.3,1
			c-0.1,0.4-0.4,0.6-0.7,0.8c-1.6,0.5-3.6,1.4-4.4,2.2C26.9,69.4,26.6,69.5,26.3,69.5C26.3,69.5,26.3,69.5,26.3,69.5z M14.3,56.2
			c1,0.7,1.9,1.5,2.7,2.2l0.8,0.7h0c2.2,1.8,5.1,4.4,8.5,7.9c0.8-0.5,1.8-1,2.8-1.4c-3.6-3.3-9.8-8.5-12.2-9.1
			C15.8,56.1,14.9,56.1,14.3,56.2z"/>
	</g>
	<g id="XMLID_14_">
		<path id="XMLID_32_" class="st0" d="M89.3,99.2c-0.7,0-1.4-0.2-1.9-0.7l-3.7-3.2c-0.6-0.5-0.9-1.2-0.9-1.9c0-0.7,0.2-1.4,0.8-2
			l15.2-15.7c0.5-0.5,1.2-0.8,2-0.9c0.8,0,1.5,0.2,2,0.7l3.6,3.2c0.6,0.5,0.9,1.2,0.9,1.9c0,0.7-0.2,1.4-0.8,2L91.4,98.3
			C90.8,98.9,90.1,99.2,89.3,99.2z M100.9,77.5L85.6,93.2l3.7,3.3l15.3-15.7l0-0.1L100.9,77.5z"/>
	</g>
	<g id="XMLID_13_">
		<path id="XMLID_29_" class="st0" d="M41.5,58.7c-6.9,0-12.5-5.3-12.5-11.9s5.6-11.9,12.5-11.9h0c3.3,0,6.5,1.2,8.8,3.5
			c2.4,2.3,3.6,5.2,3.6,8.4C54,53.4,48.4,58.7,41.5,58.7z M41.5,37.5c-5.3,0-9.7,4.2-9.7,9.3s4.3,9.3,9.7,9.3s9.7-4.2,9.7-9.3
			c0-2.5-1-4.8-2.8-6.5C46.5,38.5,44.1,37.5,41.5,37.5z"/>
	</g>
	<g id="XMLID_10_">
		<g id="XMLID_11_">
			<path class="st0" d="M40.9,51c-0.9-0.1-1.5-0.3-2-0.5c-0.5-0.3-0.7-0.6-0.7-0.9c0-0.3,0.1-0.5,0.3-0.7c0.2-0.2,0.4-0.3,0.8-0.3
				c0.1,0,0.3,0,0.5,0.1c0.2,0,0.3,0.1,0.5,0.2c0.2,0.1,0.4,0.1,0.6,0.2c0.2,0,0.4,0.1,0.7,0.1c0.3,0,0.5-0.1,0.7-0.3
				c0.2-0.2,0.3-0.4,0.3-0.7c0-0.2,0-0.3-0.1-0.5c-0.1-0.1-0.2-0.2-0.3-0.3c-0.1-0.1-0.3-0.2-0.5-0.2C41.5,47.1,41.2,47,41,47
				c-0.4-0.1-0.8-0.3-1.2-0.4c-0.3-0.2-0.6-0.3-0.8-0.5c-0.2-0.2-0.4-0.4-0.5-0.7c-0.1-0.3-0.2-0.6-0.2-0.9c0-0.7,0.2-1.3,0.7-1.8
				c0.5-0.5,1.1-0.8,1.9-1V41c0-0.5,0.2-0.7,0.5-0.7c0.2,0,0.4,0.1,0.4,0.2c0.1,0.1,0.1,0.3,0.1,0.5v0.6c0.7,0.1,1.3,0.2,1.7,0.4
				c0.4,0.2,0.6,0.5,0.6,0.9c0,0.3-0.1,0.5-0.2,0.6c-0.2,0.2-0.4,0.2-0.7,0.2c-0.1,0-0.3,0-0.4-0.1c-0.1,0-0.3-0.1-0.4-0.1
				c-0.1,0-0.3-0.1-0.4-0.1c-0.1,0-0.3-0.1-0.4-0.1c-0.3,0-0.6,0.1-0.8,0.2c-0.2,0.1-0.3,0.3-0.3,0.5c0,0.2,0,0.3,0.1,0.4
				c0.1,0.1,0.2,0.2,0.3,0.3c0.1,0.1,0.3,0.1,0.5,0.2c0.2,0.1,0.4,0.1,0.7,0.2c0.9,0.3,1.5,0.6,1.9,1.1c0.4,0.4,0.6,1,0.6,1.7
				c0,0.4-0.1,0.7-0.2,1.1c-0.1,0.3-0.3,0.6-0.6,0.9c-0.3,0.3-0.6,0.5-0.9,0.6c-0.4,0.2-0.8,0.3-1.2,0.3v0.8c0,0.5-0.2,0.7-0.5,0.7
				c-0.2,0-0.3-0.1-0.4-0.2c-0.1-0.1-0.1-0.3-0.1-0.5V51z"/>
		</g>
	</g>
	<g id="XMLID_9_">
		<path id="XMLID_26_" class="st0" d="M53.7,35.1c-5.3,0-9.7-4.2-9.7-9.3c0-5.1,4.3-9.3,9.7-9.3c5.3,0,9.7,4.2,9.7,9.3
			C63.4,30.9,59.1,35.1,53.7,35.1z M53.7,19.2c-3.8,0-6.9,3-6.9,6.6s3.1,6.6,6.9,6.6c3.8,0,6.9-3,6.9-6.6S57.6,19.2,53.7,19.2z"/>
	</g>
	<g id="XMLID_6_">
		<g id="XMLID_7_">
			<path class="st0" d="M53.3,29c-0.7-0.1-1.2-0.2-1.5-0.4c-0.3-0.2-0.5-0.4-0.5-0.7c0-0.2,0.1-0.4,0.2-0.5c0.1-0.1,0.3-0.2,0.6-0.2
				c0.1,0,0.2,0,0.3,0.1c0.1,0,0.3,0.1,0.4,0.1c0.1,0,0.3,0.1,0.5,0.1c0.2,0,0.3,0.1,0.5,0.1c0.2,0,0.4-0.1,0.6-0.2
				c0.2-0.1,0.2-0.3,0.2-0.5c0-0.1,0-0.2-0.1-0.3c-0.1-0.1-0.1-0.2-0.2-0.2c-0.1-0.1-0.2-0.1-0.4-0.2c-0.2-0.1-0.3-0.1-0.5-0.2
				c-0.3-0.1-0.6-0.2-0.9-0.3c-0.2-0.1-0.5-0.2-0.6-0.4c-0.2-0.1-0.3-0.3-0.4-0.5c-0.1-0.2-0.1-0.4-0.1-0.7c0-0.5,0.2-1,0.5-1.3
				c0.3-0.4,0.8-0.6,1.4-0.7v-0.5c0-0.3,0.1-0.5,0.4-0.5c0.2,0,0.3,0,0.3,0.1c0.1,0.1,0.1,0.2,0.1,0.4v0.4c0.6,0,1,0.2,1.3,0.3
				c0.3,0.2,0.4,0.4,0.4,0.7c0,0.2-0.1,0.4-0.2,0.5c-0.1,0.1-0.3,0.2-0.5,0.2c-0.1,0-0.2,0-0.3,0c-0.1,0-0.2-0.1-0.3-0.1
				c-0.1,0-0.2-0.1-0.3-0.1c-0.1,0-0.2,0-0.3,0c-0.2,0-0.4,0.1-0.6,0.2c-0.1,0.1-0.2,0.2-0.2,0.4c0,0.1,0,0.2,0.1,0.3
				c0.1,0.1,0.1,0.1,0.3,0.2c0.1,0.1,0.2,0.1,0.4,0.1c0.2,0,0.3,0.1,0.5,0.2c0.7,0.2,1.1,0.5,1.5,0.8c0.3,0.3,0.5,0.7,0.5,1.2
				c0,0.3-0.1,0.6-0.2,0.8c-0.1,0.3-0.3,0.5-0.4,0.7c-0.2,0.2-0.4,0.4-0.7,0.5c-0.3,0.1-0.6,0.2-0.9,0.2v0.6c0,0.3-0.1,0.5-0.4,0.5
				c-0.2,0-0.3,0-0.3-0.1c-0.1-0.1-0.1-0.2-0.1-0.4V29z"/>
		</g>
	</g>
	<g id="XMLID_5_">
		<path id="XMLID_23_" class="st0" d="M25.1,27.5c-4.8,0-8.7-3.7-8.7-8.3c0-4.6,3.9-8.3,8.7-8.3s8.7,3.7,8.7,8.3
			C33.8,23.8,29.9,27.5,25.1,27.5z M25.1,13.5c-3.3,0-5.9,2.5-5.9,5.7c0,3.1,2.7,5.7,5.9,5.7s5.9-2.5,5.9-5.7
			C31,16,28.4,13.5,25.1,13.5z"/>
	</g>
	<g id="XMLID_2_">
		<g id="XMLID_3_">
			<path class="st0" d="M24.7,21.9c-0.6-0.1-1-0.2-1.3-0.3c-0.3-0.2-0.5-0.4-0.5-0.6c0-0.2,0.1-0.3,0.2-0.4c0.1-0.1,0.3-0.2,0.5-0.2
				c0.1,0,0.2,0,0.3,0c0.1,0,0.2,0.1,0.4,0.1c0.1,0,0.3,0.1,0.4,0.1c0.1,0,0.3,0,0.4,0c0.2,0,0.4-0.1,0.5-0.2
				c0.1-0.1,0.2-0.3,0.2-0.4c0-0.1,0-0.2-0.1-0.3c0-0.1-0.1-0.2-0.2-0.2c-0.1-0.1-0.2-0.1-0.3-0.2c-0.1,0-0.3-0.1-0.5-0.1
				c-0.3-0.1-0.6-0.2-0.8-0.3c-0.2-0.1-0.4-0.2-0.5-0.3c-0.1-0.1-0.3-0.3-0.3-0.5C23,18,23,17.8,23,17.6c0-0.5,0.2-0.8,0.5-1.2
				c0.3-0.3,0.7-0.6,1.3-0.7v-0.4c0-0.3,0.1-0.4,0.3-0.4c0.1,0,0.2,0,0.3,0.1c0,0.1,0.1,0.2,0.1,0.3v0.4c0.5,0,0.9,0.1,1.1,0.3
				c0.3,0.2,0.4,0.4,0.4,0.6c0,0.2-0.1,0.3-0.2,0.4c-0.1,0.1-0.3,0.2-0.5,0.2c-0.1,0-0.2,0-0.3,0c-0.1,0-0.2,0-0.3-0.1
				c-0.1,0-0.2,0-0.3-0.1c-0.1,0-0.2,0-0.3,0c-0.2,0-0.4,0-0.5,0.1c-0.1,0.1-0.2,0.2-0.2,0.4c0,0.1,0,0.2,0.1,0.3
				c0.1,0.1,0.1,0.1,0.2,0.2c0.1,0,0.2,0.1,0.4,0.1c0.1,0,0.3,0.1,0.5,0.1c0.6,0.2,1,0.4,1.3,0.7c0.3,0.3,0.4,0.6,0.4,1.1
				c0,0.3,0,0.5-0.1,0.7c-0.1,0.2-0.2,0.4-0.4,0.6c-0.2,0.2-0.4,0.3-0.6,0.4c-0.2,0.1-0.5,0.2-0.8,0.2v0.5c0,0.3-0.1,0.5-0.3,0.5
				c-0.1,0-0.2,0-0.3-0.1c0-0.1-0.1-0.2-0.1-0.3V21.9z"/>
		</g>
	</g>
</g>
</svg>
