<?xml version="1.0" encoding="utf-8"?>
<!-- Generator: Adobe Illustrator 19.0.0, SVG Export Plug-In . SVG Version: 6.00 Build 0)  -->
<svg version="1.1" id="图层_1" xmlns="http://www.w3.org/2000/svg" xmlns:xlink="http://www.w3.org/1999/xlink" x="0px" y="0px"
	 viewBox="0 0 368 392" style="enable-background:new 0 0 368 392;" xml:space="preserve">
<style type="text/css">
	.st0{fill:#BD1A21;}
	.st1{fill:#FFFFFF;}
	.st2{fill:#E0E0E0;}
</style>
<g id="XMLID_1_">
	<polygon id="XMLID_18_" class="st0" points="358.6,268.8 358.6,304 213.2,389.7 213.2,215.2 358.6,122.8 358.7,159 243.1,231 
		243.1,265.7 358.6,198.3 358.6,231.2 243,301 243,336 	"/>
	<polygon id="XMLID_17_" class="st1" points="71.3,64.9 229.1,149.4 198.1,169.7 40.3,85.2 9.3,104.3 199.3,206.1 293.1,146.7 
		133.8,61.4 164.9,40.4 325.4,126.3 358.6,105.2 166.4,2.3 	"/>
	<polygon id="XMLID_15_" class="st2" points="158.1,374.9 158.1,200.8 185.1,215.3 185.1,389.6 	"/>
	<polygon id="XMLID_14_" class="st2" points="9.3,296.2 9.3,122.8 39.3,138.9 39.3,312.4 	"/>
	<g id="XMLID_11_">
		<polygon id="XMLID_13_" class="st0" points="114.3,209.5 114.3,179 83.7,162.7 83.7,192.1 		"/>
		<polygon id="XMLID_12_" class="st0" points="83.7,214.6 83.7,336.5 114.3,353 114.3,232.3 		"/>
	</g>
</g>
</svg>
