<?xml version="1.0" encoding="utf-8"?>
<!-- Generator: Adobe Illustrator 19.0.0, SVG Export Plug-In . SVG Version: 6.00 Build 0)  -->
<svg version="1.1" id="图层_1" xmlns="http://www.w3.org/2000/svg" xmlns:xlink="http://www.w3.org/1999/xlink" x="0px" y="0px"
	 viewBox="0 0 196 174" style="enable-background:new 0 0 196 174;" xml:space="preserve">
<style type="text/css">
	.st0{fill:url(#XMLID_2_);}
</style>
<linearGradient id="XMLID_2_" gradientUnits="userSpaceOnUse" x1="1.3252" y1="86.9995" x2="194.6738" y2="86.9995">
	<stop  offset="0" style="stop-color:#B21E23"/>
	<stop  offset="1" style="stop-color:#D45D26"/>
</linearGradient>
<path id="XMLID_5_" class="st0" d="M188,80.4c-0.7,0-1.5,0.1-2.1,0.3l-38.7-67c1.3-1.2,2-2.9,2-4.8c0-3.7-3-6.7-6.7-6.7
	c-3.3,0-6.1,2.5-6.6,5.6H59.6c-0.5-3.2-3.3-5.6-6.6-5.6c-3.7,0-6.7,3-6.7,6.7c0,2,0.9,3.9,2.4,5.1L10.2,80.8
	c-0.7-0.2-1.4-0.3-2.1-0.3c-3.7,0-6.7,3-6.7,6.7c0,3.7,3,6.7,6.7,6.7c0.7,0,1.5-0.1,2.1-0.3L48.6,160c-1.4,1.2-2.3,3-2.3,5
	c0,3.7,3,6.7,6.7,6.7c3.2,0,5.9-2.3,6.6-5.4h76.3c0.6,3.1,3.3,5.4,6.6,5.4c3.7,0,6.7-3,6.7-6.7c0-1.8-0.7-3.5-1.9-4.7l38.6-66.9
	c0.7,0.2,1.4,0.3,2.1,0.3c3.7,0,6.7-3,6.7-6.7C194.7,83.4,191.7,80.4,188,80.4z M142.5,4.9c2.2,0,4,1.8,4,4c0,2.2-1.8,4-4,4
	s-4-1.8-4-4C138.5,6.7,140.3,4.9,142.5,4.9z M53,4.9c2.2,0,4,1.8,4,4c0,2.2-1.8,4-4,4s-4-1.8-4-4C49,6.7,50.8,4.9,53,4.9z M8,91.2
	c-2.2,0-4-1.8-4-4s1.8-4,4-4c2.2,0,4,1.8,4,4S10.2,91.2,8,91.2z M53,169.1c-2.2,0-4-1.8-4-4s1.8-4,4-4s4,1.8,4,4
	S55.2,169.1,53,169.1z M142.5,169.1c-2.2,0-4-1.8-4-4s1.8-4,4-4s4,1.8,4,4S144.7,169.1,142.5,169.1z M183.5,92.2L145,158.9
	c-0.8-0.3-1.6-0.5-2.5-0.5c-3.2,0-5.9,2.3-6.6,5.4H59.6c-0.6-3.1-3.3-5.4-6.6-5.4c-0.7,0-1.5,0.1-2.1,0.3L12.5,92.2
	c1.4-1.2,2.3-3,2.3-5c0-2-0.9-3.8-2.3-5L51,15.3c0.6,0.2,1.3,0.3,2,0.3c3.1,0,5.8-2.2,6.5-5.1H136c0.7,2.9,3.4,5.1,6.5,5.1
	c0.8,0,1.7-0.2,2.4-0.5l38.6,66.9c-1.4,1.2-2.3,3-2.3,5C181.3,89.1,182.1,90.9,183.5,92.2z M188,91.2c-2.2,0-4-1.8-4-4s1.8-4,4-4
	s4,1.8,4,4S190.2,91.2,188,91.2z M130.1,108.2c-0.6-0.4-1.4-0.2-1.8,0.3c-1.5,2.2-3.3,4.2-5.3,6.1c-0.5,0.5-0.6,1.3-0.1,1.8l0,0
	c0.5,0.6,1.3,0.6,1.9,0.1c2.1-2,4-4.1,5.6-6.5C130.9,109.4,130.7,108.6,130.1,108.2z M127.5,73.7c0,3.6,2.9,6.5,6.5,6.5
	s6.5-2.9,6.5-6.5s-2.9-6.5-6.5-6.5S127.5,70.1,127.5,73.7z M134,69.8c2.1,0,3.9,1.7,3.9,3.9c0,2.1-1.7,3.9-3.9,3.9
	c-2.1,0-3.9-1.7-3.9-3.9C130.1,71.5,131.8,69.8,134,69.8z M66.3,63.7c0.6,0.4,1.4,0.3,1.8-0.2c0.8-1,1.7-2,2.6-3
	c0.5-0.5,0.5-1.3,0-1.8c-0.5-0.5-1.3-0.5-1.9,0c-1,1-1.9,2.1-2.8,3.2C65.7,62.4,65.8,63.2,66.3,63.7L66.3,63.7z M134.3,93.1
	c-3.6,0-6.5,2.9-6.5,6.5c0,3.6,2.9,6.5,6.5,6.5s6.5-2.9,6.5-6.5C140.8,96.1,137.9,93.1,134.3,93.1z M134.3,103.5
	c-2.1,0-3.9-1.7-3.9-3.9s1.7-3.9,3.9-3.9c2.1,0,3.9,1.7,3.9,3.9S136.5,103.5,134.3,103.5z M136.2,90.3L136.2,90.3
	c0.7,0.1,1.4-0.5,1.4-1.2c0-0.7,0.1-1.4,0.1-2.1c0-1,0-1.9-0.1-2.9c-0.1-0.7-0.7-1.3-1.4-1.2c-0.7,0.1-1.2,0.7-1.2,1.4
	c0.1,0.9,0.1,1.8,0.1,2.7c0,0.6,0,1.3-0.1,1.9C135,89.6,135.5,90.3,136.2,90.3z M68.2,71.9c0-3.6-2.9-6.5-6.5-6.5
	c-3.6,0-6.5,2.9-6.5,6.5s2.9,6.5,6.5,6.5C65.2,78.4,68.2,75.5,68.2,71.9z M57.8,71.9c0-2.1,1.7-3.9,3.9-3.9c2.1,0,3.9,1.7,3.9,3.9
	s-1.7,3.9-3.9,3.9C59.5,75.8,57.8,74.1,57.8,71.9z M68.9,101.8c-6.4,0-11.7,5.2-11.7,11.7c0,6.4,5.2,11.7,11.7,11.7
	c6.4,0,11.7-5.2,11.7-11.7C80.6,107,75.4,101.8,68.9,101.8z M68.9,122.6c-5,0-9.1-4.1-9.1-9.1c0-5,4.1-9.1,9.1-9.1
	c5,0,9.1,4.1,9.1,9.1C78,118.5,73.9,122.6,68.9,122.6z M92.1,49.7c1.8-0.3,3.6-0.4,5.3-0.4c0.2,0,0.5,0,0.7,0c0.7,0,1.3-0.5,1.3-1.2
	v0c0-0.7-0.5-1.4-1.3-1.4c-0.3,0-0.5,0-0.8,0c-1.9,0-3.8,0.1-5.7,0.4c-0.7,0.1-1.2,0.8-1.1,1.5C90.8,49.4,91.4,49.8,92.1,49.7z
	 M80,60.4c4.5,0,8.2-3.7,8.2-8.2c0-4.5-3.7-8.2-8.2-8.2c-4.5,0-8.2,3.7-8.2,8.2C71.8,56.8,75.5,60.4,80,60.4z M80,46.6
	c3.1,0,5.6,2.5,5.6,5.6c0,3.1-2.5,5.6-5.6,5.6c-3.1,0-5.6-2.5-5.6-5.6C74.4,49.1,76.9,46.6,80,46.6z M101.3,124.4
	c-1.3,0.1-2.6,0.2-3.9,0.2c-5.2,0-10.3-1-15-3.1c-0.6-0.3-1.4,0-1.7,0.6v0c-0.3,0.7,0,1.5,0.7,1.7c5.1,2.2,10.5,3.3,16,3.3
	c1.4,0,2.8-0.1,4.1-0.2c0.7-0.1,1.3-0.7,1.2-1.5C102.7,124.9,102,124.4,101.3,124.4z M69.8,78.2L69.8,78.2c-0.2,0.7,0.1,1.4,0.8,1.7
	l2.8,1c0.6,0.2,0.9,0.8,0.8,1.4l-2.7,15.8c-0.1,0.7,0.4,1.4,1.1,1.5h0c0.7,0.1,1.4-0.4,1.5-1.1l2.5-14.8c0.1-0.8,1-1.3,1.7-1
	l6.6,2.4c0.8,0.3,1.1,1.2,0.7,1.9l-8.2,13c-0.4,0.6-0.2,1.4,0.4,1.8l0,0c0.6,0.4,1.4,0.2,1.8-0.4l8.8-14c0.3-0.5,1-0.7,1.5-0.5
	l11.7,4.3c1,0.4,1.2,1.7,0.2,2.3l-19,11.9c-0.6,0.4-0.8,1.2-0.4,1.8v0c0.4,0.6,1.2,0.8,1.8,0.4l22.4-14c0.3-0.2,0.8-0.3,1.1-0.1
	l2.7,1c0.5,0.2,0.8,0.6,0.8,1.1l1,14.9c0,0.7,0.7,1.3,1.4,1.2h0c0.7,0,1.3-0.7,1.2-1.4l-0.8-12.6c-0.1-0.9,0.9-1.6,1.7-1.3l8,2.9
	c0.7,0.2,1.4-0.1,1.7-0.8v0c0.2-0.7-0.1-1.4-0.8-1.7l-10.1-3.7c-0.5-0.2-0.8-0.6-0.8-1.1l-0.1-2c0-0.5,0.2-0.9,0.6-1.2l1.6-1
	c0.5-0.3,1.1-0.3,1.5,0.1l8,6.7c0.5,0.5,1.4,0.4,1.8-0.2c0.5-0.5,0.4-1.4-0.2-1.8l-6.7-5.7c-0.7-0.6-0.6-1.6,0.1-2.1l5.8-3.7
	c0.6-0.4,0.8-1.2,0.4-1.8l0,0c-0.4-0.6-1.2-0.8-1.8-0.4l-7.2,4.5c-0.5,0.3-1.1,0.3-1.5-0.1l-2.7-2.3c-0.3-0.2-0.4-0.6-0.5-0.9
	L111.8,61c0-0.7-0.7-1.3-1.4-1.2h0c-0.7,0-1.3,0.7-1.2,1.4l0.9,14.4c0.1,1.1-1.3,1.8-2.1,1.1l-7.4-6.3c-0.5-0.4-0.6-1.1-0.3-1.7
	l5.2-8.2c0.4-0.6,0.2-1.4-0.4-1.8l0,0c-0.6-0.4-1.4-0.2-1.8,0.4l-4.8,7.6c-0.4,0.7-1.3,0.8-1.9,0.3l-6.9-5.8
	c-0.5-0.5-1.4-0.4-1.8,0.2c-0.5,0.5-0.4,1.4,0.2,1.8l7.5,6.3c0.5,0.4,0.6,1.1,0.3,1.7l-7.2,11.4c-0.3,0.5-1,0.7-1.5,0.5L78.4,80
	c-0.6-0.2-0.9-0.8-0.8-1.4l2.2-13.2c0.1-0.7-0.4-1.4-1.1-1.5l0,0c-0.7-0.1-1.4,0.4-1.5,1.1l-2.1,12.3c-0.1,0.8-1,1.3-1.7,1l-1.9-0.7
	C70.8,77.2,70.1,77.6,69.8,78.2z M91.3,83l6.2-9.9c0.4-0.7,1.3-0.8,1.9-0.3l10.7,9c0.3,0.2,0.4,0.6,0.5,0.9l0.3,4.4
	c0,0.5-0.2,0.9-0.6,1.2l-2.7,1.7c-0.3,0.2-0.8,0.3-1.1,0.1L92,84.9C91.2,84.6,90.9,83.7,91.3,83z M59,81.1c-0.7-0.1-1.4,0.4-1.5,1.1
	c-0.2,1.6-0.3,3.2-0.3,4.8c0,4.5,0.7,9,2.2,13.2c0.2,0.7,1,1,1.7,0.8c0.7-0.3,1-1,0.8-1.6c-1.4-4-2.1-8.1-2.1-12.4
	c0-1.5,0.1-3,0.3-4.5C60.2,81.8,59.7,81.2,59,81.1z M113.6,114.2c-4.5,0-8.2,3.7-8.2,8.2c0,4.5,3.7,8.2,8.2,8.2
	c4.5,0,8.2-3.7,8.2-8.2C121.8,117.9,118.1,114.2,113.6,114.2z M113.6,128.1c-3.1,0-5.6-2.5-5.6-5.6c0-3.1,2.5-5.6,5.6-5.6
	c3.1,0,5.6,2.5,5.6,5.6C119.2,125.6,116.7,128.1,113.6,128.1z M118,55.4c3.8,2.5,7.2,5.7,9.9,9.4c0.4,0.6,1.2,0.7,1.8,0.3l0,0
	c0.6-0.4,0.8-1.2,0.3-1.8c-2.9-4-6.5-7.4-10.6-10.1c-0.6-0.4-1.4-0.2-1.8,0.4C117.2,54.3,117.4,55.1,118,55.4z M85,114.8
	c-0.7-0.1-1.4,0.3-1.5,1c-0.1,0.7,0.3,1.4,1,1.5l16.7,3.3c0.7,0.1,1.4-0.3,1.5-1c0.1-0.7-0.3-1.4-1-1.5L85,114.8z M108.9,56.3
	c3.6,0,6.5-2.9,6.5-6.5c0-3.6-2.9-6.5-6.5-6.5s-6.5,2.9-6.5,6.5C102.4,53.4,105.3,56.3,108.9,56.3z M108.9,45.9
	c2.1,0,3.9,1.7,3.9,3.9c0,2.1-1.7,3.9-3.9,3.9c-2.1,0-3.9-1.7-3.9-3.9C105,47.7,106.8,45.9,108.9,45.9z"/>
</svg>
