<?xml version="1.0" encoding="utf-8"?>
<!-- Generator: Adobe Illustrator 19.0.0, SVG Export Plug-In . SVG Version: 6.00 Build 0)  -->
<svg version="1.1" id="图层_1" xmlns="http://www.w3.org/2000/svg" xmlns:xlink="http://www.w3.org/1999/xlink" x="0px" y="0px"
	 viewBox="0 0 110 110" style="enable-background:new 0 0 110 110;" xml:space="preserve">
<style type="text/css">
	.st0{fill:#BD1A21;}
</style>
<g id="XMLID_36_">
	<path id="XMLID_35_" class="st0" d="M29.4,51.1c-0.7,0-1.3-0.6-1.3-1.3l0-9.5c0-0.5,0.3-0.9,0.7-1.2l15.9-9.3
		c0.6-0.4,1.5-0.2,1.8,0.5c0.4,0.6,0.2,1.5-0.5,1.8l-15.3,8.9l0,8.8C30.8,50.5,30.2,51.1,29.4,51.1L29.4,51.1z"/>
	<path id="XMLID_34_" class="st0" d="M80.5,50.7c-0.7,0-1.3-0.6-1.3-1.3l0-8.4l-15.6-9.1c-0.6-0.4-0.9-1.2-0.5-1.8
		c0.4-0.6,1.2-0.9,1.8-0.5l16.2,9.5c0.4,0.2,0.7,0.7,0.7,1.2l0,9.2C81.9,50.1,81.3,50.7,80.5,50.7L80.5,50.7z"/>
	<path id="XMLID_33_" class="st0" d="M64.8,80.3c-0.5,0-0.9-0.2-1.2-0.7c-0.4-0.6-0.2-1.5,0.5-1.8l15.1-8.8l0-8.7
		c0-0.7,0.6-1.3,1.3-1.3h0c0.7,0,1.3,0.6,1.3,1.3l0,9.5c0,0.5-0.3,0.9-0.7,1.2l-15.8,9.1C65.2,80.3,65,80.3,64.8,80.3z"/>
	<path id="XMLID_32_" class="st0" d="M45.5,80.6c-0.2,0-0.5-0.1-0.7-0.2l-16-9.4c-0.4-0.2-0.7-0.7-0.7-1.2l0-9.3
		c0-0.7,0.6-1.3,1.3-1.3h0c0.7,0,1.3,0.6,1.3,1.3l0,8.5l15.3,9c0.6,0.4,0.9,1.2,0.5,1.8C46.4,80.3,45.9,80.6,45.5,80.6z"/>
	<path class="st0" d="M55,67.1c-6.7,0-12.1-5.4-12.1-12.1S48.3,42.9,55,42.9c6.7,0,12.1,5.4,12.1,12.1S61.7,67.1,55,67.1z M55,45.6
		c-5.2,0-9.4,4.2-9.4,9.4s4.2,9.4,9.4,9.4s9.4-4.2,9.4-9.4S60.2,45.6,55,45.6z"/>
	<path id="XMLID_29_" class="st0" d="M93.1,78.3c-0.2,0-0.5-0.1-0.7-0.2L63.7,61.6c-0.6-0.4-0.9-1.2-0.5-1.8
		c0.4-0.6,1.2-0.9,1.8-0.5l28.8,16.5c0.6,0.4,0.9,1.2,0.5,1.8C94.1,78.1,93.6,78.3,93.1,78.3z"/>
	<path id="XMLID_28_" class="st0" d="M45.4,50.8c-0.2,0-0.5-0.1-0.7-0.2L16.1,34.3c-0.6-0.4-0.9-1.2-0.5-1.8
		c0.4-0.6,1.2-0.9,1.8-0.5l28.6,16.3c0.6,0.4,0.9,1.2,0.5,1.8C46.3,50.6,45.9,50.8,45.4,50.8z"/>
	<path id="XMLID_27_" class="st0" d="M16.9,78.3c-0.5,0-0.9-0.2-1.2-0.7c-0.4-0.6-0.2-1.5,0.5-1.8l28.5-16.4
		c0.6-0.4,1.5-0.2,1.8,0.5c0.4,0.6,0.2,1.5-0.5,1.8L17.6,78.1C17.4,78.2,17.2,78.3,16.9,78.3z"/>
	<path id="XMLID_26_" class="st0" d="M64.4,50.9c-0.5,0-0.9-0.2-1.2-0.7c-0.4-0.6-0.1-1.5,0.5-1.8l29.2-16.7
		c0.6-0.4,1.5-0.1,1.8,0.5c0.4,0.6,0.1,1.5-0.5,1.8L65,50.8C64.8,50.9,64.6,50.9,64.4,50.9z"/>
	<path class="st0" d="M98.1,36.2c-3.7,0-6.7-3-6.7-6.7c0-3.7,3-6.7,6.7-6.7c3.7,0,6.7,3,6.7,6.7C104.8,33.1,101.8,36.2,98.1,36.2z
		 M98.1,25.4c-2.2,0-4,1.8-4,4s1.8,4,4,4c2.2,0,4-1.8,4-4S100.3,25.4,98.1,25.4z"/>
	<path class="st0" d="M98.1,86.4c-3.7,0-6.7-3-6.7-6.7s3-6.7,6.7-6.7c3.7,0,6.7,3,6.7,6.7S101.8,86.4,98.1,86.4z M98.1,75.6
		c-2.2,0-4,1.8-4,4s1.8,4,4,4c2.2,0,4-1.8,4-4S100.3,75.6,98.1,75.6z"/>
	<path class="st0" d="M12.2,86.4c-3.7,0-6.7-3-6.7-6.7s3-6.7,6.7-6.7s6.7,3,6.7,6.7S15.9,86.4,12.2,86.4z M12.2,75.6
		c-2.2,0-4,1.8-4,4s1.8,4,4,4s4-1.8,4-4S14.4,75.6,12.2,75.6z"/>
	<path class="st0" d="M12.2,36.8c-3.7,0-6.7-3-6.7-6.7s3-6.7,6.7-6.7s6.7,3,6.7,6.7S15.9,36.8,12.2,36.8z M12.2,26.1
		c-2.2,0-4,1.8-4,4s1.8,4,4,4s4-1.8,4-4S14.4,26.1,12.2,26.1z"/>
	<path id="XMLID_17_" class="st0" d="M55,104.8c-0.7,0-1.3-0.6-1.3-1.3v-8.8c0-0.7,0.6-1.3,1.3-1.3c0.7,0,1.3,0.6,1.3,1.3v8.8
		C56.3,104.2,55.7,104.8,55,104.8z"/>
	<path id="XMLID_16_" class="st0" d="M55,79.8c-0.7,0-1.3-0.6-1.3-1.3V65.8c0-0.7,0.6-1.3,1.3-1.3c0.7,0,1.3,0.6,1.3,1.3v12.7
		C56.3,79.2,55.7,79.8,55,79.8z"/>
	<path id="XMLID_15_" class="st0" d="M55,45.6c-0.7,0-1.3-0.6-1.3-1.3V31.5c0-0.7,0.6-1.3,1.3-1.3c0.7,0,1.3,0.6,1.3,1.3v12.7
		C56.3,45,55.7,45.6,55,45.6z"/>
	<path id="XMLID_14_" class="st0" d="M55,15.8c-0.7,0-1.3-0.6-1.3-1.3V6.5c0-0.7,0.6-1.3,1.3-1.3c0.7,0,1.3,0.6,1.3,1.3v7.9
		C56.3,15.2,55.7,15.8,55,15.8z"/>
	<path id="XMLID_13_" class="st0" d="M103.5,56.3H91.1c-0.7,0-1.3-0.6-1.3-1.3s0.6-1.3,1.3-1.3h12.3c0.7,0,1.3,0.6,1.3,1.3
		S104.2,56.3,103.5,56.3z"/>
	<path id="XMLID_12_" class="st0" d="M74.7,56.3h-9c-0.7,0-1.3-0.6-1.3-1.3s0.6-1.3,1.3-1.3h9c0.7,0,1.3,0.6,1.3,1.3
		S75.5,56.3,74.7,56.3z"/>
	<path id="XMLID_11_" class="st0" d="M44.2,56.3h-9.5c-0.7,0-1.3-0.6-1.3-1.3s0.6-1.3,1.3-1.3h9.5c0.7,0,1.3,0.6,1.3,1.3
		S45,56.3,44.2,56.3z"/>
	<path id="XMLID_10_" class="st0" d="M18.5,56.3h-12c-0.7,0-1.3-0.6-1.3-1.3s0.6-1.3,1.3-1.3h12c0.7,0,1.3,0.6,1.3,1.3
		S19.3,56.3,18.5,56.3z"/>
	<path id="XMLID_9_" class="st0" d="M55.6,61.5c-0.2,0-0.3,0-0.5-0.1c-0.7-0.3-1-1.1-0.7-1.8l1.3-3.3h-3.4c-0.4,0-0.9-0.2-1.1-0.6
		c-0.2-0.4-0.3-0.8-0.1-1.3l2.2-5.5c0.3-0.7,1.1-1,1.7-0.7c0.7,0.3,1,1.1,0.8,1.8l-1.4,3.6h3.4c0.4,0,0.9,0.2,1.1,0.6
		c0.2,0.4,0.3,0.8,0.1,1.3l-2.1,5.1C56.6,61.2,56.1,61.5,55.6,61.5z"/>
	<path class="st0" d="M54.9,32.4c-3.7,0-6.7-3-6.7-6.7s3-6.7,6.7-6.7c3.7,0,6.7,3,6.7,6.7S58.6,32.4,54.9,32.4z M54.9,21.6
		c-2.2,0-4,1.8-4,4s1.8,4,4,4s4-1.8,4-4S57.2,21.6,54.9,21.6z"/>
	<path class="st0" d="M54.9,90.6c-3.7,0-6.7-3-6.7-6.7c0-3.7,3-6.7,6.7-6.7c3.7,0,6.7,3,6.7,6.7C61.7,87.6,58.6,90.6,54.9,90.6z
		 M54.9,79.8c-2.2,0-4,1.8-4,4c0,2.2,1.8,4,4,4s4-1.8,4-4C59,81.6,57.2,79.8,54.9,79.8z"/>
	<path class="st0" d="M29.3,61.8c-3.7,0-6.7-3-6.7-6.7s3-6.7,6.7-6.7c3.7,0,6.7,3,6.7,6.7S33,61.8,29.3,61.8z M29.3,51.1
		c-2.2,0-4,1.8-4,4s1.8,4,4,4s4-1.8,4-4S31.5,51.1,29.3,51.1z"/>
	<path class="st0" d="M80.3,61.7c-3.7,0-6.7-3-6.7-6.7s3-6.7,6.7-6.7c3.7,0,6.7,3,6.7,6.7S84.1,61.7,80.3,61.7z M80.3,51
		c-2.2,0-4,1.8-4,4s1.8,4,4,4c2.2,0,4-1.8,4-4S82.6,51,80.3,51z"/>
</g>
</svg>
