<?xml version="1.0" encoding="utf-8"?>
<!-- Generator: Adobe Illustrator 19.0.0, SVG Export Plug-In . SVG Version: 6.00 Build 0)  -->
<svg version="1.1" id="图层_1" xmlns="http://www.w3.org/2000/svg" xmlns:xlink="http://www.w3.org/1999/xlink" x="0px" y="0px"
	 viewBox="0 0 110 110" style="enable-background:new 0 0 110 110;" xml:space="preserve">
<style type="text/css">
	.st0{fill:#BD1A21;}
</style>
<g id="XMLID_54_">
	<path id="XMLID_53_" class="st0" d="M83.4,78.7h-7.2c-0.8,0-1.4-0.6-1.4-1.4s0.6-1.4,1.4-1.4h7.2c11.7,0,21.5-9.3,21.5-20.4
		c0-11-9.6-20-21.4-20c-1.8,0-3.6,0.2-5.4,0.7c-0.4,0.1-0.9,0-1.2-0.3c-0.3-0.3-0.5-0.7-0.5-1.2l0-0.4c0-0.1,0-0.2,0-0.3
		c0-11-9.6-20-21.4-20s-21.4,9-21.4,20c0,0.1,0,0.2,0,0.3l0,0.3c0,0.4-0.2,0.9-0.5,1.2c-0.3,0.3-0.8,0.4-1.2,0.3
		c-1.8-0.4-3.6-0.7-5.4-0.7c-11.8,0-21.4,9-21.4,20c0,10.9,10.5,20.4,22.4,20.4H36c0.8,0,1.4,0.6,1.4,1.4s-0.6,1.4-1.4,1.4h-8.6
		C14,78.7,2.2,67.9,2.2,55.5c0-12.6,10.9-22.9,24.3-22.9c1.4,0,2.9,0.1,4.3,0.4C31.3,20.9,42,11.2,55,11.2S78.7,20.9,79.3,33
		c1.4-0.3,2.9-0.4,4.3-0.4c13.4,0,24.3,10.3,24.3,22.9C107.8,68.1,96.7,78.7,83.4,78.7z"/>
	<g id="XMLID_65_">
		<path id="XMLID_52_" class="st0" d="M33.2,93h-2.9c-0.8,0-1.4-0.6-1.4-1.4s0.6-1.4,1.4-1.4h2.9c0.8,0,1.4,0.6,1.4,1.4
			S34,93,33.2,93z"/>
		<path id="XMLID_51_" class="st0" d="M46.1,93h-7.2c-0.8,0-1.4-0.6-1.4-1.4s0.6-1.4,1.4-1.4h5.7V70.1c0-0.8,0.6-1.4,1.4-1.4
			c0.8,0,1.4,0.6,1.4,1.4v21.5C47.5,92.4,46.9,93,46.1,93z"/>
		<path id="XMLID_50_" class="st0" d="M79.1,93h-2.9c-0.8,0-1.4-0.6-1.4-1.4s0.6-1.4,1.4-1.4h2.9c0.8,0,1.4,0.6,1.4,1.4
			S79.9,93,79.1,93z"/>
		<path id="XMLID_49_" class="st0" d="M70.5,93h-7.2c-0.8,0-1.4-0.6-1.4-1.4V70.1c0-0.8,0.6-1.4,1.4-1.4c0.8,0,1.4,0.6,1.4,1.4v20.1
			h5.7c0.8,0,1.4,0.6,1.4,1.4S71.3,93,70.5,93z"/>
		<path id="XMLID_47_" class="st0" d="M54.7,98.8c-0.8,0-1.4-0.6-1.4-1.4v-1.4c0-0.8,0.6-1.4,1.4-1.4c0.8,0,1.4,0.6,1.4,1.4v1.4
			C56.1,98.1,55.5,98.8,54.7,98.8z"/>
		<path id="XMLID_46_" class="st0" d="M54.7,91.6c-0.8,0-1.4-0.6-1.4-1.4v-1.4c0-0.8,0.6-1.4,1.4-1.4c0.8,0,1.4,0.6,1.4,1.4v1.4
			C56.1,91,55.5,91.6,54.7,91.6z"/>
		<path id="XMLID_44_" class="st0" d="M54.7,84.4c-0.8,0-1.4-0.6-1.4-1.4v-8.6c0-0.8,0.6-1.4,1.4-1.4c0.8,0,1.4,0.6,1.4,1.4V83
			C56.1,83.8,55.5,84.4,54.7,84.4z"/>
	</g>
	<g id="XMLID_55_">
		<path id="XMLID_61_" class="st0" d="M54.8,56.2c-4.6,0-8.4-3.8-8.4-8.4c0-4.6,3.8-8.4,8.4-8.4s8.4,3.8,8.4,8.4
			C63.1,52.4,59.4,56.2,54.8,56.2z M54.8,42.3c-3,0-5.5,2.5-5.5,5.5c0,3,2.5,5.5,5.5,5.5s5.5-2.5,5.5-5.5
			C60.3,44.7,57.8,42.3,54.8,42.3z"/>
		<path id="XMLID_56_" class="st0" d="M55.2,66.2h-1.1c-2,0-3.6-1.6-3.6-3.6v-1.7c-0.8-0.2-1.5-0.6-2.3-0.9L47,61.3
			c-1.4,1.4-3.7,1.4-5.1,0l-0.8-0.8c-1.4-1.4-1.4-3.7,0-5.1l1.3-1.3c-0.4-0.7-0.7-1.5-0.9-2.3h-1.7c-2,0-3.6-1.6-3.6-3.6v-1.1
			c0-2,1.6-3.6,3.6-3.6h1.7c0.2-0.8,0.6-1.5,0.9-2.3l-1.3-1.3c-1.4-1.4-1.4-3.7,0-5.1l0.8-0.8c1.4-1.4,3.7-1.4,5.1,0l1.3,1.3
			c0.7-0.4,1.5-0.7,2.3-0.9v-1.7c0-2,1.6-3.6,3.6-3.6h1.1c2,0,3.6,1.6,3.6,3.6v1.7c0.8,0.2,1.5,0.6,2.3,0.9l1.3-1.3
			c1.4-1.4,3.7-1.4,5.1,0l0.8,0.8c1.4,1.4,1.4,3.7,0,5.1l-1.3,1.3c0.4,0.7,0.7,1.4,0.9,2.2h1.9c2,0,3.6,1.6,3.6,3.6v1.1
			c0,2-1.6,3.6-3.6,3.6h-1.8c-0.3,0.9-0.6,1.7-0.9,2.4l1.3,1.3c1.4,1.4,1.4,3.7,0,5.1l-0.8,0.8c-1.4,1.4-3.7,1.4-5.1,0L61.1,60
			c-0.7,0.4-1.5,0.7-2.3,0.9v1.7C58.8,64.6,57.2,66.2,55.2,66.2z M48.1,56.7c0.3,0,0.5,0.1,0.8,0.2c1.1,0.7,2.2,1.2,3.5,1.4
			c0.7,0.1,1.1,0.7,1.1,1.4v2.8c0,0.4,0.3,0.7,0.7,0.7h1.1c0.4,0,0.7-0.3,0.7-0.7v-2.8c0-0.7,0.5-1.3,1.1-1.4
			c1.2-0.3,2.4-0.8,3.5-1.4c0.6-0.4,1.3-0.3,1.8,0.2l2.1,2.1c0.3,0.3,0.7,0.3,1,0l0.8-0.8c0.3-0.3,0.3-0.7,0-1l-2.1-2.1
			c-0.5-0.5-0.6-1.4-0.1-1.9c0.6-0.9,1-1.9,1.3-3.2l0-0.2c0.1-0.7,0.7-1.2,1.4-1.2h2.9c0.4,0,0.7-0.3,0.7-0.7v-1.1
			c0-0.4-0.3-0.7-0.7-0.7h-3c-0.7,0-1.2-0.5-1.4-1.1C65,44.1,64.5,43,63.9,42c-0.4-0.6-0.3-1.3,0.2-1.8l2.1-2.1c0.3-0.3,0.3-0.7,0-1
			l-0.8-0.8c-0.3-0.3-0.7-0.3-1,0l-2.1,2.1c-0.5,0.5-1.2,0.6-1.8,0.2c-1.1-0.7-2.2-1.2-3.5-1.4c-0.7-0.1-1.1-0.7-1.1-1.4v-2.8
			c0-0.4-0.3-0.7-0.7-0.7h-1.1c-0.4,0-0.7,0.3-0.7,0.7v2.8c0,0.7-0.5,1.3-1.1,1.4c-1.2,0.3-2.4,0.8-3.5,1.4
			c-0.6,0.4-1.3,0.3-1.8-0.2L45,36.3c-0.3-0.3-0.7-0.3-1,0l-0.8,0.8c-0.3,0.3-0.3,0.7,0,1l2.1,2.1c0.5,0.5,0.6,1.2,0.2,1.8
			c-0.7,1.1-1.2,2.2-1.4,3.5c-0.1,0.7-0.7,1.1-1.4,1.1h-2.8c-0.4,0-0.7,0.3-0.7,0.7v1.1c0,0.4,0.3,0.7,0.7,0.7h2.8
			c0.7,0,1.3,0.5,1.4,1.1c0.3,1.2,0.8,2.4,1.4,3.5c0.4,0.6,0.3,1.3-0.2,1.8l-2.1,2.1c-0.3,0.3-0.3,0.7,0,1l0.8,0.8
			c0.3,0.3,0.7,0.3,1,0l2.1-2.1C47.4,56.9,47.7,56.7,48.1,56.7z M65.1,54.3L65.1,54.3L65.1,54.3z"/>
	</g>
</g>
</svg>
