<?xml version="1.0" encoding="utf-8"?>
<!-- Generator: Adobe Illustrator 19.0.0, SVG Export Plug-In . SVG Version: 6.00 Build 0)  -->
<svg version="1.1" id="图层_1" xmlns="http://www.w3.org/2000/svg" xmlns:xlink="http://www.w3.org/1999/xlink" x="0px" y="0px"
	 viewBox="0 0 196 174" style="enable-background:new 0 0 196 174;" xml:space="preserve">
<style type="text/css">
	.st0{fill:url(#XMLID_2_);}
</style>
<linearGradient id="XMLID_2_" gradientUnits="userSpaceOnUse" x1="31.6133" y1="153.133" x2="163.88" y2="20.8663">
	<stop  offset="0" style="stop-color:#B21E23"/>
	<stop  offset="1" style="stop-color:#D45D26"/>
</linearGradient>
<path id="XMLID_7_" class="st0" d="M188,80.4c-0.7,0-1.5,0.1-2.1,0.3l-38.7-67c1.3-1.2,2-2.9,2-4.8c0-3.7-3-6.7-6.7-6.7
	c-3.3,0-6.1,2.5-6.6,5.6H59.6c-0.5-3.2-3.3-5.6-6.6-5.6c-3.7,0-6.7,3-6.7,6.7c0,2,0.9,3.9,2.4,5.1L10.2,80.8
	c-0.7-0.2-1.4-0.3-2.1-0.3c-3.7,0-6.7,3-6.7,6.7c0,3.7,3,6.7,6.7,6.7c0.7,0,1.5-0.1,2.1-0.3L48.6,160c-1.4,1.2-2.3,3-2.3,5
	c0,3.7,3,6.7,6.7,6.7c3.2,0,5.9-2.3,6.6-5.4h76.3c0.6,3.1,3.3,5.4,6.6,5.4c3.7,0,6.7-3,6.7-6.7c0-1.8-0.7-3.5-1.9-4.7l38.6-66.9
	c0.7,0.2,1.4,0.3,2.1,0.3c3.7,0,6.7-3,6.7-6.7C194.7,83.4,191.7,80.4,188,80.4z M142.5,4.9c2.2,0,4,1.8,4,4c0,2.2-1.8,4-4,4
	s-4-1.8-4-4C138.5,6.7,140.3,4.9,142.5,4.9z M53,4.9c2.2,0,4,1.8,4,4c0,2.2-1.8,4-4,4s-4-1.8-4-4C49,6.7,50.8,4.9,53,4.9z M8,91.2
	c-2.2,0-4-1.8-4-4s1.8-4,4-4c2.2,0,4,1.8,4,4S10.2,91.2,8,91.2z M53,169.1c-2.2,0-4-1.8-4-4s1.8-4,4-4s4,1.8,4,4
	S55.2,169.1,53,169.1z M142.5,169.1c-2.2,0-4-1.8-4-4s1.8-4,4-4s4,1.8,4,4S144.7,169.1,142.5,169.1z M183.5,92.2L145,158.9
	c-0.8-0.3-1.6-0.5-2.5-0.5c-3.2,0-5.9,2.3-6.6,5.4H59.6c-0.6-3.1-3.3-5.4-6.6-5.4c-0.7,0-1.5,0.1-2.1,0.3L12.5,92.2
	c1.4-1.2,2.3-3,2.3-5c0-2-0.9-3.8-2.3-5L51,15.3c0.6,0.2,1.3,0.3,2,0.3c3.1,0,5.8-2.2,6.5-5.1H136c0.7,2.9,3.4,5.1,6.5,5.1
	c0.8,0,1.7-0.2,2.4-0.5l38.6,66.9c-1.4,1.2-2.3,3-2.3,5C181.3,89.1,182.1,90.9,183.5,92.2z M188,91.2c-2.2,0-4-1.8-4-4s1.8-4,4-4
	s4,1.8,4,4S190.2,91.2,188,91.2z M132.5,50.4L132.5,50.4c-0.5-0.5-1.5-0.5-2,0l-9.2,9.2c-0.3,0.3-0.4,0.7-0.4,1.1l0,0.5l-0.5,0.1
	c-1.5,0.4-3,0.7-4.2,0.9c-2.5,0.5-3.3,0.4-3.6,0.4c-4.7-0.7-9.6,0.9-12.9,4.3l-0.5,0.5l-0.4-0.3c-3.7-2.9-8.6-4.2-12.9-3.6
	c-1.4,0.2-6-0.8-8.5-1.5L76.8,62l0.1-0.5c0.1-0.5-0.1-0.9-0.4-1.2l-9.8-9.8c-0.5-0.5-1.5-0.5-2,0L47.1,67.9c-0.3,0.3-0.4,0.6-0.4,1
	c0,0.4,0.1,0.7,0.4,1l9.8,9.8c0.3,0.3,0.8,0.5,1.3,0.4l0.6-0.1l0.8,4.8c1.2,6.6,4.2,12.6,8.7,17.3c0.2,0.2,0.3,0.3,0.5,0.5
	l19.6,19.6c1.1,1.1,2.5,1.7,4.1,1.7s3-0.6,4.1-1.7c0.5-0.5,0.9-1.1,1.2-1.7l0.4-0.8l2.3,2.3c1.1,1.1,2.5,1.7,4.1,1.7s3-0.6,4.1-1.7
	c0.5-0.5,0.9-1.1,1.2-1.7l0.4-0.8l1,1c1.1,1.1,2.5,1.7,4.1,1.7c1.5,0,3-0.6,4.1-1.7c1.9-1.9,2.2-4.8,0.9-7l-0.4-0.6l0.7-0.3
	c0.7-0.3,1.4-0.7,1.9-1.3c1.1-1.1,1.7-2.5,1.7-4.1c0-0.8-0.2-1.5-0.5-2.2l-0.2-0.4l5.2-5.2c0.2-0.2,0.3-0.3,0.5-0.5
	c4.2-4.4,7.1-10,8.1-16.3l0.8-4.4l0.6,0.1c0.4,0,0.9-0.1,1.2-0.4l9.2-9.2c0.6-0.6,0.6-1.5,0-2L132.5,50.4z M58,76.8l-7.8-7.8
	l15.5-15.5l7.8,7.8L58,76.8z M120.3,109.3c-1.1,1.1-3,1.1-4.1,0l-11.5-11.5c-0.5-0.5-1.5-0.5-2,0c-0.6,0.6-0.6,1.5,0,2l14.5,14.5
	c0.5,0.5,0.9,1.3,0.9,2.1s-0.3,1.5-0.9,2.1c-0.5,0.5-1.3,0.9-2.1,0.9c0,0,0,0,0,0c-0.8,0-1.5-0.3-2.1-0.9L90.9,96.2
	c-0.6-0.6-1.5-0.6-2,0c-0.3,0.3-0.4,0.6-0.4,1c0,0.4,0.1,0.7,0.4,1l17.7,17.7c0.5,0.5,0.9,1.3,0.9,2.1c0,0.8-0.3,1.5-0.9,2.1
	c-1.1,1.1-3,1.1-4.1,0l-18.3-18.3c-0.6-0.6-1.5-0.5-2,0c-0.3,0.3-0.4,0.6-0.4,1s0.1,0.7,0.4,1l12.4,12.4c1.1,1.2,1.1,3,0,4.1
	c-1.1,1.1-3,1.1-4.1,0l-19.6-19.6c-0.2-0.2-0.3-0.3-0.5-0.5c-4.1-4.3-6.9-9.8-7.9-15.8l-1.2-6.9l13.2-13.2l0.3,0.1
	c4,1.1,9.4,2.3,11.4,2c3.3-0.5,7.3,0.6,10.3,2.7l0.6,0.4L84.9,81.8c-0.1,0.1-0.1,0.1-0.2,0.2l-0.2,0.2c-0.8,1-1.2,2.2-1.2,3.5
	c0,1.3,0.4,2.5,1.2,3.5l0.2,0.2c0.1,0.1,0.2,0.2,0.2,0.2c0.1,0.1,0.1,0.1,0.2,0.2c0.1,0.1,0.2,0.1,0.2,0.2c2,1.7,5.2,1.6,7.1-0.2
	c0.1-0.1,0.1-0.1,0.2-0.2l6-6l21.8,21.9c0.4,0.5,0.7,1.2,0.7,1.9C121.2,108,120.9,108.8,120.3,109.3z M134.4,82.3L134.4,82.3
	c-1,5.7-3.6,10.8-7.4,14.8l-5.4,5.4l-20.9-20.9l5.5-5.5c0.3-0.3,0.4-0.6,0.4-1s-0.1-0.7-0.4-1c-0.6-0.6-1.5-0.6-2,0L90.6,87.6
	c-0.1,0.1-0.1,0.1-0.2,0.2c-1,0.8-2.3,0.8-3.3,0c-0.1-0.1-0.2-0.1-0.2-0.2c-0.1-0.1-0.1-0.1-0.2-0.2c-0.1-0.1-0.1-0.2-0.2-0.2
	c-0.6-0.9-0.6-2,0-2.9c0-0.1,0.1-0.1,0.1-0.2c0.1-0.1,0.1-0.2,0.2-0.2l14.8-14.8c2.7-2.7,6.7-4.1,10.5-3.5c0.3,0,1.3,0.2,4.5-0.4
	c2.2-0.4,4.6-1,6.2-1.5l0.3-0.1l5.2,5.2l-6,6c-1.4,1.4-3.2,2.1-5.1,2.1c0,0,0,0,0,0c-1.9,0-3.7-0.7-5.1-2.1l-0.2-0.2
	c-0.6-0.6-1.5-0.6-2,0c-0.3,0.3-0.4,0.6-0.4,1s0.1,0.7,0.4,1l0.2,0.2c1.9,1.9,4.4,2.9,7.1,2.9s5.2-1,7.1-2.9l6-6l5.1,5.1L134.4,82.3
	z M138.7,75l-14.4-14.4l7.2-7.2l14.4,14.4L138.7,75z"/>
</svg>
